NimbusRomNo9L-Medi.ufo
<glyph name="threequarters" format="1">
  <advance width="750"/>
  <unicode hex="00BE"/>
  <outline>
    <contour>
      <point x="613" y="688" type="line"/>
      <point x="669" y="688" type="line"/>
      <point x="230" y="-12" type="line"/>
      <point x="172" y="-12" type="line"/>
    </contour>
    <contour>
      <point x="56" y="590" type="curve"/>
      <point x="36" y="597" type="line"/>
      <point x="72" y="658"/>
      <point x="120" y="688"/>
      <point x="185" y="688" type="curve" smooth="yes"/>
      <point x="252" y="688"/>
      <point x="291" y="658"/>
      <point x="291" y="607" type="curve" smooth="yes"/>
      <point x="291" y="572"/>
      <point x="278" y="553"/>
      <point x="241" y="533" type="curve"/>
      <point x="241" y="529" type="line"/>
      <point x="291" y="509"/>
      <point x="317" y="473"/>
      <point x="317" y="424" type="curve" smooth="yes"/>
      <point x="317" y="337"/>
      <point x="231" y="268"/>
      <point x="123" y="268" type="curve" smooth="yes"/>
      <point x="62" y="268"/>
      <point x="23" y="289"/>
      <point x="23" y="322" type="curve" smooth="yes"/>
      <point x="23" y="341"/>
      <point x="36" y="354"/>
      <point x="63" y="363" type="curve"/>
      <point x="92" y="360"/>
      <point x="100" y="356"/>
      <point x="130" y="330" type="curve"/>
      <point x="151" y="310"/>
      <point x="163" y="304"/>
      <point x="179" y="304" type="curve" smooth="yes"/>
      <point x="217" y="304"/>
      <point x="242" y="330"/>
      <point x="242" y="369" type="curve" smooth="yes"/>
      <point x="242" y="427"/>
      <point x="208" y="459"/>
      <point x="112" y="490" type="curve"/>
      <point x="112" y="500" type="line"/>
      <point x="173" y="518"/>
      <point x="196" y="539"/>
      <point x="196" y="579" type="curve" smooth="yes"/>
      <point x="196" y="616"/>
      <point x="170" y="640"/>
      <point x="131" y="640" type="curve" smooth="yes"/>
      <point x="100" y="640"/>
      <point x="81" y="627"/>
    </contour>
    <contour>
      <point x="692" y="153" type="line"/>
      <point x="733" y="153" type="line"/>
      <point x="733" y="87" type="line"/>
      <point x="692" y="87" type="line"/>
      <point x="692" y="0" type="line"/>
      <point x="598" y="0" type="line"/>
      <point x="598" y="87" type="line"/>
      <point x="437" y="87" type="line"/>
      <point x="437" y="154" type="line"/>
      <point x="479" y="217"/>
      <point x="512" y="259"/>
      <point x="601" y="367" type="curve"/>
      <point x="640" y="413" type="line"/>
      <point x="692" y="413" type="line"/>
    </contour>
    <contour>
      <point x="599" y="153" type="line"/>
      <point x="599" y="328" type="line"/>
      <point x="462" y="153" type="line"/>
    </contour>
  </outline>
</glyph>
<glyph name="Igrave" format="1">
  <advance width="389"/>
  <unicode hex="00CC"/>
  <outline>
    <contour>
      <point x="113" y="96" type="curve" smooth="yes"/>
      <point x="113" y="580" type="line" smooth="yes"/>
      <point x="113" y="631"/>
      <point x="92" y="646"/>
      <point x="20" y="651" type="curve"/>
      <point x="20" y="676" type="line"/>
      <point x="370" y="676" type="line"/>
      <point x="370" y="651" type="line"/>
      <point x="296" y="648"/>
      <point x="275" y="632"/>
      <point x="275" y="580" type="curve" smooth="yes"/>
      <point x="275" y="96" type="line" smooth="yes"/>
      <point x="275" y="44"/>
      <point x="294" y="30"/>
      <point x="370" y="25" type="curve"/>
      <point x="370" y="0" type="line"/>
      <point x="20" y="0" type="line"/>
      <point x="20" y="25" type="line"/>
      <point x="95" y="32"/>
      <point x="113" y="46"/>
    </contour>
    <contour>
      <point x="267" y="738" type="line"/>
      <point x="211" y="738" type="line"/>
      <point x="69" y="826" type="line" smooth="yes"/>
      <point x="40" y="844"/>
      <point x="29" y="858"/>
      <point x="29" y="878" type="curve" smooth="yes"/>
      <point x="29" y="903"/>
      <point x="50" y="923"/>
      <point x="76" y="923" type="curve" smooth="yes"/>
      <point x="95" y="923"/>
      <point x="114" y="913"/>
      <point x="130" y="895" type="curve" smooth="yes"/>
    </contour>
  </outline>
</glyph>
<glyph name="Iacute" format="1">
  <advance width="389"/>
  <unicode hex="00CD"/>
  <outline>
    <contour>
      <point x="113" y="96" type="curve" smooth="yes"/>
      <point x="113" y="580" type="line" smooth="yes"/>
      <point x="113" y="631"/>
      <point x="92" y="646"/>
      <point x="20" y="651" type="curve"/>
      <point x="20" y="676" type="line"/>
      <point x="370" y="676" type="line"/>
      <point x="370" y="651" type="line"/>
      <point x="296" y="648"/>
      <point x="275" y="632"/>
      <point x="275" y="580" type="curve" smooth="yes"/>
      <point x="275" y="96" type="line" smooth="yes"/>
      <point x="275" y="44"/>
      <point x="294" y="30"/>
      <point x="370" y="25" type="curve"/>
      <point x="370" y="0" type="line"/>
      <point x="20" y="0" type="line"/>
      <point x="20" y="25" type="line"/>
      <point x="95" y="32"/>
      <point x="113" y="46"/>
    </contour>
    <contour>
      <point x="114" y="738" type="line"/>
      <point x="251" y="895" type="line" smooth="yes"/>
      <point x="268" y="914"/>
      <point x="285" y="923"/>
      <point x="304" y="923" type="curve" smooth="yes"/>
      <point x="333" y="923"/>
      <point x="352" y="905"/>
      <point x="352" y="879" type="curve" smooth="yes"/>
      <point x="352" y="856"/>
      <point x="344" y="846"/>
      <point x="312" y="826" type="curve" smooth="yes"/>
      <point x="170" y="738" type="line"/>
    </contour>
  </outline>
</glyph>
<glyph name="Idieresis" format="1">
  <advance width="389"/>
  <unicode hex="00CF"/>
  <outline>
    <contour>
      <point x="113" y="96" type="curve" smooth="yes"/>
      <point x="113" y="580" type="line" smooth="yes"/>
      <point x="113" y="631"/>
      <point x="92" y="646"/>
      <point x="20" y="651" type="curve"/>
      <point x="20" y="676" type="line"/>
      <point x="370" y="676" type="line"/>
      <point x="370" y="651" type="line"/>
      <point x="296" y="648"/>
      <point x="275" y="632"/>
      <point x="275" y="580" type="curve" smooth="yes"/>
      <point x="275" y="96" type="line" smooth="yes"/>
      <point x="275" y="44"/>
      <point x="294" y="30"/>
      <point x="370" y="25" type="curve"/>
      <point x="370" y="0" type="line"/>
      <point x="20" y="0" type="line"/>
      <point x="20" y="25" type="line"/>
      <point x="95" y="32"/>
      <point x="113" y="46"/>
    </contour>
    <contour>
      <point x="90" y="876" type="curve" smooth="yes"/>
      <point x="125" y="876"/>
      <point x="155" y="846"/>
      <point x="155" y="810" type="curve" smooth="yes"/>
      <point x="155" y="775"/>
      <point x="126" y="747"/>
      <point x="90" y="747" type="curve" smooth="yes"/>
      <point x="55" y="747"/>
      <point x="26" y="776"/>
      <point x="26" y="812" type="curve" smooth="yes"/>
      <point x="26" y="846"/>
      <point x="56" y="876"/>
    </contour>
    <contour>
      <point x="299" y="876" type="curve" smooth="yes"/>
      <point x="335" y="876"/>
      <point x="365" y="846"/>
      <point x="365" y="810" type="curve" smooth="yes"/>
      <point x="365" y="775"/>
      <point x="336" y="747"/>
      <point x="299" y="747" type="curve" smooth="yes"/>
      <point x="264" y="747"/>
      <point x="236" y="776"/>
      <point x="236" y="813" type="curve" smooth="yes"/>
      <point x="236" y="846"/>
      <point x="266" y="876"/>
    </contour>
  </outline>
</glyph>
<glyph name="Otilde" format="1">
  <advance width="778"/>
  <unicode hex="00D5"/>
  <outline>
    <contour>
      <point x="393" y="691" type="curve" smooth="yes"/>
      <point x="594" y="691"/>
      <point x="743" y="540"/>
      <point x="743" y="336" type="curve" smooth="yes"/>
      <point x="743" y="129"/>
      <point x="596" y="-19"/>
      <point x="389" y="-19" type="curve" smooth="yes"/>
      <point x="182" y="-19"/>
      <point x="35" y="128"/>
      <point x="35" y="335" type="curve" smooth="yes"/>
      <point x="35" y="543"/>
      <point x="184" y="691"/>
    </contour>
    <contour>
      <point x="392" y="658" type="curve" smooth="yes"/>
      <point x="275" y="658"/>
      <point x="212" y="542"/>
      <point x="212" y="326" type="curve" smooth="yes"/>
      <point x="212" y="124"/>
      <point x="274" y="14"/>
      <point x="389" y="14" type="curve" smooth="yes"/>
      <point x="504" y="14"/>
      <point x="566" y="124"/>
      <point x="566" y="329" type="curve" smooth="yes"/>
      <point x="566" y="537"/>
      <point x="502" y="658"/>
    </contour>
    <contour>
      <point x="242" y="759" type="curve"/>
      <point x="200" y="759" type="line"/>
      <point x="218" y="845"/>
      <point x="254" y="884"/>
      <point x="316" y="884" type="curve" smooth="yes"/>
      <point x="337" y="884"/>
      <point x="361" y="878"/>
      <point x="389" y="865" type="curve" smooth="yes"/>
      <point x="429" y="847" type="line" smooth="yes"/>
      <point x="453" y="836"/>
      <point x="457" y="835"/>
      <point x="468" y="835" type="curve" smooth="yes"/>
      <point x="495" y="835"/>
      <point x="509" y="848"/>
      <point x="522" y="884" type="curve"/>
      <point x="565" y="884" type="line"/>
      <point x="542" y="797"/>
      <point x="505" y="757"/>
      <point x="448" y="757" type="curve" smooth="yes"/>
      <point x="428" y="757"/>
      <point x="403" y="763"/>
      <point x="384" y="771" type="curve" smooth="yes"/>
      <point x="355" y="784" type="line" smooth="yes"/>
      <point x="312" y="803"/>
      <point x="304" y="806"/>
      <point x="291" y="806" type="curve" smooth="yes"/>
      <point x="265" y="806"/>
      <point x="246" y="787"/>
    </contour>
  </outline>
</glyph>
<glyph name="ntilde" format="1">
  <advance width="556"/>
  <unicode hex="00F1"/>
  <outline>
    <contour>
      <point x="212" y="461" type="line"/>
      <point x="212" y="386" type="line"/>
      <point x="249" y="445"/>
      <point x="295" y="473"/>
      <point x="355" y="473" type="curve" smooth="yes"/>
      <point x="437" y="473"/>
      <point x="490" y="418"/>
      <point x="490" y="332" type="curve" smooth="yes"/>
      <point x="490" y="81" type="line" smooth="yes"/>
      <point x="490" y="39"/>
      <point x="500" y="27"/>
      <point x="539" y="24" type="curve"/>
      <point x="539" y="0" type="line"/>
      <point x="304" y="0" type="line"/>
      <point x="304" y="24" type="line"/>
      <point x="338" y="28"/>
      <point x="351" y="44"/>
      <point x="351" y="81" type="curve" smooth="yes"/>
      <point x="351" y="323" type="line" smooth="yes"/>
      <point x="351" y="379"/>
      <point x="334" y="406"/>
      <point x="299" y="406" type="curve" smooth="yes"/>
      <point x="276" y="406"/>
      <point x="252" y="394"/>
      <point x="230" y="371" type="curve"/>
      <point x="220" y="362"/>
      <point x="213" y="352"/>
      <point x="213" y="348" type="curve" smooth="yes"/>
      <point x="213" y="81" type="line" smooth="yes"/>
      <point x="213" y="44"/>
      <point x="225" y="29"/>
      <point x="262" y="24" type="curve"/>
      <point x="262" y="0" type="line"/>
      <point x="21" y="0" type="line"/>
      <point x="21" y="24" type="line"/>
      <point x="66" y="33"/>
      <point x="74" y="42"/>
      <point x="74" y="84" type="curve" smooth="yes"/>
      <point x="74" y="378" type="line" smooth="yes"/>
      <point x="74" y="420"/>
      <point x="65" y="430"/>
      <point x="21" y="437" type="curve"/>
      <point x="21" y="461" type="line"/>
    </contour>
    <contour>
      <point x="138" y="549" type="curve"/>
      <point x="96" y="549" type="line"/>
      <point x="114" y="635"/>
      <point x="150" y="674"/>
      <point x="212" y="674" type="curve" smooth="yes"/>
      <point x="233" y="674"/>
      <point x="257" y="668"/>
      <point x="285" y="655" type="curve" smooth="yes"/>
      <point x="325" y="637" type="line" smooth="yes"/>
      <point x="349" y="626"/>
      <point x="353" y="625"/>
      <point x="364" y="625" type="curve" smooth="yes"/>
      <point x="391" y="625"/>
      <point x="405" y="638"/>
      <point x="418" y="674" type="curve"/>
      <point x="461" y="674" type="line"/>
      <point x="438" y="587"/>
      <point x="401" y="547"/>
      <point x="344" y="547" type="curve" smooth="yes"/>
      <point x="324" y="547"/>
      <point x="299" y="553"/>
      <point x="280" y="561" type="curve" smooth="yes"/>
      <point x="251" y="574" type="line" smooth="yes"/>
      <point x="208" y="593"/>
      <point x="200" y="596"/>
      <point x="187" y="596" type="curve" smooth="yes"/>
      <point x="161" y="596"/>
      <point x="142" y="577"/>
    </contour>
  </outline>
</glyph>
<glyph name="ugrave" format="1">
  <advance width="556"/>
  <unicode hex="00F9"/>
  <outline>
    <contour>
      <point x="343" y="-13" type="curve"/>
      <point x="343" y="52" type="line"/>
      <point x="285" y="2"/>
      <point x="250" y="-14"/>
      <point x="198" y="-14" type="curve" smooth="yes"/>
      <point x="115" y="-14"/>
      <point x="65" y="38"/>
      <point x="65" y="126" type="curve" smooth="yes"/>
      <point x="65" y="378" type="line" smooth="yes"/>
      <point x="65" y="420"/>
      <point x="57" y="429"/>
      <point x="16" y="437" type="curve"/>
      <point x="16" y="461" type="line"/>
      <point x="204" y="461" type="line"/>
      <point x="204" y="122" type="line" smooth="yes"/>
      <point x="204" y="71"/>
      <point x="219" y="51"/>
      <point x="260" y="51" type="curve" smooth="yes"/>
      <point x="288" y="51"/>
      <point x="309" y="62"/>
      <point x="342" y="95" type="curve"/>
      <point x="342" y="378" type="line" smooth="yes"/>
      <point x="342" y="421"/>
      <point x="330" y="433"/>
      <point x="280" y="437" type="curve"/>
      <point x="280" y="461" type="line"/>
      <point x="481" y="461" type="line"/>
      <point x="481" y="101" type="line" smooth="yes"/>
      <point x="481" y="58"/>
      <point x="493" y="45"/>
      <point x="537" y="43" type="curve"/>
      <point x="537" y="20" type="line"/>
      <point x="475" y="13" type="line" smooth="yes"/>
      <point x="410" y="6"/>
      <point x="386" y="2"/>
    </contour>
    <contour>
      <point x="357" y="528" type="line"/>
      <point x="301" y="528" type="line"/>
      <point x="159" y="616" type="line" smooth="yes"/>
      <point x="130" y="634"/>
      <point x="119" y="648"/>
      <point x="119" y="668" type="curve" smooth="yes"/>
      <point x="119" y="693"/>
      <point x="140" y="713"/>
      <point x="166" y="713" type="curve" smooth="yes"/>
      <point x="185" y="713"/>
      <point x="204" y="703"/>
      <point x="220" y="685" type="curve" smooth="yes"/>
    </contour>
  </outline>
</glyph>
<glyph name="Abreve" format="1">
  <advance width="722"/>
  <unicode hex="0102"/>
  <outline>
    <contour>
      <point x="689" y="25" type="line"/>
      <point x="689" y="0" type="line"/>
      <point x="365" y="0" type="line"/>
      <point x="365" y="25" type="line"/>
      <point x="379" y="27"/>
      <point x="392" y="28"/>
      <point x="397" y="28" type="curve" smooth="yes"/>
      <point x="432" y="30"/>
      <point x="445" y="40"/>
      <point x="445" y="61" type="curve" smooth="yes"/>
      <point x="445" y="83"/>
      <point x="433" y="119"/>
      <point x="399" y="197" type="curve"/>
      <point x="174" y="197" type="line"/>
      <point x="159" y="158" type="line" smooth="yes"/>
      <point x="138" y="104"/>
      <point x="130" y="79"/>
      <point x="130" y="66" type="curve" smooth="yes"/>
      <point x="130" y="40"/>
      <point x="153" y="29"/>
      <point x="212" y="25" type="curve"/>
      <point x="212" y="0" type="line"/>
      <point x="9" y="0" type="line"/>
      <point x="9" y="25" type="line"/>
      <point x="57" y="34"/>
      <point x="69" y="49"/>
      <point x="107" y="142" type="curve" smooth="yes"/>
      <point x="329" y="690" type="line"/>
      <point x="357" y="690" type="line"/>
      <point x="580" y="164" type="line" smooth="yes"/>
      <point x="630" y="46"/>
      <point x="646" y="25"/>
      <point x="685" y="25" type="curve" smooth="yes"/>
    </contour>
    <contour>
      <point x="189" y="236" type="line"/>
      <point x="384" y="236" type="line"/>
      <point x="283" y="479" type="line"/>
    </contour>
    <contour>
      <point x="453" y="901" type="curve"/>
      <point x="497" y="901" type="line"/>
      <point x="491" y="850"/>
      <point x="484" y="825"/>
      <point x="467" y="799" type="curve" smooth="yes"/>
      <point x="441" y="758"/>
      <point x="400" y="738"/>
      <point x="345" y="738" type="curve" smooth="yes"/>
      <point x="292" y="738"/>
      <point x="250" y="757"/>
      <point x="225" y="793" type="curve"/>
      <point x="204" y="821"/>
      <point x="197" y="846"/>
      <point x="194" y="901" type="curve"/>
      <point x="238" y="901" type="line"/>
      <point x="249" y="840"/>
      <point x="281" y="814"/>
      <point x="345" y="814" type="curve" smooth="yes"/>
      <point x="407" y="814"/>
      <point x="436" y="838"/>
    </contour>
  </outline>
</glyph>
<glyph name="Itilde" format="1">
  <advance width="389"/>
  <unicode hex="0128"/>
  <outline>
    <contour>
      <point x="109" y="96" type="curve" smooth="yes"/>
      <point x="109" y="580" type="line" smooth="yes"/>
      <point x="109" y="631"/>
      <point x="88" y="646"/>
      <point x="16" y="651" type="curve"/>
      <point x="16" y="676" type="line"/>
      <point x="366" y="676" type="line"/>
      <point x="366" y="651" type="line"/>
      <point x="292" y="648"/>
      <point x="271" y="632"/>
      <point x="271" y="580" type="curve" smooth="yes"/>
      <point x="271" y="96" type="line" smooth="yes"/>
      <point x="271" y="44"/>
      <point x="290" y="30"/>
      <point x="366" y="25" type="curve"/>
      <point x="366" y="0" type="line"/>
      <point x="16" y="0" type="line"/>
      <point x="16" y="25" type="line"/>
      <point x="91" y="32"/>
      <point x="109" y="46"/>
    </contour>
    <contour>
      <point x="50" y="728" type="curve"/>
      <point x="8" y="728" type="line"/>
      <point x="26" y="814"/>
      <point x="62" y="853"/>
      <point x="124" y="853" type="curve" smooth="yes"/>
      <point x="145" y="853"/>
      <point x="169" y="847"/>
      <point x="197" y="834" type="curve" smooth="yes"/>
      <point x="237" y="816" type="line" smooth="yes"/>
      <point x="261" y="805"/>
      <point x="265" y="804"/>
      <point x="276" y="804" type="curve" smooth="yes"/>
      <point x="303" y="804"/>
      <point x="317" y="817"/>
      <point x="330" y="853" type="curve"/>
      <point x="373" y="853" type="line"/>
      <point x="350" y="766"/>
      <point x="313" y="726"/>
      <point x="256" y="726" type="curve" smooth="yes"/>
      <point x="236" y="726"/>
      <point x="211" y="732"/>
      <point x="192" y="740" type="curve" smooth="yes"/>
      <point x="163" y="753" type="line" smooth="yes"/>
      <point x="120" y="772"/>
      <point x="112" y="775"/>
      <point x="99" y="775" type="curve" smooth="yes"/>
      <point x="73" y="775"/>
      <point x="54" y="756"/>
    </contour>
  </outline>
</glyph>
<glyph name="itilde" format="1">
  <advance width="278"/>
  <unicode hex="0129"/>
  <outline>
    <contour>
      <point x="-5" y="513" type="curve"/>
      <point x="-47" y="513" type="line"/>
      <point x="-29" y="599"/>
      <point x="7" y="638"/>
      <point x="69" y="638" type="curve" smooth="yes"/>
      <point x="90" y="638"/>
      <point x="114" y="632"/>
      <point x="142" y="619" type="curve" smooth="yes"/>
      <point x="182" y="601" type="line" smooth="yes"/>
      <point x="206" y="590"/>
      <point x="210" y="589"/>
      <point x="221" y="589" type="curve" smooth="yes"/>
      <point x="248" y="589"/>
      <point x="262" y="602"/>
      <point x="275" y="638" type="curve"/>
      <point x="318" y="638" type="line"/>
      <point x="295" y="551"/>
      <point x="258" y="511"/>
      <point x="201" y="511" type="curve" smooth="yes"/>
      <point x="181" y="511"/>
      <point x="156" y="517"/>
      <point x="137" y="525" type="curve" smooth="yes"/>
      <point x="108" y="538" type="line" smooth="yes"/>
      <point x="65" y="557"/>
      <point x="57" y="560"/>
      <point x="44" y="560" type="curve" smooth="yes"/>
      <point x="18" y="560"/>
      <point x="-1" y="541"/>
    </contour>
    <contour>
      <point x="208" y="461" type="line"/>
      <point x="208" y="81" type="line" smooth="yes"/>
      <point x="208" y="43"/>
      <point x="220" y="29"/>
      <point x="255" y="24" type="curve"/>
      <point x="255" y="0" type="line"/>
      <point x="16" y="0" type="line"/>
      <point x="16" y="24" type="line"/>
      <point x="62" y="35"/>
      <point x="69" y="43"/>
      <point x="69" y="84" type="curve" smooth="yes"/>
      <point x="69" y="378" type="line" smooth="yes"/>
      <point x="69" y="419"/>
      <point x="60" y="428"/>
      <point x="16" y="437" type="curve"/>
      <point x="16" y="461" type="line"/>
    </contour>
  </outline>
</glyph>
<glyph name="Ibreve" format="1">
  <advance width="389"/>
  <unicode hex="012C"/>
  <outline>
    <contour>
      <point x="109" y="96" type="curve" smooth="yes"/>
      <point x="109" y="580" type="line" smooth="yes"/>
      <point x="109" y="631"/>
      <point x="88" y="646"/>
      <point x="16" y="651" type="curve"/>
      <point x="16" y="676" type="line"/>
      <point x="366" y="676" type="line"/>
      <point x="366" y="651" type="line"/>
      <point x="292" y="648"/>
      <point x="271" y="632"/>
      <point x="271" y="580" type="curve" smooth="yes"/>
      <point x="271" y="96" type="line" smooth="yes"/>
      <point x="271" y="44"/>
      <point x="290" y="30"/>
      <point x="366" y="25" type="curve"/>
      <point x="366" y="0" type="line"/>
      <point x="16" y="0" type="line"/>
      <point x="16" y="25" type="line"/>
      <point x="91" y="32"/>
      <point x="109" y="46"/>
    </contour>
    <contour>
      <point x="299" y="889" type="curve"/>
      <point x="343" y="889" type="line"/>
      <point x="337" y="838"/>
      <point x="330" y="813"/>
      <point x="313" y="787" type="curve" smooth="yes"/>
      <point x="287" y="746"/>
      <point x="246" y="726"/>
      <point x="191" y="726" type="curve" smooth="yes"/>
      <point x="138" y="726"/>
      <point x="96" y="745"/>
      <point x="71" y="781" type="curve"/>
      <point x="50" y="809"/>
      <point x="43" y="834"/>
      <point x="40" y="889" type="curve"/>
      <point x="84" y="889" type="line"/>
      <point x="95" y="828"/>
      <point x="127" y="802"/>
      <point x="191" y="802" type="curve" smooth="yes"/>
      <point x="253" y="802"/>
      <point x="282" y="826"/>
    </contour>
  </outline>
</glyph>
<glyph name="ibreve" format="1">
  <advance width="278"/>
  <unicode hex="012D"/>
  <outline>
    <contour>
      <point x="243" y="674" type="curve"/>
      <point x="287" y="674" type="line"/>
      <point x="281" y="623"/>
      <point x="274" y="598"/>
      <point x="257" y="572" type="curve" smooth="yes"/>
      <point x="231" y="531"/>
      <point x="190" y="511"/>
      <point x="135" y="511" type="curve" smooth="yes"/>
      <point x="82" y="511"/>
      <point x="40" y="530"/>
      <point x="15" y="566" type="curve"/>
      <point x="-6" y="594"/>
      <point x="-13" y="619"/>
      <point x="-16" y="674" type="curve"/>
      <point x="28" y="674" type="line"/>
      <point x="39" y="613"/>
      <point x="71" y="587"/>
      <point x="135" y="587" type="curve" smooth="yes"/>
      <point x="197" y="587"/>
      <point x="226" y="611"/>
    </contour>
    <contour>
      <point x="208" y="461" type="line"/>
      <point x="208" y="81" type="line" smooth="yes"/>
      <point x="208" y="43"/>
      <point x="220" y="29"/>
      <point x="255" y="24" type="curve"/>
      <point x="255" y="0" type="line"/>
      <point x="16" y="0" type="line"/>
      <point x="16" y="24" type="line"/>
      <point x="62" y="35"/>
      <point x="69" y="43"/>
      <point x="69" y="84" type="curve" smooth="yes"/>
      <point x="69" y="378" type="line" smooth="yes"/>
      <point x="69" y="419"/>
      <point x="60" y="428"/>
      <point x="16" y="437" type="curve"/>
      <point x="16" y="461" type="line"/>
    </contour>
  </outline>
</glyph>
<glyph name="jcircumflex" format="1">
  <advance width="333"/>
  <unicode hex="0135"/>
  <outline>
    <contour>
      <point x="277" y="592" type="line"/>
      <point x="165" y="690" type="line"/>
      <point x="53" y="592" type="line"/>
      <point x="-3" y="592" type="line"/>
      <point x="119" y="768" type="line"/>
      <point x="211" y="768" type="line"/>
      <point x="335" y="592" type="line"/>
    </contour>
    <contour>
      <point x="261" y="461" type="line"/>
      <point x="261" y="2" type="line" smooth="yes"/>
      <point x="261" y="-57"/>
      <point x="253" y="-95"/>
      <point x="234" y="-127" type="curve" smooth="yes"/>
      <point x="206" y="-176"/>
      <point x="153" y="-203"/>
      <point x="84" y="-203" type="curve" smooth="yes"/>
      <point x="2" y="-203"/>
      <point x="-56" y="-162"/>
      <point x="-56" y="-103" type="curve" smooth="yes"/>
      <point x="-56" y="-67"/>
      <point x="-31" y="-42"/>
      <point x="6" y="-42" type="curve" smooth="yes"/>
      <point x="38" y="-42"/>
      <point x="65" y="-66"/>
      <point x="65" y="-96" type="curve" smooth="yes"/>
      <point x="65" y="-106"/>
      <point x="61" y="-117"/>
      <point x="51" y="-133" type="curve" smooth="yes"/>
      <point x="45" y="-143"/>
      <point x="42" y="-150"/>
      <point x="42" y="-155" type="curve" smooth="yes"/>
      <point x="42" y="-165"/>
      <point x="55" y="-172"/>
      <point x="74" y="-172" type="curve" smooth="yes"/>
      <point x="107" y="-172"/>
      <point x="122" y="-149"/>
      <point x="122" y="-96" type="curve" smooth="yes"/>
      <point x="122" y="378" type="line" smooth="yes"/>
      <point x="122" y="421"/>
      <point x="110" y="433"/>
      <point x="59" y="437" type="curve"/>
      <point x="59" y="461" type="line"/>
    </contour>
  </outline>
</glyph>
<glyph name="Kcommaaccent" format="1">
  <advance width="778"/>
  <unicode hex="0136"/>
  <outline>
    <contour>
      <point x="769" y="25" type="curve"/>
      <point x="769" y="0" type="line"/>
      <point x="433" y="0" type="line"/>
      <point x="433" y="25" type="line"/>
      <point x="447" y="26"/>
      <point x="460" y="26"/>
      <point x="465" y="26" type="curve" smooth="yes"/>
      <point x="498" y="28"/>
      <point x="512" y="33"/>
      <point x="512" y="46" type="curve" smooth="yes"/>
      <point x="512" y="57"/>
      <point x="507" y="66"/>
      <point x="488" y="90" type="curve" smooth="yes"/>
      <point x="306" y="317" type="line"/>
      <point x="279" y="292" type="line"/>
      <point x="279" y="96" type="line" smooth="yes"/>
      <point x="279" y="47"/>
      <point x="295" y="34"/>
      <point x="367" y="25" type="curve"/>
      <point x="367" y="0" type="line"/>
      <point x="30" y="0" type="line"/>
      <point x="30" y="25" type="line"/>
      <point x="102" y="33"/>
      <point x="117" y="45"/>
      <point x="117" y="96" type="curve" smooth="yes"/>
      <point x="117" y="580" type="line" smooth="yes"/>
      <point x="117" y="632"/>
      <point x="99" y="647"/>
      <point x="30" y="651" type="curve"/>
      <point x="30" y="676" type="line"/>
      <point x="368" y="676" type="line"/>
      <point x="368" y="651" type="line"/>
      <point x="294" y="646"/>
      <point x="279" y="630"/>
      <point x="279" y="559" type="curve" smooth="yes"/>
      <point x="279" y="345" type="line"/>
      <point x="496" y="563" type="line" smooth="yes"/>
      <point x="527" y="594"/>
      <point x="532" y="602"/>
      <point x="532" y="618" type="curve" smooth="yes"/>
      <point x="532" y="638"/>
      <point x="519" y="646"/>
      <point x="483" y="648" type="curve" smooth="yes"/>
      <point x="478" y="649"/>
      <point x="464" y="650"/>
      <point x="447" y="651" type="curve"/>
      <point x="447" y="676" type="line"/>
      <point x="736" y="676" type="line"/>
      <point x="736" y="651" type="line"/>
      <point x="639" y="643"/>
      <point x="603" y="618"/>
      <point x="415" y="424" type="curve"/>
      <point x="720" y="46" type="line" smooth="yes"/>
      <point x="733" y="31"/>
      <point x="744" y="26"/>
    </contour>
    <contour>
      <point x="322" y="-341" type="curve"/>
      <point x="312" y="-322" type="line"/>
      <point x="380" y="-274"/>
      <point x="410" y="-237"/>
      <point x="410" y="-202" type="curve" smooth="yes"/>
      <point x="410" y="-192"/>
      <point x="402" y="-183"/>
      <point x="393" y="-183" type="curve" smooth="yes"/>
      <point x="392" y="-183"/>
      <point x="389" y="-183"/>
      <point x="386" y="-184" type="curve" smooth="yes"/>
      <point x="382" y="-185"/>
      <point x="377" y="-185"/>
      <point x="373" y="-185" type="curve" smooth="yes"/>
      <point x="332" y="-185"/>
      <point x="306" y="-157"/>
      <point x="306" y="-114" type="curve" smooth="yes"/>
      <point x="306" y="-69"/>
      <point x="336" y="-40"/>
      <point x="381" y="-40" type="curve" smooth="yes"/>
      <point x="435" y="-40"/>
      <point x="471" y="-82"/>
      <point x="471" y="-145" type="curve" smooth="yes"/>
      <point x="471" y="-223"/>
      <point x="426" y="-282"/>
    </contour>
  </outline>
</glyph>
<glyph name="kcommaaccent" format="1">
  <advance width="556"/>
  <unicode hex="0137"/>
  <outline>
    <contour>
      <point x="513" y="461" type="line"/>
      <point x="513" y="438" type="line"/>
      <point x="450" y="430"/>
      <point x="424" y="412"/>
      <point x="324" y="307" type="curve"/>
      <point x="518" y="39" type="line" smooth="yes"/>
      <point x="527" y="27"/>
      <point x="532" y="24"/>
      <point x="543" y="24" type="curve"/>
      <point x="543" y="0" type="line"/>
      <point x="309" y="0" type="line"/>
      <point x="309" y="24" type="line"/>
      <point x="337" y="25"/>
      <point x="351" y="31"/>
      <point x="351" y="43" type="curve" smooth="yes"/>
      <point x="351" y="51"/>
      <point x="344" y="63"/>
      <point x="327" y="88" type="curve" smooth="yes"/>
      <point x="232" y="222" type="line"/>
      <point x="209" y="198" type="line"/>
      <point x="209" y="84" type="line" smooth="yes"/>
      <point x="209" y="37"/>
      <point x="214" y="31"/>
      <point x="261" y="24" type="curve"/>
      <point x="261" y="0" type="line"/>
      <point x="22" y="0" type="line"/>
      <point x="22" y="24" type="line"/>
      <point x="55" y="27"/>
      <point x="70" y="45"/>
      <point x="70" y="84" type="curve" smooth="yes"/>
      <point x="70" y="594" type="line" smooth="yes"/>
      <point x="70" y="632"/>
      <point x="56" y="649"/>
      <point x="22" y="652" type="curve"/>
      <point x="22" y="676" type="line"/>
      <point x="209" y="676" type="line"/>
      <point x="209" y="245" type="line"/>
      <point x="337" y="373" type="line" smooth="yes"/>
      <point x="348" y="384"/>
      <point x="358" y="402"/>
      <point x="358" y="411" type="curve" smooth="yes"/>
      <point x="358" y="424"/>
      <point x="347" y="431"/>
      <point x="323" y="434" type="curve" smooth="yes"/>
      <point x="320" y="435"/>
      <point x="310" y="436"/>
      <point x="299" y="438" type="curve"/>
      <point x="299" y="461" type="line"/>
    </contour>
    <contour>
      <point x="211" y="-341" type="curve"/>
      <point x="201" y="-322" type="line"/>
      <point x="269" y="-274"/>
      <point x="299" y="-237"/>
      <point x="299" y="-202" type="curve" smooth="yes"/>
      <point x="299" y="-192"/>
      <point x="291" y="-183"/>
      <point x="282" y="-183" type="curve" smooth="yes"/>
      <point x="281" y="-183"/>
      <point x="278" y="-183"/>
      <point x="275" y="-184" type="curve" smooth="yes"/>
      <point x="271" y="-185"/>
      <point x="266" y="-185"/>
      <point x="262" y="-185" type="curve" smooth="yes"/>
      <point x="221" y="-185"/>
      <point x="195" y="-157"/>
      <point x="195" y="-114" type="curve" smooth="yes"/>
      <point x="195" y="-69"/>
      <point x="225" y="-40"/>
      <point x="270" y="-40" type="curve" smooth="yes"/>
      <point x="324" y="-40"/>
      <point x="360" y="-82"/>
      <point x="360" y="-145" type="curve" smooth="yes"/>
      <point x="360" y="-223"/>
      <point x="315" y="-282"/>
    </contour>
  </outline>
</glyph>
<glyph name="Lacute" format="1">
  <advance width="667"/>
  <unicode hex="0139"/>
  <outline>
    <contour>
      <point x="638" y="227" type="line"/>
      <point x="597" y="0" type="line"/>
      <point x="19" y="0" type="line"/>
      <point x="19" y="25" type="line"/>
      <point x="92" y="34"/>
      <point x="105" y="45"/>
      <point x="105" y="96" type="curve" smooth="yes"/>
      <point x="105" y="580" type="line" smooth="yes"/>
      <point x="105" y="631"/>
      <point x="87" y="647"/>
      <point x="19" y="651" type="curve"/>
      <point x="19" y="676" type="line"/>
      <point x="368" y="676" type="line"/>
      <point x="368" y="651" type="line"/>
      <point x="281" y="647"/>
      <point x="267" y="634"/>
      <point x="267" y="559" type="curve" smooth="yes"/>
      <point x="267" y="87" type="line" smooth="yes"/>
      <point x="267" y="44"/>
      <point x="286" y="31"/>
      <point x="347" y="31" type="curve" smooth="yes"/>
      <point x="424" y="31"/>
      <point x="480" y="49"/>
      <point x="521" y="86" type="curve" smooth="yes"/>
      <point x="556" y="118"/>
      <point x="576" y="149"/>
      <point x="609" y="227" type="curve"/>
    </contour>
    <contour>
      <point x="253" y="738" type="line"/>
      <point x="390" y="895" type="line" smooth="yes"/>
      <point x="407" y="914"/>
      <point x="424" y="923"/>
      <point x="443" y="923" type="curve" smooth="yes"/>
      <point x="472" y="923"/>
      <point x="491" y="905"/>
      <point x="491" y="879" type="curve" smooth="yes"/>
      <point x="491" y="856"/>
      <point x="483" y="846"/>
      <point x="451" y="826" type="curve" smooth="yes"/>
      <point x="309" y="738" type="line"/>
    </contour>
  </outline>
</glyph>
<glyph name="lacute" format="1">
  <advance width="278"/>
  <unicode hex="013A"/>
  <outline>
    <contour>
      <point x="206" y="676" type="line"/>
      <point x="206" y="84" type="line" smooth="yes"/>
      <point x="206" y="44"/>
      <point x="222" y="25"/>
      <point x="255" y="24" type="curve"/>
      <point x="255" y="0" type="line"/>
      <point x="16" y="0" type="line"/>
      <point x="16" y="24" type="line"/>
      <point x="50" y="27"/>
      <point x="67" y="47"/>
      <point x="67" y="84" type="curve" smooth="yes"/>
      <point x="67" y="594" type="line" smooth="yes"/>
      <point x="67" y="631"/>
      <point x="51" y="649"/>
      <point x="16" y="652" type="curve"/>
      <point x="16" y="676" type="line"/>
    </contour>
    <contour>
      <point x="59" y="738" type="line"/>
      <point x="196" y="895" type="line" smooth="yes"/>
      <point x="213" y="914"/>
      <point x="230" y="923"/>
      <point x="249" y="923" type="curve" smooth="yes"/>
      <point x="278" y="923"/>
      <point x="297" y="905"/>
      <point x="297" y="879" type="curve" smooth="yes"/>
      <point x="297" y="856"/>
      <point x="289" y="846"/>
      <point x="257" y="826" type="curve" smooth="yes"/>
      <point x="115" y="738" type="line"/>
    </contour>
  </outline>
</glyph>
<glyph name="Lcommaaccent" format="1">
  <advance width="667"/>
  <unicode hex="013B"/>
  <outline>
    <contour>
      <point x="638" y="227" type="line"/>
      <point x="597" y="0" type="line"/>
      <point x="19" y="0" type="line"/>
      <point x="19" y="25" type="line"/>
      <point x="92" y="34"/>
      <point x="105" y="45"/>
      <point x="105" y="96" type="curve" smooth="yes"/>
      <point x="105" y="580" type="line" smooth="yes"/>
      <point x="105" y="631"/>
      <point x="87" y="647"/>
      <point x="19" y="651" type="curve"/>
      <point x="19" y="676" type="line"/>
      <point x="368" y="676" type="line"/>
      <point x="368" y="651" type="line"/>
      <point x="281" y="647"/>
      <point x="267" y="634"/>
      <point x="267" y="559" type="curve" smooth="yes"/>
      <point x="267" y="87" type="line" smooth="yes"/>
      <point x="267" y="44"/>
      <point x="286" y="31"/>
      <point x="347" y="31" type="curve" smooth="yes"/>
      <point x="424" y="31"/>
      <point x="480" y="49"/>
      <point x="521" y="86" type="curve" smooth="yes"/>
      <point x="556" y="118"/>
      <point x="576" y="149"/>
      <point x="609" y="227" type="curve"/>
    </contour>
    <contour>
      <point x="267" y="-341" type="curve"/>
      <point x="257" y="-322" type="line"/>
      <point x="325" y="-274"/>
      <point x="355" y="-237"/>
      <point x="355" y="-202" type="curve" smooth="yes"/>
      <point x="355" y="-192"/>
      <point x="347" y="-183"/>
      <point x="338" y="-183" type="curve" smooth="yes"/>
      <point x="337" y="-183"/>
      <point x="334" y="-183"/>
      <point x="331" y="-184" type="curve" smooth="yes"/>
      <point x="327" y="-185"/>
      <point x="322" y="-185"/>
      <point x="318" y="-185" type="curve" smooth="yes"/>
      <point x="277" y="-185"/>
      <point x="251" y="-157"/>
      <point x="251" y="-114" type="curve" smooth="yes"/>
      <point x="251" y="-69"/>
      <point x="281" y="-40"/>
      <point x="326" y="-40" type="curve" smooth="yes"/>
      <point x="380" y="-40"/>
      <point x="416" y="-82"/>
      <point x="416" y="-145" type="curve" smooth="yes"/>
      <point x="416" y="-223"/>
      <point x="371" y="-282"/>
    </contour>
  </outline>
</glyph>
<glyph name="lcommaaccent" format="1">
  <advance width="278"/>
  <unicode hex="013C"/>
  <outline>
    <contour>
      <point x="206" y="676" type="line"/>
      <point x="206" y="84" type="line" smooth="yes"/>
      <point x="206" y="44"/>
      <point x="222" y="25"/>
      <point x="255" y="24" type="curve"/>
      <point x="255" y="0" type="line"/>
      <point x="16" y="0" type="line"/>
      <point x="16" y="24" type="line"/>
      <point x="50" y="27"/>
      <point x="67" y="47"/>
      <point x="67" y="84" type="curve" smooth="yes"/>
      <point x="67" y="594" type="line" smooth="yes"/>
      <point x="67" y="631"/>
      <point x="51" y="649"/>
      <point x="16" y="652" type="curve"/>
      <point x="16" y="676" type="line"/>
    </contour>
    <contour>
      <point x="72" y="-341" type="curve"/>
      <point x="62" y="-322" type="line"/>
      <point x="130" y="-274"/>
      <point x="160" y="-237"/>
      <point x="160" y="-202" type="curve" smooth="yes"/>
      <point x="160" y="-192"/>
      <point x="152" y="-183"/>
      <point x="143" y="-183" type="curve" smooth="yes"/>
      <point x="142" y="-183"/>
      <point x="139" y="-183"/>
      <point x="136" y="-184" type="curve" smooth="yes"/>
      <point x="132" y="-185"/>
      <point x="127" y="-185"/>
      <point x="123" y="-185" type="curve" smooth="yes"/>
      <point x="82" y="-185"/>
      <point x="56" y="-157"/>
      <point x="56" y="-114" type="curve" smooth="yes"/>
      <point x="56" y="-69"/>
      <point x="86" y="-40"/>
      <point x="131" y="-40" type="curve" smooth="yes"/>
      <point x="185" y="-40"/>
      <point x="221" y="-82"/>
      <point x="221" y="-145" type="curve" smooth="yes"/>
      <point x="221" y="-223"/>
      <point x="176" y="-282"/>
    </contour>
  </outline>
</glyph>
<glyph name="Lcaron" format="1">
  <advance width="667"/>
  <unicode hex="013D"/>
  <outline>
    <contour>
      <point x="638" y="227" type="line"/>
      <point x="597" y="0" type="line"/>
      <point x="19" y="0" type="line"/>
      <point x="19" y="25" type="line"/>
      <point x="92" y="34"/>
      <point x="105" y="45"/>
      <point x="105" y="96" type="curve" smooth="yes"/>
      <point x="105" y="580" type="line" smooth="yes"/>
      <point x="105" y="631"/>
      <point x="87" y="647"/>
      <point x="19" y="651" type="curve"/>
      <point x="19" y="676" type="line"/>
      <point x="368" y="676" type="line"/>
      <point x="368" y="651" type="line"/>
      <point x="281" y="647"/>
      <point x="267" y="634"/>
      <point x="267" y="559" type="curve" smooth="yes"/>
      <point x="267" y="87" type="line" smooth="yes"/>
      <point x="267" y="44"/>
      <point x="286" y="31"/>
      <point x="347" y="31" type="curve" smooth="yes"/>
      <point x="424" y="31"/>
      <point x="480" y="49"/>
      <point x="521" y="86" type="curve" smooth="yes"/>
      <point x="556" y="118"/>
      <point x="576" y="149"/>
      <point x="609" y="227" type="curve"/>
    </contour>
    <contour>
      <point x="447" y="390" type="curve"/>
      <point x="437" y="409" type="line"/>
      <point x="505" y="457"/>
      <point x="535" y="494"/>
      <point x="535" y="529" type="curve" smooth="yes"/>
      <point x="535" y="539"/>
      <point x="527" y="548"/>
      <point x="518" y="548" type="curve" smooth="yes"/>
      <point x="517" y="548"/>
      <point x="514" y="548"/>
      <point x="511" y="547" type="curve" smooth="yes"/>
      <point x="507" y="546"/>
      <point x="502" y="546"/>
      <point x="498" y="546" type="curve" smooth="yes"/>
      <point x="457" y="546"/>
      <point x="431" y="574"/>
      <point x="431" y="617" type="curve" smooth="yes"/>
      <point x="431" y="662"/>
      <point x="461" y="691"/>
      <point x="506" y="691" type="curve" smooth="yes"/>
      <point x="560" y="691"/>
      <point x="596" y="649"/>
      <point x="596" y="586" type="curve" smooth="yes"/>
      <point x="596" y="508"/>
      <point x="551" y="449"/>
    </contour>
  </outline>
</glyph>
<glyph name="lcaron" format="1">
  <advance width="396"/>
  <unicode hex="013E"/>
  <outline>
    <contour>
      <point x="206" y="676" type="line"/>
      <point x="206" y="84" type="line" smooth="yes"/>
      <point x="206" y="44"/>
      <point x="222" y="25"/>
      <point x="255" y="24" type="curve"/>
      <point x="255" y="0" type="line"/>
      <point x="16" y="0" type="line"/>
      <point x="16" y="24" type="line"/>
      <point x="50" y="27"/>
      <point x="67" y="47"/>
      <point x="67" y="84" type="curve" smooth="yes"/>
      <point x="67" y="594" type="line" smooth="yes"/>
      <point x="67" y="631"/>
      <point x="51" y="649"/>
      <point x="16" y="652" type="curve"/>
      <point x="16" y="676" type="line"/>
    </contour>
    <contour>
      <point x="247" y="390" type="curve"/>
      <point x="237" y="409" type="line"/>
      <point x="305" y="457"/>
      <point x="335" y="494"/>
      <point x="335" y="529" type="curve" smooth="yes"/>
      <point x="335" y="539"/>
      <point x="327" y="548"/>
      <point x="318" y="548" type="curve" smooth="yes"/>
      <point x="317" y="548"/>
      <point x="314" y="548"/>
      <point x="311" y="547" type="curve" smooth="yes"/>
      <point x="307" y="546"/>
      <point x="302" y="546"/>
      <point x="298" y="546" type="curve" smooth="yes"/>
      <point x="257" y="546"/>
      <point x="231" y="574"/>
      <point x="231" y="617" type="curve" smooth="yes"/>
      <point x="231" y="662"/>
      <point x="261" y="691"/>
      <point x="306" y="691" type="curve" smooth="yes"/>
      <point x="360" y="691"/>
      <point x="396" y="649"/>
      <point x="396" y="586" type="curve" smooth="yes"/>
      <point x="396" y="508"/>
      <point x="351" y="449"/>
    </contour>
  </outline>
</glyph>
<glyph name="Ncommaaccent" format="1">
  <advance width="722"/>
  <unicode hex="0145"/>
  <outline>
    <contour>
      <point x="230" y="676" type="line"/>
      <point x="579" y="247" type="line"/>
      <point x="579" y="552" type="line" smooth="yes"/>
      <point x="579" y="623"/>
      <point x="560" y="644"/>
      <point x="486" y="651" type="curve"/>
      <point x="486" y="676" type="line"/>
      <point x="701" y="676" type="line"/>
      <point x="701" y="651" type="line"/>
      <point x="636" y="641"/>
      <point x="623" y="628"/>
      <point x="623" y="571" type="curve" smooth="yes"/>
      <point x="623" y="-18" type="line"/>
      <point x="595" y="-18" type="line"/>
      <point x="148" y="526" type="line"/>
      <point x="148" y="124" type="line" smooth="yes"/>
      <point x="148" y="53"/>
      <point x="166" y="34"/>
      <point x="243" y="25" type="curve"/>
      <point x="243" y="0" type="line"/>
      <point x="16" y="0" type="line"/>
      <point x="16" y="25" type="line"/>
      <point x="89" y="34"/>
      <point x="104" y="48"/>
      <point x="104" y="105" type="curve" smooth="yes"/>
      <point x="104" y="579" type="line"/>
      <point x="56" y="636"/>
      <point x="39" y="651"/>
      <point x="19" y="651" type="curve"/>
      <point x="19" y="676" type="line"/>
    </contour>
    <contour>
      <point x="294" y="-341" type="curve"/>
      <point x="284" y="-322" type="line"/>
      <point x="352" y="-274"/>
      <point x="382" y="-237"/>
      <point x="382" y="-202" type="curve" smooth="yes"/>
      <point x="382" y="-192"/>
      <point x="374" y="-183"/>
      <point x="365" y="-183" type="curve" smooth="yes"/>
      <point x="364" y="-183"/>
      <point x="361" y="-183"/>
      <point x="358" y="-184" type="curve" smooth="yes"/>
      <point x="354" y="-185"/>
      <point x="349" y="-185"/>
      <point x="345" y="-185" type="curve" smooth="yes"/>
      <point x="304" y="-185"/>
      <point x="278" y="-157"/>
      <point x="278" y="-114" type="curve" smooth="yes"/>
      <point x="278" y="-69"/>
      <point x="308" y="-40"/>
      <point x="353" y="-40" type="curve" smooth="yes"/>
      <point x="407" y="-40"/>
      <point x="443" y="-82"/>
      <point x="443" y="-145" type="curve" smooth="yes"/>
      <point x="443" y="-223"/>
      <point x="398" y="-282"/>
    </contour>
  </outline>
</glyph>
<glyph name="napostrophe" format="1">
  <advance width="704"/>
  <unicode hex="0149"/>
  <outline>
    <contour>
      <point x="360" y="461" type="line"/>
      <point x="360" y="386" type="line"/>
      <point x="397" y="445"/>
      <point x="443" y="473"/>
      <point x="503" y="473" type="curve" smooth="yes"/>
      <point x="585" y="473"/>
      <point x="638" y="418"/>
      <point x="638" y="332" type="curve" smooth="yes"/>
      <point x="638" y="81" type="line" smooth="yes"/>
      <point x="638" y="39"/>
      <point x="648" y="27"/>
      <point x="687" y="24" type="curve"/>
      <point x="687" y="0" type="line"/>
      <point x="452" y="0" type="line"/>
      <point x="452" y="24" type="line"/>
      <point x="486" y="28"/>
      <point x="499" y="44"/>
      <point x="499" y="81" type="curve" smooth="yes"/>
      <point x="499" y="323" type="line" smooth="yes"/>
      <point x="499" y="379"/>
      <point x="482" y="406"/>
      <point x="447" y="406" type="curve" smooth="yes"/>
      <point x="424" y="406"/>
      <point x="400" y="394"/>
      <point x="378" y="371" type="curve"/>
      <point x="368" y="362"/>
      <point x="361" y="352"/>
      <point x="361" y="348" type="curve" smooth="yes"/>
      <point x="361" y="81" type="line" smooth="yes"/>
      <point x="361" y="44"/>
      <point x="373" y="29"/>
      <point x="410" y="24" type="curve"/>
      <point x="410" y="0" type="line"/>
      <point x="169" y="0" type="line"/>
      <point x="169" y="24" type="line"/>
      <point x="214" y="33"/>
      <point x="222" y="42"/>
      <point x="222" y="84" type="curve" smooth="yes"/>
      <point x="222" y="378" type="line" smooth="yes"/>
      <point x="222" y="420"/>
      <point x="213" y="430"/>
      <point x="169" y="437" type="curve"/>
      <point x="169" y="461" type="line"/>
    </contour>
    <contour>
      <point x="106" y="295" type="curve"/>
      <point x="65" y="295" type="line"/>
      <point x="60" y="316"/>
      <point x="55" y="336"/>
      <point x="54" y="343" type="curve" smooth="yes"/>
      <point x="33" y="426"/>
      <point x="21" y="490"/>
      <point x="21" y="511" type="curve" smooth="yes"/>
      <point x="21" y="554"/>
      <point x="47" y="582"/>
      <point x="85" y="582" type="curve" smooth="yes"/>
      <point x="122" y="582"/>
      <point x="150" y="553"/>
      <point x="150" y="515" type="curve" smooth="yes"/>
      <point x="150" y="493"/>
      <point x="139" y="439"/>
    </contour>
  </outline>
</glyph>
<glyph name="Eng" format="1">
  <advance width="722"/>
  <unicode hex="014A"/>
  <outline>
    <contour>
      <point x="582" y="0" type="line"/>
      <point x="148" y="526" type="line"/>
      <point x="148" y="124" type="line" smooth="yes"/>
      <point x="148" y="53"/>
      <point x="166" y="34"/>
      <point x="243" y="25" type="curve"/>
      <point x="243" y="0" type="line"/>
      <point x="16" y="0" type="line"/>
      <point x="16" y="25" type="line"/>
      <point x="89" y="34"/>
      <point x="104" y="48"/>
      <point x="104" y="105" type="curve" smooth="yes"/>
      <point x="104" y="579" type="line"/>
      <point x="56" y="636"/>
      <point x="39" y="651"/>
      <point x="19" y="651" type="curve"/>
      <point x="19" y="676" type="line"/>
      <point x="230" y="676" type="line"/>
      <point x="579" y="247" type="line"/>
      <point x="579" y="552" type="line" smooth="yes"/>
      <point x="579" y="623"/>
      <point x="560" y="644"/>
      <point x="486" y="651" type="curve"/>
      <point x="486" y="676" type="line"/>
      <point x="701" y="676" type="line"/>
      <point x="701" y="651" type="line"/>
      <point x="636" y="641"/>
      <point x="623" y="628"/>
      <point x="623" y="571" type="curve" smooth="yes"/>
      <point x="623" y="-8" type="line" smooth="yes"/>
      <point x="623" y="-138"/>
      <point x="618" y="-228"/>
      <point x="509" y="-227" type="curve" smooth="yes"/>
      <point x="469" y="-227"/>
      <point x="429" y="-218"/>
      <point x="403" y="-204" type="curve"/>
      <point x="364" y="-181"/>
      <point x="336" y="-136"/>
      <point x="336" y="-95" type="curve" smooth="yes"/>
      <point x="336" y="-57"/>
      <point x="369" y="-23"/>
      <point x="406" y="-23" type="curve" smooth="yes"/>
      <point x="445" y="-23"/>
      <point x="479" y="-58"/>
      <point x="479" y="-98" type="curve" smooth="yes"/>
      <point x="479" y="-113"/>
      <point x="476" y="-121"/>
      <point x="464" y="-136" type="curve" smooth="yes"/>
      <point x="455" y="-148"/>
      <point x="452" y="-154"/>
      <point x="452" y="-162" type="curve" smooth="yes"/>
      <point x="452" y="-181"/>
      <point x="470" y="-194"/>
      <point x="497" y="-194" type="curve" smooth="yes"/>
      <point x="542" y="-194"/>
      <point x="582" y="-169"/>
      <point x="582" y="-107" type="curve" smooth="yes"/>
    </contour>
  </outline>
</glyph>
<glyph name="Obreve" format="1">
  <advance width="778"/>
  <unicode hex="014E"/>
  <outline>
    <contour>
      <point x="496" y="889" type="curve"/>
      <point x="540" y="889" type="line"/>
      <point x="534" y="838"/>
      <point x="527" y="813"/>
      <point x="510" y="787" type="curve" smooth="yes"/>
      <point x="484" y="746"/>
      <point x="443" y="726"/>
      <point x="388" y="726" type="curve" smooth="yes"/>
      <point x="335" y="726"/>
      <point x="293" y="745"/>
      <point x="268" y="781" type="curve"/>
      <point x="247" y="809"/>
      <point x="240" y="834"/>
      <point x="237" y="889" type="curve"/>
      <point x="281" y="889" type="line"/>
      <point x="292" y="828"/>
      <point x="324" y="802"/>
      <point x="388" y="802" type="curve" smooth="yes"/>
      <point x="450" y="802"/>
      <point x="479" y="826"/>
    </contour>
    <contour>
      <point x="393" y="691" type="curve" smooth="yes"/>
      <point x="594" y="691"/>
      <point x="743" y="540"/>
      <point x="743" y="336" type="curve" smooth="yes"/>
      <point x="743" y="129"/>
      <point x="596" y="-19"/>
      <point x="389" y="-19" type="curve" smooth="yes"/>
      <point x="182" y="-19"/>
      <point x="35" y="128"/>
      <point x="35" y="335" type="curve" smooth="yes"/>
      <point x="35" y="543"/>
      <point x="184" y="691"/>
    </contour>
    <contour>
      <point x="392" y="658" type="curve" smooth="yes"/>
      <point x="275" y="658"/>
      <point x="212" y="542"/>
      <point x="212" y="326" type="curve" smooth="yes"/>
      <point x="212" y="124"/>
      <point x="274" y="14"/>
      <point x="389" y="14" type="curve" smooth="yes"/>
      <point x="504" y="14"/>
      <point x="566" y="124"/>
      <point x="566" y="329" type="curve" smooth="yes"/>
      <point x="566" y="537"/>
      <point x="502" y="658"/>
    </contour>
  </outline>
</glyph>
<glyph name="obreve" format="1">
  <advance width="500"/>
  <unicode hex="014F"/>
  <outline>
    <contour>
      <point x="358" y="674" type="curve"/>
      <point x="402" y="674" type="line"/>
      <point x="396" y="623"/>
      <point x="389" y="598"/>
      <point x="372" y="572" type="curve" smooth="yes"/>
      <point x="346" y="531"/>
      <point x="305" y="511"/>
      <point x="250" y="511" type="curve" smooth="yes"/>
      <point x="197" y="511"/>
      <point x="155" y="530"/>
      <point x="130" y="566" type="curve"/>
      <point x="109" y="594"/>
      <point x="102" y="619"/>
      <point x="99" y="674" type="curve"/>
      <point x="143" y="674" type="line"/>
      <point x="154" y="613"/>
      <point x="186" y="587"/>
      <point x="250" y="587" type="curve" smooth="yes"/>
      <point x="312" y="587"/>
      <point x="341" y="611"/>
    </contour>
    <contour>
      <point x="251" y="473" type="curve" smooth="yes"/>
      <point x="380" y="473"/>
      <point x="476" y="369"/>
      <point x="476" y="229" type="curve" smooth="yes"/>
      <point x="476" y="90"/>
      <point x="380" y="-14"/>
      <point x="251" y="-14" type="curve" smooth="yes"/>
      <point x="120" y="-14"/>
      <point x="25" y="89"/>
      <point x="25" y="232" type="curve" smooth="yes"/>
      <point x="25" y="368"/>
      <point x="124" y="473"/>
    </contour>
    <contour>
      <point x="252" y="442" type="curve" smooth="yes"/>
      <point x="190" y="442"/>
      <point x="172" y="390"/>
      <point x="172" y="214" type="curve" smooth="yes"/>
      <point x="172" y="68"/>
      <point x="192" y="17"/>
      <point x="251" y="17" type="curve" smooth="yes"/>
      <point x="309" y="17"/>
      <point x="329" y="69"/>
      <point x="329" y="223" type="curve" smooth="yes"/>
      <point x="329" y="387"/>
      <point x="310" y="442"/>
    </contour>
  </outline>
</glyph>
<glyph name="Rcommaaccent" format="1">
  <advance width="722"/>
  <unicode hex="0156"/>
  <outline>
    <contour>
      <point x="715" y="25" type="curve"/>
      <point x="715" y="0" type="line"/>
      <point x="510" y="0" type="line"/>
      <point x="303" y="313" type="line"/>
      <point x="276" y="313" type="line"/>
      <point x="276" y="117" type="line" smooth="yes"/>
      <point x="276" y="46"/>
      <point x="286" y="35"/>
      <point x="364" y="25" type="curve"/>
      <point x="364" y="0" type="line"/>
      <point x="26" y="0" type="line"/>
      <point x="26" y="25" type="line"/>
      <point x="104" y="34"/>
      <point x="114" y="44"/>
      <point x="114" y="117" type="curve" smooth="yes"/>
      <point x="114" y="559" type="line" smooth="yes"/>
      <point x="114" y="631"/>
      <point x="100" y="646"/>
      <point x="26" y="651" type="curve"/>
      <point x="26" y="676" type="line"/>
      <point x="348" y="676" type="line" smooth="yes"/>
      <point x="531" y="676"/>
      <point x="630" y="613"/>
      <point x="630" y="498" type="curve" smooth="yes"/>
      <point x="630" y="453"/>
      <point x="614" y="413"/>
      <point x="585" y="386" type="curve" smooth="yes"/>
      <point x="557" y="361"/>
      <point x="532" y="348"/>
      <point x="473" y="329" type="curve"/>
      <point x="674" y="44" type="line" smooth="yes"/>
      <point x="684" y="31"/>
      <point x="697" y="25"/>
    </contour>
    <contour>
      <point x="276" y="600" type="curve" smooth="yes"/>
      <point x="276" y="345" type="line"/>
      <point x="352" y="346"/>
      <point x="386" y="353"/>
      <point x="412" y="370" type="curve" smooth="yes"/>
      <point x="444" y="391"/>
      <point x="459" y="430"/>
      <point x="459" y="494" type="curve" smooth="yes"/>
      <point x="459" y="599"/>
      <point x="422" y="642"/>
      <point x="330" y="642" type="curve" smooth="yes"/>
      <point x="305" y="642"/>
      <point x="289" y="637"/>
      <point x="283" y="627" type="curve" smooth="yes"/>
      <point x="280" y="621"/>
      <point x="276" y="606"/>
    </contour>
    <contour>
      <point x="294" y="-341" type="curve"/>
      <point x="284" y="-322" type="line"/>
      <point x="352" y="-274"/>
      <point x="382" y="-237"/>
      <point x="382" y="-202" type="curve" smooth="yes"/>
      <point x="382" y="-192"/>
      <point x="374" y="-183"/>
      <point x="365" y="-183" type="curve" smooth="yes"/>
      <point x="364" y="-183"/>
      <point x="361" y="-183"/>
      <point x="358" y="-184" type="curve" smooth="yes"/>
      <point x="354" y="-185"/>
      <point x="349" y="-185"/>
      <point x="345" y="-185" type="curve" smooth="yes"/>
      <point x="304" y="-185"/>
      <point x="278" y="-157"/>
      <point x="278" y="-114" type="curve" smooth="yes"/>
      <point x="278" y="-69"/>
      <point x="308" y="-40"/>
      <point x="353" y="-40" type="curve" smooth="yes"/>
      <point x="407" y="-40"/>
      <point x="443" y="-82"/>
      <point x="443" y="-145" type="curve" smooth="yes"/>
      <point x="443" y="-223"/>
      <point x="398" y="-282"/>
    </contour>
  </outline>
</glyph>
<glyph name="tcommaaccent" format="1">
  <advance width="333"/>
  <unicode hex="0163"/>
  <outline>
    <contour>
      <point x="305" y="461" type="line"/>
      <point x="305" y="417" type="line"/>
      <point x="211" y="417" type="line"/>
      <point x="211" y="116" type="line" smooth="yes"/>
      <point x="211" y="76"/>
      <point x="222" y="59"/>
      <point x="250" y="59" type="curve" smooth="yes"/>
      <point x="271" y="59"/>
      <point x="287" y="73"/>
      <point x="307" y="111" type="curve"/>
      <point x="332" y="100" type="line"/>
      <point x="291" y="18"/>
      <point x="251" y="-12"/>
      <point x="184" y="-12" type="curve" smooth="yes"/>
      <point x="115" y="-12"/>
      <point x="72" y="28"/>
      <point x="72" y="93" type="curve" smooth="yes"/>
      <point x="72" y="417" type="line"/>
      <point x="20" y="417" type="line"/>
      <point x="20" y="444" type="line"/>
      <point x="85" y="499"/>
      <point x="125" y="544"/>
      <point x="186" y="630" type="curve"/>
      <point x="211" y="630" type="line"/>
      <point x="211" y="461" type="line"/>
    </contour>
    <contour>
      <point x="100" y="-341" type="curve"/>
      <point x="90" y="-322" type="line"/>
      <point x="158" y="-274"/>
      <point x="188" y="-237"/>
      <point x="188" y="-202" type="curve" smooth="yes"/>
      <point x="188" y="-192"/>
      <point x="180" y="-183"/>
      <point x="171" y="-183" type="curve" smooth="yes"/>
      <point x="170" y="-183"/>
      <point x="167" y="-183"/>
      <point x="164" y="-184" type="curve" smooth="yes"/>
      <point x="160" y="-185"/>
      <point x="155" y="-185"/>
      <point x="151" y="-185" type="curve" smooth="yes"/>
      <point x="110" y="-185"/>
      <point x="84" y="-157"/>
      <point x="84" y="-114" type="curve" smooth="yes"/>
      <point x="84" y="-69"/>
      <point x="114" y="-40"/>
      <point x="159" y="-40" type="curve" smooth="yes"/>
      <point x="213" y="-40"/>
      <point x="249" y="-82"/>
      <point x="249" y="-145" type="curve" smooth="yes"/>
      <point x="249" y="-223"/>
      <point x="204" y="-282"/>
    </contour>
  </outline>
</glyph>
<glyph name="Utilde" format="1">
  <advance width="722"/>
  <unicode hex="0168"/>
  <outline>
    <contour>
      <point x="218" y="728" type="curve"/>
      <point x="176" y="728" type="line"/>
      <point x="194" y="814"/>
      <point x="230" y="853"/>
      <point x="292" y="853" type="curve" smooth="yes"/>
      <point x="313" y="853"/>
      <point x="337" y="847"/>
      <point x="365" y="834" type="curve" smooth="yes"/>
      <point x="405" y="816" type="line" smooth="yes"/>
      <point x="429" y="805"/>
      <point x="433" y="804"/>
      <point x="444" y="804" type="curve" smooth="yes"/>
      <point x="471" y="804"/>
      <point x="485" y="817"/>
      <point x="498" y="853" type="curve"/>
      <point x="541" y="853" type="line"/>
      <point x="518" y="766"/>
      <point x="481" y="726"/>
      <point x="424" y="726" type="curve" smooth="yes"/>
      <point x="404" y="726"/>
      <point x="379" y="732"/>
      <point x="360" y="740" type="curve" smooth="yes"/>
      <point x="331" y="753" type="line" smooth="yes"/>
      <point x="288" y="772"/>
      <point x="280" y="775"/>
      <point x="267" y="775" type="curve" smooth="yes"/>
      <point x="241" y="775"/>
      <point x="222" y="756"/>
    </contour>
    <contour>
      <point x="623" y="566" type="curve" smooth="yes"/>
      <point x="623" y="247" type="line" smooth="yes"/>
      <point x="623" y="154"/>
      <point x="597" y="78"/>
      <point x="552" y="40" type="curve" smooth="yes"/>
      <point x="509" y="3"/>
      <point x="439" y="-19"/>
      <point x="365" y="-19" type="curve" smooth="yes"/>
      <point x="292" y="-19"/>
      <point x="228" y="-1"/>
      <point x="180" y="34" type="curve" smooth="yes"/>
      <point x="119" y="78"/>
      <point x="98" y="127"/>
      <point x="98" y="225" type="curve" smooth="yes"/>
      <point x="98" y="559" type="line" smooth="yes"/>
      <point x="98" y="631"/>
      <point x="86" y="644"/>
      <point x="16" y="651" type="curve"/>
      <point x="16" y="676" type="line"/>
      <point x="354" y="676" type="line"/>
      <point x="354" y="651" type="line"/>
      <point x="306" y="649"/>
      <point x="290" y="645"/>
      <point x="278" y="635" type="curve" smooth="yes"/>
      <point x="263" y="621"/>
      <point x="257" y="599"/>
      <point x="257" y="559" type="curve" smooth="yes"/>
      <point x="257" y="225" type="line" smooth="yes"/>
      <point x="257" y="89"/>
      <point x="302" y="30"/>
      <point x="404" y="30" type="curve" smooth="yes"/>
      <point x="523" y="30"/>
      <point x="579" y="99"/>
      <point x="579" y="247" type="curve" smooth="yes"/>
      <point x="579" y="552" type="line" smooth="yes"/>
      <point x="579" y="625"/>
      <point x="559" y="645"/>
      <point x="481" y="651" type="curve"/>
      <point x="481" y="676" type="line"/>
      <point x="701" y="676" type="line"/>
      <point x="701" y="651" type="line"/>
      <point x="637" y="641"/>
      <point x="623" y="625"/>
    </contour>
  </outline>
</glyph>
<glyph name="Ubreve" format="1">
  <advance width="722"/>
  <unicode hex="016C"/>
  <outline>
    <contour>
      <point x="466" y="889" type="curve"/>
      <point x="510" y="889" type="line"/>
      <point x="504" y="838"/>
      <point x="497" y="813"/>
      <point x="480" y="787" type="curve" smooth="yes"/>
      <point x="454" y="746"/>
      <point x="413" y="726"/>
      <point x="358" y="726" type="curve" smooth="yes"/>
      <point x="305" y="726"/>
      <point x="263" y="745"/>
      <point x="238" y="781" type="curve"/>
      <point x="217" y="809"/>
      <point x="210" y="834"/>
      <point x="207" y="889" type="curve"/>
      <point x="251" y="889" type="line"/>
      <point x="262" y="828"/>
      <point x="294" y="802"/>
      <point x="358" y="802" type="curve" smooth="yes"/>
      <point x="420" y="802"/>
      <point x="449" y="826"/>
    </contour>
    <contour>
      <point x="623" y="566" type="curve" smooth="yes"/>
      <point x="623" y="247" type="line" smooth="yes"/>
      <point x="623" y="154"/>
      <point x="597" y="78"/>
      <point x="552" y="40" type="curve" smooth="yes"/>
      <point x="509" y="3"/>
      <point x="439" y="-19"/>
      <point x="365" y="-19" type="curve" smooth="yes"/>
      <point x="292" y="-19"/>
      <point x="228" y="-1"/>
      <point x="180" y="34" type="curve" smooth="yes"/>
      <point x="119" y="78"/>
      <point x="98" y="127"/>
      <point x="98" y="225" type="curve" smooth="yes"/>
      <point x="98" y="559" type="line" smooth="yes"/>
      <point x="98" y="631"/>
      <point x="86" y="644"/>
      <point x="16" y="651" type="curve"/>
      <point x="16" y="676" type="line"/>
      <point x="354" y="676" type="line"/>
      <point x="354" y="651" type="line"/>
      <point x="306" y="649"/>
      <point x="290" y="645"/>
      <point x="278" y="635" type="curve" smooth="yes"/>
      <point x="263" y="621"/>
      <point x="257" y="599"/>
      <point x="257" y="559" type="curve" smooth="yes"/>
      <point x="257" y="225" type="line" smooth="yes"/>
      <point x="257" y="89"/>
      <point x="302" y="30"/>
      <point x="404" y="30" type="curve" smooth="yes"/>
      <point x="523" y="30"/>
      <point x="579" y="99"/>
      <point x="579" y="247" type="curve" smooth="yes"/>
      <point x="579" y="552" type="line" smooth="yes"/>
      <point x="579" y="625"/>
      <point x="559" y="645"/>
      <point x="481" y="651" type="curve"/>
      <point x="481" y="676" type="line"/>
      <point x="701" y="676" type="line"/>
      <point x="701" y="651" type="line"/>
      <point x="637" y="641"/>
      <point x="623" y="625"/>
    </contour>
  </outline>
</glyph>
<glyph name="ubreve" format="1">
  <advance width="556"/>
  <unicode hex="016D"/>
  <outline>
    <contour>
      <point x="384" y="674" type="curve"/>
      <point x="428" y="674" type="line"/>
      <point x="422" y="623"/>
      <point x="415" y="598"/>
      <point x="398" y="572" type="curve" smooth="yes"/>
      <point x="372" y="531"/>
      <point x="331" y="511"/>
      <point x="276" y="511" type="curve" smooth="yes"/>
      <point x="223" y="511"/>
      <point x="181" y="530"/>
      <point x="156" y="566" type="curve"/>
      <point x="135" y="594"/>
      <point x="128" y="619"/>
      <point x="125" y="674" type="curve"/>
      <point x="169" y="674" type="line"/>
      <point x="180" y="613"/>
      <point x="212" y="587"/>
      <point x="276" y="587" type="curve" smooth="yes"/>
      <point x="338" y="587"/>
      <point x="367" y="611"/>
    </contour>
    <contour>
      <point x="343" y="-13" type="curve"/>
      <point x="343" y="52" type="line"/>
      <point x="285" y="2"/>
      <point x="250" y="-14"/>
      <point x="198" y="-14" type="curve" smooth="yes"/>
      <point x="115" y="-14"/>
      <point x="65" y="38"/>
      <point x="65" y="126" type="curve" smooth="yes"/>
      <point x="65" y="378" type="line" smooth="yes"/>
      <point x="65" y="420"/>
      <point x="57" y="429"/>
      <point x="16" y="437" type="curve"/>
      <point x="16" y="461" type="line"/>
      <point x="204" y="461" type="line"/>
      <point x="204" y="122" type="line" smooth="yes"/>
      <point x="204" y="71"/>
      <point x="219" y="51"/>
      <point x="260" y="51" type="curve" smooth="yes"/>
      <point x="288" y="51"/>
      <point x="309" y="62"/>
      <point x="342" y="95" type="curve"/>
      <point x="342" y="378" type="line" smooth="yes"/>
      <point x="342" y="421"/>
      <point x="330" y="433"/>
      <point x="280" y="437" type="curve"/>
      <point x="280" y="461" type="line"/>
      <point x="481" y="461" type="line"/>
      <point x="481" y="101" type="line" smooth="yes"/>
      <point x="481" y="58"/>
      <point x="493" y="45"/>
      <point x="537" y="43" type="curve"/>
      <point x="537" y="20" type="line"/>
      <point x="475" y="13" type="line" smooth="yes"/>
      <point x="410" y="6"/>
      <point x="386" y="2"/>
    </contour>
  </outline>
</glyph>
<glyph name="Uring" format="1">
  <advance width="722"/>
  <unicode hex="016E"/>
  <outline>
    <contour>
      <point x="623" y="566" type="curve" smooth="yes"/>
      <point x="623" y="247" type="line" smooth="yes"/>
      <point x="623" y="154"/>
      <point x="597" y="78"/>
      <point x="552" y="40" type="curve" smooth="yes"/>
      <point x="509" y="3"/>
      <point x="439" y="-19"/>
      <point x="365" y="-19" type="curve" smooth="yes"/>
      <point x="292" y="-19"/>
      <point x="228" y="-1"/>
      <point x="180" y="34" type="curve" smooth="yes"/>
      <point x="119" y="78"/>
      <point x="98" y="127"/>
      <point x="98" y="225" type="curve" smooth="yes"/>
      <point x="98" y="559" type="line" smooth="yes"/>
      <point x="98" y="631"/>
      <point x="86" y="644"/>
      <point x="16" y="651" type="curve"/>
      <point x="16" y="676" type="line"/>
      <point x="354" y="676" type="line"/>
      <point x="354" y="651" type="line"/>
      <point x="306" y="649"/>
      <point x="290" y="645"/>
      <point x="278" y="635" type="curve" smooth="yes"/>
      <point x="263" y="621"/>
      <point x="257" y="599"/>
      <point x="257" y="559" type="curve" smooth="yes"/>
      <point x="257" y="225" type="line" smooth="yes"/>
      <point x="257" y="89"/>
      <point x="302" y="30"/>
      <point x="404" y="30" type="curve" smooth="yes"/>
      <point x="523" y="30"/>
      <point x="579" y="99"/>
      <point x="579" y="247" type="curve" smooth="yes"/>
      <point x="579" y="552" type="line" smooth="yes"/>
      <point x="579" y="625"/>
      <point x="559" y="645"/>
      <point x="481" y="651" type="curve"/>
      <point x="481" y="676" type="line"/>
      <point x="701" y="676" type="line"/>
      <point x="701" y="651" type="line"/>
      <point x="637" y="641"/>
      <point x="623" y="625"/>
    </contour>
    <contour>
      <point x="361" y="960" type="curve" smooth="yes"/>
      <point x="419" y="960"/>
      <point x="467" y="911"/>
      <point x="467" y="853" type="curve" smooth="yes"/>
      <point x="467" y="794"/>
      <point x="419" y="747"/>
      <point x="360" y="747" type="curve" smooth="yes"/>
      <point x="301" y="747"/>
      <point x="254" y="795"/>
      <point x="254" y="855" type="curve" smooth="yes"/>
      <point x="254" y="911"/>
      <point x="303" y="960"/>
    </contour>
    <contour>
      <point x="360" y="912" type="curve" smooth="yes"/>
      <point x="329" y="912"/>
      <point x="302" y="884"/>
      <point x="302" y="853" type="curve" smooth="yes"/>
      <point x="302" y="821"/>
      <point x="328" y="795"/>
      <point x="359" y="795" type="curve" smooth="yes"/>
      <point x="392" y="795"/>
      <point x="419" y="821"/>
      <point x="419" y="852" type="curve" smooth="yes"/>
      <point x="419" y="884"/>
      <point x="392" y="912"/>
    </contour>
  </outline>
</glyph>
<glyph name="uhungarumlaut" format="1">
  <advance width="556"/>
  <unicode hex="0171"/>
  <outline>
    <contour>
      <point x="343" y="-13" type="curve"/>
      <point x="343" y="52" type="line"/>
      <point x="285" y="2"/>
      <point x="250" y="-14"/>
      <point x="198" y="-14" type="curve" smooth="yes"/>
      <point x="115" y="-14"/>
      <point x="65" y="38"/>
      <point x="65" y="126" type="curve" smooth="yes"/>
      <point x="65" y="378" type="line" smooth="yes"/>
      <point x="65" y="420"/>
      <point x="57" y="429"/>
      <point x="16" y="437" type="curve"/>
      <point x="16" y="461" type="line"/>
      <point x="204" y="461" type="line"/>
      <point x="204" y="122" type="line" smooth="yes"/>
      <point x="204" y="71"/>
      <point x="219" y="51"/>
      <point x="260" y="51" type="curve" smooth="yes"/>
      <point x="288" y="51"/>
      <point x="309" y="62"/>
      <point x="342" y="95" type="curve"/>
      <point x="342" y="378" type="line" smooth="yes"/>
      <point x="342" y="421"/>
      <point x="330" y="433"/>
      <point x="280" y="437" type="curve"/>
      <point x="280" y="461" type="line"/>
      <point x="481" y="461" type="line"/>
      <point x="481" y="101" type="line" smooth="yes"/>
      <point x="481" y="58"/>
      <point x="493" y="45"/>
      <point x="537" y="43" type="curve"/>
      <point x="537" y="20" type="line"/>
      <point x="475" y="13" type="line" smooth="yes"/>
      <point x="410" y="6"/>
      <point x="386" y="2"/>
    </contour>
    <contour>
      <point x="99" y="528" type="line"/>
      <point x="236" y="685" type="line" smooth="yes"/>
      <point x="253" y="704"/>
      <point x="270" y="713"/>
      <point x="289" y="713" type="curve" smooth="yes"/>
      <point x="318" y="713"/>
      <point x="337" y="695"/>
      <point x="337" y="669" type="curve" smooth="yes"/>
      <point x="337" y="646"/>
      <point x="329" y="636"/>
      <point x="297" y="616" type="curve" smooth="yes"/>
      <point x="155" y="528" type="line"/>
    </contour>
    <contour>
      <point x="299" y="528" type="line"/>
      <point x="436" y="685" type="line" smooth="yes"/>
      <point x="453" y="704"/>
      <point x="470" y="713"/>
      <point x="489" y="713" type="curve" smooth="yes"/>
      <point x="518" y="713"/>
      <point x="537" y="695"/>
      <point x="537" y="669" type="curve" smooth="yes"/>
      <point x="537" y="646"/>
      <point x="529" y="636"/>
      <point x="497" y="616" type="curve" smooth="yes"/>
      <point x="355" y="528" type="line"/>
    </contour>
  </outline>
</glyph>
<glyph name="Zacute" format="1">
  <advance width="667"/>
  <unicode hex="0179"/>
  <outline>
    <contour>
      <point x="634" y="241" type="line"/>
      <point x="608" y="0" type="line"/>
      <point x="28" y="0" type="line"/>
      <point x="28" y="16" type="line"/>
      <point x="410" y="641" type="line"/>
      <point x="373" y="640"/>
      <point x="339" y="639"/>
      <point x="327" y="638" type="curve"/>
      <point x="179" y="640"/>
      <point x="135" y="609"/>
      <point x="87" y="470" type="curve"/>
      <point x="59" y="470" type="line"/>
      <point x="80" y="676" type="line"/>
      <point x="604" y="676" type="line"/>
      <point x="604" y="660" type="line"/>
      <point x="225" y="35" type="line"/>
      <point x="299" y="35" type="line" smooth="yes"/>
      <point x="395" y="35"/>
      <point x="477" y="50"/>
      <point x="511" y="74" type="curve" smooth="yes"/>
      <point x="558" y="107"/>
      <point x="581" y="147"/>
      <point x="608" y="241" type="curve"/>
    </contour>
    <contour>
      <point x="253" y="738" type="line"/>
      <point x="390" y="895" type="line" smooth="yes"/>
      <point x="407" y="914"/>
      <point x="424" y="923"/>
      <point x="443" y="923" type="curve" smooth="yes"/>
      <point x="472" y="923"/>
      <point x="491" y="905"/>
      <point x="491" y="879" type="curve" smooth="yes"/>
      <point x="491" y="856"/>
      <point x="483" y="846"/>
      <point x="451" y="826" type="curve" smooth="yes"/>
      <point x="309" y="738" type="line"/>
    </contour>
  </outline>
</glyph>
<glyph name="afii10023" format="1">
  <advance width="667"/>
  <unicode hex="0401"/>
  <outline>
    <contour>
      <point x="223" y="855" type="curve" smooth="yes"/>
      <point x="258" y="855"/>
      <point x="288" y="825"/>
      <point x="288" y="789" type="curve" smooth="yes"/>
      <point x="288" y="754"/>
      <point x="259" y="726"/>
      <point x="223" y="726" type="curve" smooth="yes"/>
      <point x="188" y="726"/>
      <point x="159" y="756"/>
      <point x="159" y="791" type="curve" smooth="yes"/>
      <point x="159" y="825"/>
      <point x="189" y="855"/>
    </contour>
    <contour>
      <point x="432" y="855" type="curve" smooth="yes"/>
      <point x="468" y="855"/>
      <point x="498" y="825"/>
      <point x="498" y="789" type="curve" smooth="yes"/>
      <point x="498" y="754"/>
      <point x="469" y="726"/>
      <point x="432" y="726" type="curve" smooth="yes"/>
      <point x="397" y="726"/>
      <point x="369" y="755"/>
      <point x="369" y="792" type="curve" smooth="yes"/>
      <point x="369" y="825"/>
      <point x="399" y="855"/>
    </contour>
    <contour>
      <point x="593" y="676" type="line"/>
      <point x="593" y="475" type="line"/>
      <point x="568" y="475" type="line"/>
      <point x="543" y="608"/>
      <point x="494" y="642"/>
      <point x="331" y="642" type="curve" smooth="yes"/>
      <point x="279" y="642"/>
      <point x="266" y="633"/>
      <point x="266" y="595" type="curve" smooth="yes"/>
      <point x="266" y="363" type="line"/>
      <point x="374" y="362"/>
      <point x="413" y="398"/>
      <point x="428" y="512" type="curve"/>
      <point x="454" y="512" type="line"/>
      <point x="454" y="174" type="line"/>
      <point x="428" y="174" type="line"/>
      <point x="416" y="290"/>
      <point x="375" y="329"/>
      <point x="266" y="329" type="curve"/>
      <point x="266" y="87" type="line" smooth="yes"/>
      <point x="266" y="44"/>
      <point x="285" y="31"/>
      <point x="349" y="31" type="curve" smooth="yes"/>
      <point x="425" y="31"/>
      <point x="480" y="47"/>
      <point x="526" y="84" type="curve" smooth="yes"/>
      <point x="562" y="113"/>
      <point x="582" y="141"/>
      <point x="613" y="208" type="curve"/>
      <point x="641" y="208" type="line"/>
      <point x="601" y="0" type="line"/>
      <point x="16" y="0" type="line"/>
      <point x="16" y="25" type="line"/>
      <point x="90" y="33"/>
      <point x="104" y="44"/>
      <point x="104" y="96" type="curve" smooth="yes"/>
      <point x="104" y="580" type="line" smooth="yes"/>
      <point x="104" y="631"/>
      <point x="85" y="647"/>
      <point x="16" y="651" type="curve"/>
      <point x="16" y="676" type="line"/>
    </contour>
  </outline>
</glyph>
<glyph name="afii10058" format="1">
  <advance width="1032"/>
  <unicode hex="0409"/>
  <outline>
    <contour>
      <point x="753" y="676" type="line"/>
      <point x="753" y="651" type="line"/>
      <point x="674" y="641"/>
      <point x="665" y="632"/>
      <point x="665" y="559" type="curve" smooth="yes"/>
      <point x="665" y="373" type="line"/>
      <point x="800" y="372"/>
      <point x="834" y="369"/>
      <point x="878" y="351" type="curve"/>
      <point x="959" y="320"/>
      <point x="1003" y="259"/>
      <point x="1003" y="182" type="curve" smooth="yes"/>
      <point x="1003" y="66"/>
      <point x="908" y="0"/>
      <point x="741" y="0" type="curve" smooth="yes"/>
      <point x="419" y="0" type="line"/>
      <point x="419" y="25" type="line"/>
      <point x="492" y="33"/>
      <point x="509" y="47"/>
      <point x="509" y="96" type="curve" smooth="yes"/>
      <point x="509" y="629" type="line"/>
      <point x="309" y="629" type="line"/>
      <point x="309" y="341" type="line" smooth="yes"/>
      <point x="309" y="292"/>
      <point x="304" y="-14"/>
      <point x="112" y="-14" type="curve" smooth="yes"/>
      <point x="67" y="-14"/>
      <point x="18" y="0"/>
      <point x="18" y="48" type="curve" smooth="yes"/>
      <point x="18" y="85"/>
      <point x="43" y="118"/>
      <point x="80" y="118" type="curve" smooth="yes"/>
      <point x="130" y="118"/>
      <point x="121" y="66"/>
      <point x="158" y="66" type="curve" smooth="yes"/>
      <point x="216" y="66"/>
      <point x="232" y="292"/>
      <point x="232" y="341" type="curve" smooth="yes"/>
      <point x="232" y="580" type="line" smooth="yes"/>
      <point x="232" y="630"/>
      <point x="214" y="645"/>
      <point x="147" y="651" type="curve"/>
      <point x="147" y="676" type="line"/>
    </contour>
    <contour>
      <point x="665" y="70" type="line" smooth="yes"/>
      <point x="665" y="47"/>
      <point x="682" y="35"/>
      <point x="715" y="35" type="curve" smooth="yes"/>
      <point x="798" y="35"/>
      <point x="831" y="79"/>
      <point x="831" y="187" type="curve" smooth="yes"/>
      <point x="831" y="250"/>
      <point x="819" y="288"/>
      <point x="793" y="311" type="curve" smooth="yes"/>
      <point x="769" y="331"/>
      <point x="736" y="338"/>
      <point x="665" y="338" type="curve"/>
    </contour>
  </outline>
</glyph>
<glyph name="afii10060" format="1">
  <advance width="932"/>
  <unicode hex="040B"/>
  <outline>
    <contour>
      <point x="415" y="330" type="curve"/>
      <point x="415" y="117" type="line" smooth="yes"/>
      <point x="415" y="41"/>
      <point x="426" y="31"/>
      <point x="513" y="25" type="curve"/>
      <point x="513" y="0" type="line"/>
      <point x="156" y="0" type="line"/>
      <point x="156" y="25" type="line"/>
      <point x="242" y="32"/>
      <point x="253" y="43"/>
      <point x="253" y="117" type="curve" smooth="yes"/>
      <point x="253" y="644" type="line"/>
      <point x="129" y="640"/>
      <point x="77" y="594"/>
      <point x="60" y="475" type="curve"/>
      <point x="31" y="475" type="line"/>
      <point x="34" y="676" type="line"/>
      <point x="634" y="676" type="line"/>
      <point x="636" y="475" type="line"/>
      <point x="607" y="475" type="line"/>
      <point x="590" y="594"/>
      <point x="538" y="640"/>
      <point x="415" y="644" type="curve"/>
      <point x="415" y="387" type="line"/>
      <point x="436" y="416"/>
      <point x="498" y="437"/>
      <point x="558" y="437" type="curve" smooth="yes"/>
      <point x="666" y="437"/>
      <point x="818" y="420"/>
      <point x="818" y="313" type="curve" smooth="yes"/>
      <point x="818" y="96" type="line" smooth="yes"/>
      <point x="818" y="46"/>
      <point x="836" y="31"/>
      <point x="903" y="25" type="curve"/>
      <point x="903" y="0" type="line"/>
      <point x="566" y="0" type="line"/>
      <point x="566" y="25" type="line"/>
      <point x="636" y="30"/>
      <point x="656" y="46"/>
      <point x="656" y="96" type="curve" smooth="yes"/>
      <point x="656" y="315" type="line" smooth="yes"/>
      <point x="656" y="366"/>
      <point x="604" y="383"/>
      <point x="540" y="383" type="curve" smooth="yes"/>
      <point x="487" y="383"/>
      <point x="438" y="364"/>
    </contour>
  </outline>
</glyph>
<glyph name="afii10061" format="1">
  <advance width="778"/>
  <unicode hex="040C"/>
  <outline>
    <contour>
      <point x="732" y="25" type="curve"/>
      <point x="732" y="0" type="line"/>
      <point x="534" y="0" type="line"/>
      <point x="374" y="254" type="line"/>
      <point x="346" y="292"/>
      <point x="334" y="318"/>
      <point x="306" y="318" type="curve" smooth="yes"/>
      <point x="279" y="318" type="line"/>
      <point x="279" y="96" type="line" smooth="yes"/>
      <point x="279" y="47"/>
      <point x="295" y="34"/>
      <point x="367" y="25" type="curve"/>
      <point x="367" y="0" type="line"/>
      <point x="30" y="0" type="line"/>
      <point x="30" y="25" type="line"/>
      <point x="102" y="33"/>
      <point x="117" y="45"/>
      <point x="117" y="96" type="curve" smooth="yes"/>
      <point x="117" y="580" type="line" smooth="yes"/>
      <point x="117" y="632"/>
      <point x="99" y="647"/>
      <point x="30" y="651" type="curve"/>
      <point x="30" y="676" type="line"/>
      <point x="368" y="676" type="line"/>
      <point x="368" y="651" type="line"/>
      <point x="294" y="646"/>
      <point x="279" y="630"/>
      <point x="279" y="559" type="curve" smooth="yes"/>
      <point x="279" y="371" type="line"/>
      <point x="316" y="372" type="line" smooth="yes"/>
      <point x="360" y="373"/>
      <point x="441" y="460"/>
      <point x="456" y="578" type="curve" smooth="yes"/>
      <point x="462" y="626"/>
      <point x="514" y="686"/>
      <point x="584" y="685" type="curve" smooth="yes"/>
      <point x="636" y="684"/>
      <point x="678" y="664"/>
      <point x="678" y="616" type="curve" smooth="yes"/>
      <point x="678" y="583"/>
      <point x="670" y="557"/>
      <point x="622" y="556" type="curve" smooth="yes"/>
      <point x="546" y="554"/>
      <point x="568" y="583"/>
      <point x="524" y="583" type="curve" smooth="yes"/>
      <point x="492" y="583"/>
      <point x="500" y="418"/>
      <point x="408" y="352" type="curve"/>
      <point x="440" y="349"/>
      <point x="496" y="328"/>
      <point x="525" y="286" type="curve"/>
      <point x="683" y="46" type="line"/>
      <point x="696" y="31"/>
      <point x="707" y="26"/>
    </contour>
    <contour>
      <point x="262" y="726" type="line"/>
      <point x="399" y="883" type="line" smooth="yes"/>
      <point x="416" y="902"/>
      <point x="433" y="911"/>
      <point x="452" y="911" type="curve" smooth="yes"/>
      <point x="481" y="911"/>
      <point x="500" y="893"/>
      <point x="500" y="867" type="curve" smooth="yes"/>
      <point x="500" y="844"/>
      <point x="492" y="834"/>
      <point x="460" y="814" type="curve" smooth="yes"/>
      <point x="318" y="726" type="line"/>
    </contour>
  </outline>
</glyph>
<glyph name="uni040D" format="1">
  <advance width="778"/>
  <unicode hex="040D"/>
  <outline>
    <contour>
      <point x="509" y="456" type="line"/>
      <point x="268" y="176" type="line"/>
      <point x="268" y="96" type="line" smooth="yes"/>
      <point x="268" y="47"/>
      <point x="285" y="33"/>
      <point x="358" y="25" type="curve"/>
      <point x="358" y="0" type="line"/>
      <point x="21" y="0" type="line"/>
      <point x="21" y="25" type="line"/>
      <point x="91" y="34"/>
      <point x="106" y="47"/>
      <point x="106" y="96" type="curve" smooth="yes"/>
      <point x="106" y="580" type="line" smooth="yes"/>
      <point x="106" y="630"/>
      <point x="88" y="645"/>
      <point x="21" y="651" type="curve"/>
      <point x="21" y="676" type="line"/>
      <point x="358" y="676" type="line"/>
      <point x="358" y="651" type="line"/>
      <point x="288" y="646"/>
      <point x="268" y="630"/>
      <point x="268" y="580" type="curve" smooth="yes"/>
      <point x="268" y="243" type="line"/>
      <point x="509" y="523" type="line"/>
      <point x="509" y="580" type="line" smooth="yes"/>
      <point x="509" y="630"/>
      <point x="489" y="646"/>
      <point x="419" y="651" type="curve"/>
      <point x="419" y="676" type="line"/>
      <point x="759" y="676" type="line"/>
      <point x="759" y="651" type="line"/>
      <point x="691" y="646"/>
      <point x="671" y="630"/>
      <point x="671" y="580" type="curve" smooth="yes"/>
      <point x="671" y="96" type="line" smooth="yes"/>
      <point x="671" y="47"/>
      <point x="687" y="34"/>
      <point x="759" y="25" type="curve"/>
      <point x="759" y="0" type="line"/>
      <point x="419" y="0" type="line"/>
      <point x="419" y="25" type="line"/>
      <point x="492" y="33"/>
      <point x="509" y="47"/>
      <point x="509" y="96" type="curve" smooth="yes"/>
    </contour>
    <contour>
      <point x="509" y="726" type="line"/>
      <point x="453" y="726" type="line"/>
      <point x="311" y="814" type="line" smooth="yes"/>
      <point x="282" y="832"/>
      <point x="271" y="846"/>
      <point x="271" y="866" type="curve" smooth="yes"/>
      <point x="271" y="891"/>
      <point x="292" y="911"/>
      <point x="318" y="911" type="curve" smooth="yes"/>
      <point x="337" y="911"/>
      <point x="356" y="901"/>
      <point x="372" y="883" type="curve" smooth="yes"/>
    </contour>
  </outline>
</glyph>
<glyph name="afii10018" format="1">
  <advance width="667"/>
  <unicode hex="0411"/>
  <outline>
    <contour>
      <point x="264" y="374" type="curve"/>
      <point x="264" y="93" type="line" smooth="yes"/>
      <point x="264" y="49"/>
      <point x="281" y="32"/>
      <point x="325" y="32" type="curve" smooth="yes"/>
      <point x="406" y="32"/>
      <point x="447" y="102"/>
      <point x="447" y="199" type="curve" smooth="yes"/>
      <point x="447" y="309"/>
      <point x="388" y="384"/>
      <point x="294" y="383" type="curve" smooth="yes"/>
      <point x="281" y="383"/>
      <point x="272" y="380"/>
    </contour>
    <contour>
      <point x="264" y="413" type="line"/>
      <point x="302" y="422"/>
      <point x="314" y="425"/>
      <point x="378" y="425" type="curve" smooth="yes"/>
      <point x="534" y="426"/>
      <point x="619" y="367"/>
      <point x="619" y="213" type="curve" smooth="yes"/>
      <point x="619" y="57"/>
      <point x="507" y="0"/>
      <point x="338" y="0" type="curve" smooth="yes"/>
      <point x="16" y="0" type="line"/>
      <point x="16" y="25" type="line"/>
      <point x="89" y="33"/>
      <point x="104" y="45"/>
      <point x="104" y="96" type="curve" smooth="yes"/>
      <point x="104" y="580" type="line" smooth="yes"/>
      <point x="104" y="631"/>
      <point x="85" y="647"/>
      <point x="16" y="651" type="curve"/>
      <point x="16" y="676" type="line"/>
      <point x="583" y="676" type="line"/>
      <point x="583" y="475" type="line"/>
      <point x="559" y="475" type="line"/>
      <point x="545" y="538"/>
      <point x="534" y="565"/>
      <point x="512" y="590" type="curve" smooth="yes"/>
      <point x="481" y="625"/>
      <point x="422" y="642"/>
      <point x="330" y="642" type="curve" smooth="yes"/>
      <point x="279" y="642"/>
      <point x="264" y="632"/>
      <point x="264" y="595" type="curve" smooth="yes"/>
    </contour>
  </outline>
</glyph>
<glyph name="afii10020" format="1">
  <advance width="591"/>
  <unicode hex="0413"/>
  <outline>
    <contour>
      <point x="563" y="676" type="line"/>
      <point x="563" y="475" type="line"/>
      <point x="539" y="475" type="line"/>
      <point x="525" y="538"/>
      <point x="514" y="565"/>
      <point x="492" y="590" type="curve" smooth="yes"/>
      <point x="461" y="625"/>
      <point x="422" y="642"/>
      <point x="330" y="642" type="curve" smooth="yes"/>
      <point x="279" y="642"/>
      <point x="266" y="620"/>
      <point x="266" y="583" type="curve" smooth="yes"/>
      <point x="266" y="96" type="line" smooth="yes"/>
      <point x="266" y="41"/>
      <point x="284" y="29"/>
      <point x="376" y="25" type="curve"/>
      <point x="376" y="0" type="line"/>
      <point x="16" y="0" type="line"/>
      <point x="16" y="25" type="line"/>
      <point x="90" y="33"/>
      <point x="104" y="44"/>
      <point x="104" y="96" type="curve" smooth="yes"/>
      <point x="104" y="580" type="line" smooth="yes"/>
      <point x="104" y="632"/>
      <point x="85" y="647"/>
      <point x="16" y="651" type="curve"/>
      <point x="16" y="676" type="line"/>
    </contour>
  </outline>
</glyph>
<glyph name="afii10021" format="1">
  <advance width="778"/>
  <unicode hex="0414"/>
  <outline>
    <contour>
      <point x="158" y="66" type="curve" smooth="yes"/>
      <point x="234" y="141"/>
      <point x="232" y="314"/>
      <point x="232" y="363" type="curve" smooth="yes"/>
      <point x="232" y="580" type="line" smooth="yes"/>
      <point x="232" y="630"/>
      <point x="214" y="645"/>
      <point x="147" y="651" type="curve"/>
      <point x="147" y="676" type="line"/>
      <point x="759" y="676" type="line"/>
      <point x="759" y="651" type="line"/>
      <point x="691" y="646"/>
      <point x="671" y="630"/>
      <point x="671" y="580" type="curve" smooth="yes"/>
      <point x="671" y="105" type="line" smooth="yes"/>
      <point x="671" y="55"/>
      <point x="691" y="39"/>
      <point x="759" y="34" type="curve"/>
      <point x="759" y="-200" type="line"/>
      <point x="735" y="-200" type="line"/>
      <point x="721" y="-137"/>
      <point x="710" y="-77"/>
      <point x="688" y="-52" type="curve" smooth="yes"/>
      <point x="657" y="-17"/>
      <point x="598" y="0"/>
      <point x="506" y="0" type="curve" smooth="yes"/>
      <point x="274" y="0" type="line" smooth="yes"/>
      <point x="182" y="0"/>
      <point x="123" y="-17"/>
      <point x="92" y="-52" type="curve" smooth="yes"/>
      <point x="70" y="-77"/>
      <point x="59" y="-137"/>
      <point x="45" y="-200" type="curve"/>
      <point x="21" y="-200" type="line"/>
      <point x="21" y="34" type="line"/>
      <point x="89" y="39"/>
      <point x="119" y="28"/>
    </contour>
    <contour>
      <point x="278" y="47" type="curve"/>
      <point x="419" y="47" type="line"/>
      <point x="488" y="46"/>
      <point x="509" y="69"/>
      <point x="509" y="118" type="curve" smooth="yes"/>
      <point x="509" y="629" type="line"/>
      <point x="319" y="629" type="line"/>
      <point x="319" y="341" type="line" smooth="yes"/>
      <point x="319" y="311"/>
      <point x="317" y="185"/>
      <point x="272" y="92" type="curve" smooth="yes"/>
      <point x="260" y="66"/>
      <point x="250" y="48"/>
    </contour>
  </outline>
</glyph>
<glyph name="afii10027" format="1">
  <advance width="773"/>
  <unicode hex="0419"/>
  <outline>
    <contour>
      <point x="504" y="456" type="line"/>
      <point x="263" y="176" type="line"/>
      <point x="263" y="96" type="line" smooth="yes"/>
      <point x="263" y="47"/>
      <point x="280" y="33"/>
      <point x="353" y="25" type="curve"/>
      <point x="353" y="0" type="line"/>
      <point x="16" y="0" type="line"/>
      <point x="16" y="25" type="line"/>
      <point x="86" y="34"/>
      <point x="101" y="47"/>
      <point x="101" y="96" type="curve" smooth="yes"/>
      <point x="101" y="580" type="line" smooth="yes"/>
      <point x="101" y="630"/>
      <point x="83" y="645"/>
      <point x="16" y="651" type="curve"/>
      <point x="16" y="676" type="line"/>
      <point x="353" y="676" type="line"/>
      <point x="353" y="651" type="line"/>
      <point x="283" y="646"/>
      <point x="263" y="630"/>
      <point x="263" y="580" type="curve" smooth="yes"/>
      <point x="263" y="243" type="line"/>
      <point x="504" y="523" type="line"/>
      <point x="504" y="580" type="line" smooth="yes"/>
      <point x="504" y="630"/>
      <point x="484" y="646"/>
      <point x="414" y="651" type="curve"/>
      <point x="414" y="676" type="line"/>
      <point x="754" y="676" type="line"/>
      <point x="754" y="651" type="line"/>
      <point x="686" y="646"/>
      <point x="666" y="630"/>
      <point x="666" y="580" type="curve" smooth="yes"/>
      <point x="666" y="96" type="line" smooth="yes"/>
      <point x="666" y="47"/>
      <point x="682" y="34"/>
      <point x="754" y="25" type="curve"/>
      <point x="754" y="0" type="line"/>
      <point x="414" y="0" type="line"/>
      <point x="414" y="25" type="line"/>
      <point x="487" y="33"/>
      <point x="504" y="47"/>
      <point x="504" y="96" type="curve" smooth="yes"/>
    </contour>
    <contour>
      <point x="492" y="889" type="curve"/>
      <point x="536" y="889" type="line"/>
      <point x="530" y="838"/>
      <point x="523" y="813"/>
      <point x="506" y="787" type="curve" smooth="yes"/>
      <point x="480" y="746"/>
      <point x="439" y="726"/>
      <point x="384" y="726" type="curve" smooth="yes"/>
      <point x="331" y="726"/>
      <point x="289" y="745"/>
      <point x="264" y="781" type="curve"/>
      <point x="243" y="809"/>
      <point x="236" y="834"/>
      <point x="233" y="889" type="curve"/>
      <point x="277" y="889" type="line"/>
      <point x="288" y="828"/>
      <point x="320" y="802"/>
      <point x="384" y="802" type="curve" smooth="yes"/>
      <point x="446" y="802"/>
      <point x="475" y="826"/>
    </contour>
  </outline>
</glyph>
<glyph name="afii10028" format="1">
  <advance width="764"/>
  <unicode hex="041A"/>
  <outline>
    <contour>
      <point x="718" y="25" type="curve"/>
      <point x="718" y="0" type="line"/>
      <point x="520" y="0" type="line"/>
      <point x="360" y="254" type="line"/>
      <point x="332" y="292"/>
      <point x="320" y="318"/>
      <point x="292" y="318" type="curve" smooth="yes"/>
      <point x="265" y="318" type="line"/>
      <point x="265" y="96" type="line" smooth="yes"/>
      <point x="265" y="47"/>
      <point x="281" y="34"/>
      <point x="353" y="25" type="curve"/>
      <point x="353" y="0" type="line"/>
      <point x="16" y="0" type="line"/>
      <point x="16" y="25" type="line"/>
      <point x="88" y="33"/>
      <point x="103" y="45"/>
      <point x="103" y="96" type="curve" smooth="yes"/>
      <point x="103" y="580" type="line" smooth="yes"/>
      <point x="103" y="632"/>
      <point x="85" y="647"/>
      <point x="16" y="651" type="curve"/>
      <point x="16" y="676" type="line"/>
      <point x="354" y="676" type="line"/>
      <point x="354" y="651" type="line"/>
      <point x="280" y="646"/>
      <point x="265" y="630"/>
      <point x="265" y="559" type="curve" smooth="yes"/>
      <point x="265" y="371" type="line"/>
      <point x="302" y="372" type="line" smooth="yes"/>
      <point x="346" y="373"/>
      <point x="427" y="460"/>
      <point x="442" y="578" type="curve" smooth="yes"/>
      <point x="448" y="626"/>
      <point x="500" y="686"/>
      <point x="570" y="685" type="curve" smooth="yes"/>
      <point x="622" y="684"/>
      <point x="664" y="664"/>
      <point x="664" y="616" type="curve" smooth="yes"/>
      <point x="664" y="583"/>
      <point x="656" y="557"/>
      <point x="608" y="556" type="curve" smooth="yes"/>
      <point x="532" y="554"/>
      <point x="554" y="583"/>
      <point x="510" y="583" type="curve" smooth="yes"/>
      <point x="478" y="583"/>
      <point x="486" y="418"/>
      <point x="394" y="352" type="curve"/>
      <point x="426" y="349"/>
      <point x="482" y="328"/>
      <point x="511" y="286" type="curve"/>
      <point x="669" y="46" type="line"/>
      <point x="682" y="31"/>
      <point x="693" y="26"/>
    </contour>
  </outline>
</glyph>
<glyph name="afii10038" format="1">
  <advance width="800"/>
  <unicode hex="0424"/>
  <outline>
    <contour>
      <point x="318" y="522" type="line"/>
      <point x="274" y="522"/>
      <point x="154" y="493"/>
      <point x="154" y="339" type="curve" smooth="yes"/>
      <point x="154" y="165"/>
      <point x="258" y="144"/>
      <point x="318" y="145" type="curve"/>
    </contour>
    <contour>
      <point x="223" y="25" type="line"/>
      <point x="299" y="30"/>
      <point x="318" y="44"/>
      <point x="318" y="91" type="curve"/>
      <point x="208" y="91"/>
      <point x="12" y="127"/>
      <point x="12" y="347" type="curve" smooth="yes"/>
      <point x="12" y="569"/>
      <point x="278" y="585"/>
      <point x="318" y="585" type="curve"/>
      <point x="318" y="632"/>
      <point x="297" y="648"/>
      <point x="223" y="651" type="curve"/>
      <point x="223" y="676" type="line"/>
      <point x="573" y="676" type="line"/>
      <point x="573" y="651" type="line"/>
      <point x="499" y="648"/>
      <point x="478" y="632"/>
      <point x="478" y="585" type="curve"/>
      <point x="518" y="585"/>
      <point x="784" y="569"/>
      <point x="784" y="347" type="curve" smooth="yes"/>
      <point x="784" y="127"/>
      <point x="588" y="91"/>
      <point x="478" y="91" type="curve"/>
      <point x="478" y="44"/>
      <point x="497" y="30"/>
      <point x="573" y="25" type="curve"/>
      <point x="573" y="0" type="line"/>
      <point x="223" y="0" type="line"/>
    </contour>
    <contour>
      <point x="478" y="522" type="curve"/>
      <point x="478" y="145" type="line"/>
      <point x="538" y="144"/>
      <point x="642" y="165"/>
      <point x="642" y="339" type="curve" smooth="yes"/>
      <point x="642" y="493"/>
      <point x="522" y="522"/>
    </contour>
  </outline>
</glyph>
<glyph name="afii10040" format="1">
  <advance width="773"/>
  <unicode hex="0426"/>
  <outline>
    <contour>
      <point x="501" y="0" type="curve" smooth="yes"/>
      <point x="16" y="0" type="line"/>
      <point x="16" y="25" type="line"/>
      <point x="83" y="31"/>
      <point x="101" y="46"/>
      <point x="101" y="96" type="curve" smooth="yes"/>
      <point x="101" y="580" type="line" smooth="yes"/>
      <point x="101" y="629"/>
      <point x="86" y="642"/>
      <point x="16" y="651" type="curve"/>
      <point x="16" y="676" type="line"/>
      <point x="353" y="676" type="line"/>
      <point x="353" y="651" type="line"/>
      <point x="280" y="643"/>
      <point x="263" y="629"/>
      <point x="263" y="580" type="curve" smooth="yes"/>
      <point x="263" y="47" type="line"/>
      <point x="504" y="47" type="line"/>
      <point x="504" y="580" type="line" smooth="yes"/>
      <point x="504" y="629"/>
      <point x="487" y="643"/>
      <point x="414" y="651" type="curve"/>
      <point x="414" y="676" type="line"/>
      <point x="754" y="676" type="line"/>
      <point x="754" y="651" type="line"/>
      <point x="682" y="642"/>
      <point x="666" y="629"/>
      <point x="666" y="580" type="curve" smooth="yes"/>
      <point x="666" y="105" type="line" smooth="yes"/>
      <point x="666" y="55"/>
      <point x="686" y="39"/>
      <point x="754" y="34" type="curve"/>
      <point x="754" y="-200" type="line"/>
      <point x="730" y="-200" type="line"/>
      <point x="716" y="-137"/>
      <point x="705" y="-77"/>
      <point x="683" y="-52" type="curve" smooth="yes"/>
      <point x="652" y="-17"/>
      <point x="593" y="0"/>
    </contour>
  </outline>
</glyph>
<glyph name="afii10042" format="1">
  <advance width="1113"/>
  <unicode hex="0428"/>
  <outline>
    <contour>
      <point x="635" y="47" type="line"/>
      <point x="843" y="47" type="line"/>
      <point x="843" y="580" type="line" smooth="yes"/>
      <point x="843" y="629"/>
      <point x="826" y="643"/>
      <point x="753" y="651" type="curve"/>
      <point x="753" y="676" type="line"/>
      <point x="1093" y="676" type="line"/>
      <point x="1093" y="651" type="line"/>
      <point x="1021" y="642"/>
      <point x="1005" y="629"/>
      <point x="1005" y="580" type="curve" smooth="yes"/>
      <point x="1005" y="96" type="line" smooth="yes"/>
      <point x="1005" y="46"/>
      <point x="1025" y="30"/>
      <point x="1093" y="25" type="curve"/>
      <point x="1093" y="0" type="line"/>
      <point x="16" y="0" type="line"/>
      <point x="16" y="25" type="line"/>
      <point x="83" y="31"/>
      <point x="101" y="46"/>
      <point x="101" y="96" type="curve" smooth="yes"/>
      <point x="101" y="580" type="line" smooth="yes"/>
      <point x="101" y="629"/>
      <point x="86" y="642"/>
      <point x="16" y="651" type="curve"/>
      <point x="16" y="676" type="line"/>
      <point x="353" y="676" type="line"/>
      <point x="353" y="651" type="line"/>
      <point x="280" y="643"/>
      <point x="263" y="629"/>
      <point x="263" y="580" type="curve" smooth="yes"/>
      <point x="263" y="47" type="line"/>
      <point x="473" y="47" type="line"/>
      <point x="473" y="580" type="line" smooth="yes"/>
      <point x="473" y="629"/>
      <point x="456" y="643"/>
      <point x="383" y="651" type="curve"/>
      <point x="383" y="676" type="line"/>
      <point x="723" y="676" type="line"/>
      <point x="723" y="651" type="line"/>
      <point x="651" y="642"/>
      <point x="635" y="629"/>
      <point x="635" y="580" type="curve" smooth="yes"/>
    </contour>
  </outline>
</glyph>
<glyph name="afii10044" format="1">
  <advance width="867"/>
  <unicode hex="042A"/>
  <outline>
    <contour>
      <point x="223" y="0" type="line"/>
      <point x="223" y="25" type="line"/>
      <point x="293" y="31"/>
      <point x="307" y="47"/>
      <point x="307" y="117" type="curve" smooth="yes"/>
      <point x="307" y="644" type="line"/>
      <point x="183" y="640"/>
      <point x="131" y="594"/>
      <point x="114" y="475" type="curve"/>
      <point x="85" y="475" type="line"/>
      <point x="88" y="676" type="line"/>
      <point x="557" y="676" type="line"/>
      <point x="557" y="651" type="line"/>
      <point x="478" y="641"/>
      <point x="469" y="632"/>
      <point x="469" y="559" type="curve" smooth="yes"/>
      <point x="469" y="393" type="line"/>
      <point x="604" y="392"/>
      <point x="638" y="389"/>
      <point x="682" y="371" type="curve"/>
      <point x="763" y="340"/>
      <point x="807" y="269"/>
      <point x="807" y="192" type="curve" smooth="yes"/>
      <point x="807" y="76"/>
      <point x="712" y="0"/>
      <point x="545" y="0" type="curve" smooth="yes"/>
    </contour>
    <contour>
      <point x="469" y="70" type="line" smooth="yes"/>
      <point x="469" y="47"/>
      <point x="486" y="35"/>
      <point x="519" y="35" type="curve" smooth="yes"/>
      <point x="602" y="35"/>
      <point x="635" y="89"/>
      <point x="635" y="197" type="curve" smooth="yes"/>
      <point x="635" y="343"/>
      <point x="555" y="346"/>
      <point x="469" y="346" type="curve"/>
    </contour>
  </outline>
</glyph>
<glyph name="afii10047" format="1">
  <advance width="722"/>
  <unicode hex="042D"/>
  <outline>
    <contour>
      <point x="259" y="326" type="line"/>
      <point x="259" y="373" type="line"/>
      <point x="510" y="373" type="line"/>
      <point x="504" y="559"/>
      <point x="440" y="658"/>
      <point x="326" y="658" type="curve" smooth="yes"/>
      <point x="279" y="658"/>
      <point x="236" y="640"/>
      <point x="193" y="602" type="curve" smooth="yes"/>
      <point x="150" y="563"/>
      <point x="127" y="530"/>
      <point x="92" y="454" type="curve"/>
      <point x="67" y="454" type="line"/>
      <point x="67" y="688" type="line"/>
      <point x="94" y="688" type="line"/>
      <point x="108" y="653"/>
      <point x="119" y="642"/>
      <point x="138" y="642" type="curve" smooth="yes"/>
      <point x="147" y="642"/>
      <point x="162" y="646"/>
      <point x="184" y="656" type="curve" smooth="yes"/>
      <point x="243" y="680"/>
      <point x="291" y="691"/>
      <point x="339" y="691" type="curve" smooth="yes"/>
      <point x="538" y="691"/>
      <point x="687" y="537"/>
      <point x="687" y="333" type="curve" smooth="yes"/>
      <point x="687" y="127"/>
      <point x="540" y="-19"/>
      <point x="333" y="-19" type="curve" smooth="yes"/>
      <point x="262" y="-19"/>
      <point x="203" y="-2"/>
      <point x="148" y="35" type="curve" smooth="yes"/>
      <point x="116" y="57"/>
      <point x="94" y="77"/>
      <point x="49" y="127" type="curve"/>
      <point x="79" y="152" type="line"/>
      <point x="138" y="90"/>
      <point x="170" y="66"/>
      <point x="219" y="47" type="curve" smooth="yes"/>
      <point x="248" y="35"/>
      <point x="281" y="29"/>
      <point x="309" y="29" type="curve" smooth="yes"/>
      <point x="375" y="29"/>
      <point x="438" y="64"/>
      <point x="467" y="116" type="curve" smooth="yes"/>
      <point x="495" y="166"/>
      <point x="510" y="234"/>
      <point x="511" y="326" type="curve"/>
    </contour>
  </outline>
</glyph>
<glyph name="afii10049" format="1">
  <advance width="735"/>
  <unicode hex="042F"/>
  <outline>
    <contour>
      <point x="26" y="25" type="line"/>
      <point x="44" y="25"/>
      <point x="57" y="31"/>
      <point x="67" y="44" type="curve" smooth="yes"/>
      <point x="268" y="329" type="line"/>
      <point x="209" y="348"/>
      <point x="184" y="361"/>
      <point x="156" y="386" type="curve" smooth="yes"/>
      <point x="127" y="413"/>
      <point x="111" y="453"/>
      <point x="111" y="498" type="curve" smooth="yes"/>
      <point x="111" y="613"/>
      <point x="210" y="676"/>
      <point x="393" y="676" type="curve" smooth="yes"/>
      <point x="715" y="676" type="line"/>
      <point x="715" y="651" type="line"/>
      <point x="641" y="646"/>
      <point x="627" y="631"/>
      <point x="627" y="559" type="curve" smooth="yes"/>
      <point x="627" y="117" type="line" smooth="yes"/>
      <point x="627" y="44"/>
      <point x="637" y="34"/>
      <point x="715" y="25" type="curve"/>
      <point x="715" y="0" type="line"/>
      <point x="377" y="0" type="line"/>
      <point x="377" y="25" type="line"/>
      <point x="455" y="35"/>
      <point x="465" y="46"/>
      <point x="465" y="117" type="curve" smooth="yes"/>
      <point x="465" y="313" type="line"/>
      <point x="438" y="313" type="line"/>
      <point x="231" y="0" type="line"/>
      <point x="26" y="0" type="line"/>
    </contour>
    <contour>
      <point x="465" y="600" type="line" smooth="yes"/>
      <point x="465" y="606"/>
      <point x="461" y="621"/>
      <point x="458" y="627" type="curve" smooth="yes"/>
      <point x="452" y="637"/>
      <point x="436" y="642"/>
      <point x="411" y="642" type="curve" smooth="yes"/>
      <point x="319" y="642"/>
      <point x="282" y="599"/>
      <point x="282" y="494" type="curve" smooth="yes"/>
      <point x="282" y="430"/>
      <point x="297" y="391"/>
      <point x="329" y="370" type="curve" smooth="yes"/>
      <point x="355" y="353"/>
      <point x="389" y="346"/>
      <point x="465" y="345" type="curve"/>
    </contour>
  </outline>
</glyph>
<glyph name="afii10067" format="1">
  <advance width="502"/>
  <unicode hex="0432"/>
  <outline>
    <contour>
      <point x="27" y="461" type="line"/>
      <point x="264" y="461" type="line" smooth="yes"/>
      <point x="378" y="461"/>
      <point x="441" y="422"/>
      <point x="441" y="351" type="curve" smooth="yes"/>
      <point x="441" y="300"/>
      <point x="411" y="262"/>
      <point x="332" y="248" type="curve"/>
      <point x="400" y="240"/>
      <point x="464" y="212"/>
      <point x="464" y="128" type="curve" smooth="yes"/>
      <point x="464" y="29"/>
      <point x="388" y="0"/>
      <point x="272" y="0" type="curve" smooth="yes"/>
      <point x="21" y="0" type="line"/>
      <point x="21" y="25" type="line"/>
      <point x="71" y="30"/>
      <point x="74" y="53"/>
      <point x="74" y="88" type="curve" smooth="yes"/>
      <point x="74" y="367" type="line" smooth="yes"/>
      <point x="74" y="402"/>
      <point x="74" y="434"/>
      <point x="27" y="436" type="curve"/>
    </contour>
    <contour>
      <point x="213" y="226" type="line"/>
      <point x="213" y="82" type="line" smooth="yes"/>
      <point x="213" y="52"/>
      <point x="234" y="41"/>
      <point x="264" y="41" type="curve" smooth="yes"/>
      <point x="319" y="41"/>
      <point x="339" y="72"/>
      <point x="340" y="126" type="curve" smooth="yes"/>
      <point x="341" y="194"/>
      <point x="314" y="219"/>
      <point x="242" y="224" type="curve" smooth="yes"/>
    </contour>
    <contour>
      <point x="213" y="360" type="curve" smooth="yes"/>
      <point x="213" y="264" type="line"/>
      <point x="275" y="264"/>
      <point x="321" y="275"/>
      <point x="321" y="347" type="curve" smooth="yes"/>
      <point x="321" y="404"/>
      <point x="296" y="421"/>
      <point x="259" y="421" type="curve" smooth="yes"/>
      <point x="214" y="421"/>
      <point x="213" y="391"/>
    </contour>
  </outline>
</glyph>
<glyph name="afii10068" format="1">
  <advance width="443"/>
  <unicode hex="0433"/>
  <outline>
    <contour>
      <point x="408" y="461" type="line"/>
      <point x="415" y="319" type="line"/>
      <point x="389" y="319" type="line"/>
      <point x="364" y="414"/>
      <point x="354" y="429"/>
      <point x="213" y="429" type="curve"/>
      <point x="213" y="81" type="line" smooth="yes"/>
      <point x="213" y="44"/>
      <point x="225" y="29"/>
      <point x="262" y="24" type="curve"/>
      <point x="262" y="0" type="line"/>
      <point x="21" y="0" type="line"/>
      <point x="21" y="24" type="line"/>
      <point x="66" y="33"/>
      <point x="74" y="42"/>
      <point x="74" y="84" type="curve" smooth="yes"/>
      <point x="74" y="380" type="line" smooth="yes"/>
      <point x="74" y="417"/>
      <point x="61" y="433"/>
      <point x="27" y="437" type="curve"/>
      <point x="27" y="461" type="line"/>
    </contour>
  </outline>
</glyph>
<glyph name="afii10072" format="1">
  <advance width="750"/>
  <unicode hex="0436"/>
  <outline>
    <contour>
      <point x="304" y="84" type="curve" smooth="yes"/>
      <point x="304" y="214" type="line"/>
      <point x="294" y="214" type="line" smooth="yes"/>
      <point x="278" y="214"/>
      <point x="256" y="168"/>
      <point x="256" y="168" type="curve"/>
      <point x="157" y="0" type="line"/>
      <point x="12" y="0" type="line"/>
      <point x="12" y="24" type="line"/>
      <point x="23" y="24"/>
      <point x="33" y="26"/>
      <point x="41" y="39" type="curve" smooth="yes"/>
      <point x="140" y="200" type="line" smooth="yes"/>
      <point x="157" y="228"/>
      <point x="187" y="242"/>
      <point x="216" y="243" type="curve"/>
      <point x="162" y="271"/>
      <point x="171" y="396"/>
      <point x="134" y="396" type="curve" smooth="yes"/>
      <point x="109" y="396"/>
      <point x="121" y="366"/>
      <point x="79" y="366" type="curve" smooth="yes"/>
      <point x="53" y="366"/>
      <point x="33" y="384"/>
      <point x="32" y="410" type="curve" smooth="yes"/>
      <point x="31" y="450"/>
      <point x="46" y="470"/>
      <point x="102" y="470" type="curve" smooth="yes"/>
      <point x="179" y="470"/>
      <point x="200" y="392"/>
      <point x="205" y="368" type="curve" smooth="yes"/>
      <point x="213" y="328"/>
      <point x="239" y="261"/>
      <point x="283" y="261" type="curve" smooth="yes"/>
      <point x="304" y="261" type="line"/>
      <point x="304" y="377" type="line" smooth="yes"/>
      <point x="304" y="416"/>
      <point x="289" y="434"/>
      <point x="256" y="437" type="curve"/>
      <point x="256" y="461" type="line"/>
      <point x="495" y="461" type="line"/>
      <point x="495" y="437" type="line"/>
      <point x="448" y="430"/>
      <point x="443" y="424"/>
      <point x="443" y="377" type="curve" smooth="yes"/>
      <point x="443" y="261" type="line"/>
      <point x="464" y="261" type="line" smooth="yes"/>
      <point x="508" y="261"/>
      <point x="534" y="328"/>
      <point x="542" y="368" type="curve" smooth="yes"/>
      <point x="547" y="392"/>
      <point x="568" y="470"/>
      <point x="645" y="470" type="curve" smooth="yes"/>
      <point x="701" y="470"/>
      <point x="716" y="450"/>
      <point x="715" y="410" type="curve" smooth="yes"/>
      <point x="714" y="384"/>
      <point x="694" y="366"/>
      <point x="668" y="366" type="curve" smooth="yes"/>
      <point x="626" y="366"/>
      <point x="638" y="396"/>
      <point x="613" y="396" type="curve" smooth="yes"/>
      <point x="576" y="396"/>
      <point x="585" y="271"/>
      <point x="531" y="243" type="curve"/>
      <point x="560" y="242"/>
      <point x="590" y="228"/>
      <point x="607" y="200" type="curve" smooth="yes"/>
      <point x="706" y="39" type="line" smooth="yes"/>
      <point x="714" y="26"/>
      <point x="724" y="24"/>
      <point x="735" y="24" type="curve"/>
      <point x="735" y="0" type="line"/>
      <point x="590" y="0" type="line"/>
      <point x="491" y="168" type="line"/>
      <point x="491" y="168"/>
      <point x="469" y="214"/>
      <point x="453" y="214" type="curve" smooth="yes"/>
      <point x="443" y="214" type="line"/>
      <point x="443" y="84" type="line" smooth="yes"/>
      <point x="443" y="37"/>
      <point x="448" y="31"/>
      <point x="495" y="24" type="curve"/>
      <point x="495" y="0" type="line"/>
      <point x="256" y="0" type="line"/>
      <point x="256" y="24" type="line"/>
      <point x="289" y="27"/>
      <point x="304" y="45"/>
    </contour>
  </outline>
</glyph>
<glyph name="afii10077" format="1">
  <advance width="544"/>
  <unicode hex="043B"/>
  <outline>
    <contour>
      <point x="331" y="421" type="line"/>
      <point x="223" y="421" type="line"/>
      <point x="223" y="258" type="line" smooth="yes"/>
      <point x="223" y="94"/>
      <point x="211" y="-10"/>
      <point x="76" y="-10" type="curve" smooth="yes"/>
      <point x="43" y="-10"/>
      <point x="7" y="0"/>
      <point x="7" y="34" type="curve" smooth="yes"/>
      <point x="7" y="60"/>
      <point x="23" y="82"/>
      <point x="49" y="82" type="curve" smooth="yes"/>
      <point x="79" y="82"/>
      <point x="82" y="55"/>
      <point x="108" y="55" type="curve" smooth="yes"/>
      <point x="161" y="55"/>
      <point x="154" y="190"/>
      <point x="154" y="232" type="curve" smooth="yes"/>
      <point x="154" y="380" type="line" smooth="yes"/>
      <point x="154" y="417"/>
      <point x="141" y="433"/>
      <point x="107" y="437" type="curve"/>
      <point x="107" y="461" type="line"/>
      <point x="519" y="461" type="line"/>
      <point x="519" y="437" type="line"/>
      <point x="480" y="434"/>
      <point x="470" y="422"/>
      <point x="470" y="380" type="curve" smooth="yes"/>
      <point x="470" y="81" type="line" smooth="yes"/>
      <point x="470" y="39"/>
      <point x="480" y="27"/>
      <point x="519" y="24" type="curve"/>
      <point x="519" y="0" type="line"/>
      <point x="284" y="0" type="line"/>
      <point x="284" y="24" type="line"/>
      <point x="318" y="28"/>
      <point x="331" y="44"/>
      <point x="331" y="81" type="curve" smooth="yes"/>
    </contour>
  </outline>
</glyph>
<glyph name="afii10078" format="1">
  <advance width="676"/>
  <unicode hex="043C"/>
  <outline>
    <contour>
      <point x="463" y="81" type="curve" smooth="yes"/>
      <point x="463" y="382" type="line"/>
      <point x="303" y="-14" type="line"/>
      <point x="277" y="-14" type="line"/>
      <point x="112" y="399" type="line"/>
      <point x="112" y="81" type="line" smooth="yes"/>
      <point x="112" y="44"/>
      <point x="124" y="29"/>
      <point x="161" y="24" type="curve"/>
      <point x="161" y="0" type="line"/>
      <point x="21" y="0" type="line"/>
      <point x="21" y="24" type="line"/>
      <point x="66" y="33"/>
      <point x="74" y="42"/>
      <point x="74" y="84" type="curve" smooth="yes"/>
      <point x="74" y="380" type="line" smooth="yes"/>
      <point x="74" y="417"/>
      <point x="61" y="433"/>
      <point x="27" y="437" type="curve"/>
      <point x="27" y="461" type="line"/>
      <point x="233" y="461" type="line"/>
      <point x="342" y="177" type="line"/>
      <point x="454" y="461" type="line"/>
      <point x="650" y="461" type="line"/>
      <point x="650" y="437" type="line"/>
      <point x="611" y="434"/>
      <point x="601" y="422"/>
      <point x="601" y="380" type="curve" smooth="yes"/>
      <point x="601" y="81" type="line" smooth="yes"/>
      <point x="601" y="39"/>
      <point x="611" y="27"/>
      <point x="650" y="24" type="curve"/>
      <point x="650" y="0" type="line"/>
      <point x="414" y="0" type="line"/>
      <point x="414" y="24" type="line"/>
      <point x="448" y="28"/>
      <point x="463" y="44"/>
    </contour>
  </outline>
</glyph>
<glyph name="afii10081" format="1">
  <advance width="556"/>
  <unicode hex="043F"/>
  <outline>
    <contour>
      <point x="351" y="421" type="line"/>
      <point x="213" y="421" type="line"/>
      <point x="213" y="81" type="line" smooth="yes"/>
      <point x="213" y="44"/>
      <point x="225" y="29"/>
      <point x="262" y="24" type="curve"/>
      <point x="262" y="0" type="line"/>
      <point x="21" y="0" type="line"/>
      <point x="21" y="24" type="line"/>
      <point x="66" y="33"/>
      <point x="74" y="42"/>
      <point x="74" y="84" type="curve" smooth="yes"/>
      <point x="74" y="380" type="line" smooth="yes"/>
      <point x="74" y="417"/>
      <point x="61" y="433"/>
      <point x="27" y="437" type="curve"/>
      <point x="27" y="461" type="line"/>
      <point x="539" y="461" type="line"/>
      <point x="539" y="437" type="line"/>
      <point x="500" y="434"/>
      <point x="490" y="422"/>
      <point x="490" y="380" type="curve" smooth="yes"/>
      <point x="490" y="81" type="line" smooth="yes"/>
      <point x="490" y="39"/>
      <point x="500" y="27"/>
      <point x="539" y="24" type="curve"/>
      <point x="539" y="0" type="line"/>
      <point x="304" y="0" type="line"/>
      <point x="304" y="24" type="line"/>
      <point x="338" y="28"/>
      <point x="351" y="44"/>
      <point x="351" y="81" type="curve" smooth="yes"/>
    </contour>
  </outline>
</glyph>
<glyph name="afii10090" format="1">
  <advance width="818"/>
  <unicode hex="0448"/>
  <outline>
    <contour>
      <point x="474" y="40" type="line"/>
      <point x="611" y="40" type="line"/>
      <point x="611" y="380" type="line" smooth="yes"/>
      <point x="611" y="417"/>
      <point x="599" y="432"/>
      <point x="562" y="437" type="curve"/>
      <point x="562" y="461" type="line"/>
      <point x="803" y="461" type="line"/>
      <point x="803" y="437" type="line"/>
      <point x="758" y="428"/>
      <point x="750" y="419"/>
      <point x="750" y="377" type="curve" smooth="yes"/>
      <point x="750" y="81" type="line" smooth="yes"/>
      <point x="750" y="44"/>
      <point x="763" y="28"/>
      <point x="797" y="24" type="curve"/>
      <point x="797" y="0" type="line"/>
      <point x="21" y="0" type="line"/>
      <point x="21" y="24" type="line"/>
      <point x="60" y="27"/>
      <point x="70" y="39"/>
      <point x="70" y="81" type="curve" smooth="yes"/>
      <point x="70" y="380" type="line" smooth="yes"/>
      <point x="70" y="422"/>
      <point x="60" y="434"/>
      <point x="21" y="437" type="curve"/>
      <point x="21" y="461" type="line"/>
      <point x="256" y="461" type="line"/>
      <point x="256" y="437" type="line"/>
      <point x="222" y="433"/>
      <point x="209" y="417"/>
      <point x="209" y="380" type="curve" smooth="yes"/>
      <point x="209" y="40" type="line"/>
      <point x="335" y="40" type="line"/>
      <point x="335" y="380" type="line" smooth="yes"/>
      <point x="335" y="417"/>
      <point x="323" y="432"/>
      <point x="286" y="437" type="curve"/>
      <point x="286" y="461" type="line"/>
      <point x="527" y="461" type="line"/>
      <point x="527" y="437" type="line"/>
      <point x="482" y="428"/>
      <point x="474" y="419"/>
      <point x="474" y="377" type="curve" smooth="yes"/>
    </contour>
  </outline>
</glyph>
<glyph name="afii10092" format="1">
  <advance width="612"/>
  <unicode hex="044A"/>
  <outline>
    <contour>
      <point x="121" y="0" type="line"/>
      <point x="121" y="25" type="line"/>
      <point x="171" y="30"/>
      <point x="174" y="53"/>
      <point x="174" y="88" type="curve" smooth="yes"/>
      <point x="174" y="424" type="line"/>
      <point x="88" y="424"/>
      <point x="63" y="414"/>
      <point x="38" y="319" type="curve"/>
      <point x="12" y="319" type="line"/>
      <point x="19" y="461" type="line"/>
      <point x="360" y="461" type="line"/>
      <point x="360" y="436" type="line"/>
      <point x="313" y="434"/>
      <point x="313" y="402"/>
      <point x="313" y="367" type="curve" smooth="yes"/>
      <point x="313" y="284" type="line"/>
      <point x="372" y="284" type="line" smooth="yes"/>
      <point x="482" y="284"/>
      <point x="537" y="247"/>
      <point x="553" y="227" type="curve"/>
      <point x="577" y="206"/>
      <point x="590" y="168"/>
      <point x="590" y="138" type="curve" smooth="yes"/>
      <point x="590" y="61"/>
      <point x="514" y="0"/>
      <point x="398" y="0" type="curve" smooth="yes"/>
    </contour>
    <contour>
      <point x="313" y="246" type="line"/>
      <point x="313" y="82" type="line" smooth="yes"/>
      <point x="313" y="52"/>
      <point x="360" y="41"/>
      <point x="390" y="41" type="curve" smooth="yes"/>
      <point x="445" y="41"/>
      <point x="465" y="82"/>
      <point x="466" y="136" type="curve" smooth="yes"/>
      <point x="467" y="204"/>
      <point x="439" y="246"/>
      <point x="368" y="246" type="curve" smooth="yes"/>
    </contour>
  </outline>
</glyph>
<glyph name="afii10094" format="1">
  <advance width="512"/>
  <unicode hex="044C"/>
  <outline>
    <contour>
      <point x="260" y="461" type="line"/>
      <point x="260" y="436" type="line"/>
      <point x="213" y="434"/>
      <point x="213" y="402"/>
      <point x="213" y="367" type="curve" smooth="yes"/>
      <point x="213" y="284" type="line"/>
      <point x="272" y="284" type="line" smooth="yes"/>
      <point x="382" y="284"/>
      <point x="437" y="247"/>
      <point x="453" y="227" type="curve"/>
      <point x="477" y="206"/>
      <point x="490" y="168"/>
      <point x="490" y="138" type="curve" smooth="yes"/>
      <point x="490" y="61"/>
      <point x="414" y="0"/>
      <point x="298" y="0" type="curve" smooth="yes"/>
      <point x="21" y="0" type="line"/>
      <point x="21" y="25" type="line"/>
      <point x="71" y="30"/>
      <point x="74" y="53"/>
      <point x="74" y="88" type="curve" smooth="yes"/>
      <point x="74" y="367" type="line" smooth="yes"/>
      <point x="74" y="402"/>
      <point x="74" y="434"/>
      <point x="27" y="436" type="curve"/>
      <point x="27" y="461" type="line"/>
    </contour>
    <contour>
      <point x="213" y="246" type="line"/>
      <point x="213" y="82" type="line" smooth="yes"/>
      <point x="213" y="52"/>
      <point x="260" y="41"/>
      <point x="290" y="41" type="curve" smooth="yes"/>
      <point x="345" y="41"/>
      <point x="365" y="82"/>
      <point x="366" y="136" type="curve" smooth="yes"/>
      <point x="367" y="204"/>
      <point x="339" y="246"/>
      <point x="268" y="246" type="curve" smooth="yes"/>
    </contour>
  </outline>
</glyph>
<glyph name="afii10097" format="1">
  <advance width="512"/>
  <unicode hex="044F"/>
  <outline>
    <contour>
      <point x="139" y="209" type="line"/>
      <point x="83" y="224"/>
      <point x="34" y="258"/>
      <point x="34" y="333" type="curve" smooth="yes"/>
      <point x="34" y="410"/>
      <point x="97" y="461"/>
      <point x="213" y="461" type="curve" smooth="yes"/>
      <point x="490" y="461" type="line"/>
      <point x="490" y="436" type="line"/>
      <point x="440" y="431"/>
      <point x="437" y="408"/>
      <point x="437" y="373" type="curve" smooth="yes"/>
      <point x="437" y="94" type="line" smooth="yes"/>
      <point x="437" y="59"/>
      <point x="437" y="27"/>
      <point x="484" y="25" type="curve"/>
      <point x="484" y="0" type="line"/>
      <point x="251" y="0" type="line"/>
      <point x="251" y="25" type="line"/>
      <point x="298" y="27"/>
      <point x="298" y="59"/>
      <point x="298" y="94" type="curve" smooth="yes"/>
      <point x="298" y="197" type="line"/>
      <point x="272" y="197" type="line"/>
      <point x="157" y="0" type="line"/>
      <point x="12" y="0" type="line"/>
      <point x="12" y="24" type="line"/>
      <point x="23" y="24"/>
      <point x="34" y="26"/>
      <point x="41" y="39" type="curve" smooth="yes"/>
    </contour>
    <contour>
      <point x="298" y="235" type="line"/>
      <point x="298" y="379" type="line" smooth="yes"/>
      <point x="298" y="409"/>
      <point x="263" y="420"/>
      <point x="233" y="420" type="curve" smooth="yes"/>
      <point x="178" y="420"/>
      <point x="151" y="389"/>
      <point x="150" y="335" type="curve" smooth="yes"/>
      <point x="149" y="267"/>
      <point x="172" y="235"/>
      <point x="243" y="235" type="curve" smooth="yes"/>
    </contour>
  </outline>
</glyph>
<glyph name="afii10071" format="1">
  <advance width="444"/>
  <unicode hex="0451"/>
  <outline>
    <contour>
      <point x="120" y="640" type="curve" smooth="yes"/>
      <point x="155" y="640"/>
      <point x="185" y="610"/>
      <point x="185" y="574" type="curve" smooth="yes"/>
      <point x="185" y="539"/>
      <point x="156" y="511"/>
      <point x="120" y="511" type="curve" smooth="yes"/>
      <point x="85" y="511"/>
      <point x="56" y="541"/>
      <point x="56" y="576" type="curve" smooth="yes"/>
      <point x="56" y="610"/>
      <point x="86" y="640"/>
    </contour>
    <contour>
      <point x="329" y="640" type="curve" smooth="yes"/>
      <point x="365" y="640"/>
      <point x="395" y="610"/>
      <point x="395" y="574" type="curve" smooth="yes"/>
      <point x="395" y="539"/>
      <point x="366" y="511"/>
      <point x="329" y="511" type="curve" smooth="yes"/>
      <point x="294" y="511"/>
      <point x="266" y="540"/>
      <point x="266" y="577" type="curve" smooth="yes"/>
      <point x="266" y="610"/>
      <point x="296" y="640"/>
    </contour>
    <contour>
      <point x="402" y="125" type="curve"/>
      <point x="426" y="111" type="line"/>
      <point x="361" y="18"/>
      <point x="312" y="-14"/>
      <point x="231" y="-14" type="curve" smooth="yes"/>
      <point x="107" y="-14"/>
      <point x="25" y="82"/>
      <point x="25" y="228" type="curve" smooth="yes"/>
      <point x="25" y="374"/>
      <point x="109" y="473"/>
      <point x="234" y="473" type="curve" smooth="yes"/>
      <point x="289" y="473"/>
      <point x="335" y="453"/>
      <point x="368" y="414" type="curve" smooth="yes"/>
      <point x="400" y="376"/>
      <point x="415" y="329"/>
      <point x="421" y="245" type="curve"/>
      <point x="169" y="245" type="line"/>
      <point x="173" y="176"/>
      <point x="181" y="143"/>
      <point x="199" y="111" type="curve"/>
      <point x="220" y="76"/>
      <point x="249" y="58"/>
      <point x="288" y="58" type="curve" smooth="yes"/>
      <point x="331" y="58"/>
      <point x="362" y="76"/>
    </contour>
    <contour>
      <point x="164" y="282" type="curve"/>
      <point x="298" y="282" type="line"/>
      <point x="298" y="297" type="line"/>
      <point x="296" y="348"/>
      <point x="294" y="376"/>
      <point x="289" y="395" type="curve" smooth="yes"/>
      <point x="281" y="426"/>
      <point x="262" y="442"/>
      <point x="234" y="442" type="curve" smooth="yes"/>
      <point x="185" y="442"/>
      <point x="167" y="402"/>
    </contour>
  </outline>
</glyph>
<glyph name="afii10099" format="1">
  <advance width="556"/>
  <unicode hex="0452"/>
  <outline>
    <contour>
      <point x="208" y="395" type="line"/>
      <point x="236" y="440"/>
      <point x="290" y="473"/>
      <point x="350" y="473" type="curve" smooth="yes"/>
      <point x="432" y="473"/>
      <point x="485" y="418"/>
      <point x="485" y="332" type="curve" smooth="yes"/>
      <point x="485" y="2" type="line" smooth="yes"/>
      <point x="485" y="-57"/>
      <point x="477" y="-95"/>
      <point x="458" y="-127" type="curve" smooth="yes"/>
      <point x="430" y="-176"/>
      <point x="377" y="-203"/>
      <point x="308" y="-203" type="curve" smooth="yes"/>
      <point x="226" y="-203"/>
      <point x="168" y="-162"/>
      <point x="168" y="-103" type="curve" smooth="yes"/>
      <point x="168" y="-67"/>
      <point x="193" y="-42"/>
      <point x="230" y="-42" type="curve" smooth="yes"/>
      <point x="262" y="-42"/>
      <point x="289" y="-66"/>
      <point x="289" y="-96" type="curve" smooth="yes"/>
      <point x="289" y="-106"/>
      <point x="285" y="-117"/>
      <point x="275" y="-133" type="curve" smooth="yes"/>
      <point x="269" y="-143"/>
      <point x="266" y="-150"/>
      <point x="266" y="-155" type="curve" smooth="yes"/>
      <point x="266" y="-165"/>
      <point x="279" y="-172"/>
      <point x="298" y="-172" type="curve" smooth="yes"/>
      <point x="331" y="-172"/>
      <point x="346" y="-149"/>
      <point x="346" y="-96" type="curve" smooth="yes"/>
      <point x="346" y="323" type="line" smooth="yes"/>
      <point x="346" y="379"/>
      <point x="329" y="406"/>
      <point x="294" y="406" type="curve" smooth="yes"/>
      <point x="271" y="406"/>
      <point x="247" y="394"/>
      <point x="225" y="371" type="curve"/>
      <point x="215" y="362"/>
      <point x="208" y="352"/>
      <point x="208" y="348" type="curve" smooth="yes"/>
      <point x="208" y="81" type="line" smooth="yes"/>
      <point x="208" y="44"/>
      <point x="220" y="29"/>
      <point x="257" y="24" type="curve"/>
      <point x="257" y="0" type="line"/>
      <point x="16" y="0" type="line"/>
      <point x="16" y="24" type="line"/>
      <point x="61" y="33"/>
      <point x="69" y="42"/>
      <point x="69" y="84" type="curve" smooth="yes"/>
      <point x="69" y="505" type="line"/>
      <point x="13" y="505" type="line"/>
      <point x="13" y="577" type="line"/>
      <point x="69" y="577" type="line"/>
      <point x="69" y="594" type="line" smooth="yes"/>
      <point x="69" y="635"/>
      <point x="62" y="643"/>
      <point x="16" y="652" type="curve"/>
      <point x="16" y="676" type="line"/>
      <point x="208" y="676" type="line"/>
      <point x="208" y="577" type="line"/>
      <point x="343" y="577" type="line"/>
      <point x="343" y="505" type="line"/>
      <point x="208" y="505" type="line"/>
    </contour>
  </outline>
</glyph>
<glyph name="afii10104" format="1">
  <advance width="278"/>
  <unicode hex="0457"/>
  <outline>
    <contour>
      <point x="30" y="640" type="curve" smooth="yes"/>
      <point x="65" y="640"/>
      <point x="95" y="610"/>
      <point x="95" y="574" type="curve" smooth="yes"/>
      <point x="95" y="539"/>
      <point x="66" y="511"/>
      <point x="30" y="511" type="curve" smooth="yes"/>
      <point x="-5" y="511"/>
      <point x="-34" y="541"/>
      <point x="-34" y="576" type="curve" smooth="yes"/>
      <point x="-34" y="610"/>
      <point x="-4" y="640"/>
    </contour>
    <contour>
      <point x="239" y="640" type="curve" smooth="yes"/>
      <point x="275" y="640"/>
      <point x="305" y="610"/>
      <point x="305" y="574" type="curve" smooth="yes"/>
      <point x="305" y="539"/>
      <point x="276" y="511"/>
      <point x="239" y="511" type="curve" smooth="yes"/>
      <point x="204" y="511"/>
      <point x="176" y="540"/>
      <point x="176" y="577" type="curve" smooth="yes"/>
      <point x="176" y="610"/>
      <point x="206" y="640"/>
    </contour>
    <contour>
      <point x="208" y="461" type="line"/>
      <point x="208" y="81" type="line" smooth="yes"/>
      <point x="208" y="43"/>
      <point x="220" y="29"/>
      <point x="255" y="24" type="curve"/>
      <point x="255" y="0" type="line"/>
      <point x="16" y="0" type="line"/>
      <point x="16" y="24" type="line"/>
      <point x="62" y="35"/>
      <point x="69" y="43"/>
      <point x="69" y="84" type="curve" smooth="yes"/>
      <point x="69" y="378" type="line" smooth="yes"/>
      <point x="69" y="419"/>
      <point x="60" y="428"/>
      <point x="16" y="437" type="curve"/>
      <point x="16" y="461" type="line"/>
    </contour>
  </outline>
</glyph>
<glyph name="afii10106" format="1">
  <advance width="792"/>
  <unicode hex="0459"/>
  <outline>
    <contour>
      <point x="543" y="461" type="line"/>
      <point x="543" y="436" type="line"/>
      <point x="496" y="434"/>
      <point x="496" y="402"/>
      <point x="496" y="367" type="curve" smooth="yes"/>
      <point x="496" y="264" type="line"/>
      <point x="555" y="264" type="line" smooth="yes"/>
      <point x="665" y="264"/>
      <point x="720" y="227"/>
      <point x="736" y="207" type="curve"/>
      <point x="760" y="186"/>
      <point x="773" y="158"/>
      <point x="773" y="128" type="curve" smooth="yes"/>
      <point x="773" y="51"/>
      <point x="697" y="0"/>
      <point x="581" y="0" type="curve" smooth="yes"/>
      <point x="304" y="0" type="line"/>
      <point x="304" y="24" type="line"/>
      <point x="338" y="28"/>
      <point x="351" y="44"/>
      <point x="351" y="81" type="curve" smooth="yes"/>
      <point x="351" y="421" type="line"/>
      <point x="213" y="421" type="line"/>
      <point x="213" y="206" type="line" smooth="yes"/>
      <point x="213" y="169"/>
      <point x="226" y="-10"/>
      <point x="76" y="-10" type="curve" smooth="yes"/>
      <point x="43" y="-10"/>
      <point x="7" y="0"/>
      <point x="7" y="34" type="curve" smooth="yes"/>
      <point x="7" y="60"/>
      <point x="23" y="82"/>
      <point x="49" y="82" type="curve" smooth="yes"/>
      <point x="79" y="82"/>
      <point x="82" y="55"/>
      <point x="108" y="55" type="curve" smooth="yes"/>
      <point x="161" y="55"/>
      <point x="154" y="167"/>
      <point x="154" y="209" type="curve" smooth="yes"/>
      <point x="154" y="380" type="line" smooth="yes"/>
      <point x="154" y="417"/>
      <point x="141" y="433"/>
      <point x="107" y="437" type="curve"/>
      <point x="107" y="461" type="line"/>
    </contour>
    <contour>
      <point x="496" y="226" type="line"/>
      <point x="496" y="82" type="line" smooth="yes"/>
      <point x="496" y="52"/>
      <point x="543" y="41"/>
      <point x="573" y="41" type="curve" smooth="yes"/>
      <point x="628" y="41"/>
      <point x="648" y="72"/>
      <point x="649" y="126" type="curve" smooth="yes"/>
      <point x="650" y="194"/>
      <point x="622" y="226"/>
      <point x="551" y="226" type="curve" smooth="yes"/>
    </contour>
  </outline>
</glyph>
<glyph name="afii10107" format="1">
  <advance width="786"/>
  <unicode hex="045A"/>
  <outline>
    <contour>
      <point x="543" y="461" type="line"/>
      <point x="543" y="436" type="line"/>
      <point x="496" y="434"/>
      <point x="496" y="402"/>
      <point x="496" y="367" type="curve" smooth="yes"/>
      <point x="496" y="264" type="line"/>
      <point x="555" y="264" type="line" smooth="yes"/>
      <point x="665" y="264"/>
      <point x="720" y="227"/>
      <point x="736" y="207" type="curve"/>
      <point x="760" y="186"/>
      <point x="773" y="158"/>
      <point x="773" y="128" type="curve" smooth="yes"/>
      <point x="773" y="51"/>
      <point x="697" y="0"/>
      <point x="581" y="0" type="curve" smooth="yes"/>
      <point x="304" y="0" type="line"/>
      <point x="304" y="24" type="line"/>
      <point x="338" y="28"/>
      <point x="351" y="44"/>
      <point x="351" y="81" type="curve"/>
      <point x="353" y="81" type="line"/>
      <point x="353" y="223" type="line"/>
      <point x="213" y="223" type="line"/>
      <point x="213" y="81" type="line" smooth="yes"/>
      <point x="213" y="44"/>
      <point x="225" y="29"/>
      <point x="262" y="24" type="curve"/>
      <point x="262" y="0" type="line"/>
      <point x="21" y="0" type="line"/>
      <point x="21" y="24" type="line"/>
      <point x="66" y="33"/>
      <point x="74" y="42"/>
      <point x="74" y="84" type="curve" smooth="yes"/>
      <point x="74" y="380" type="line" smooth="yes"/>
      <point x="74" y="417"/>
      <point x="61" y="433"/>
      <point x="27" y="437" type="curve"/>
      <point x="27" y="461" type="line"/>
      <point x="262" y="461" type="line"/>
      <point x="262" y="437" type="line"/>
      <point x="223" y="434"/>
      <point x="213" y="422"/>
      <point x="213" y="380" type="curve" smooth="yes"/>
      <point x="213" y="263" type="line"/>
      <point x="353" y="263" type="line"/>
      <point x="353" y="380" type="line" smooth="yes"/>
      <point x="353" y="422"/>
      <point x="343" y="434"/>
      <point x="304" y="437" type="curve"/>
      <point x="304" y="461" type="line"/>
    </contour>
    <contour>
      <point x="496" y="226" type="line"/>
      <point x="496" y="82" type="line" smooth="yes"/>
      <point x="496" y="52"/>
      <point x="543" y="41"/>
      <point x="573" y="41" type="curve" smooth="yes"/>
      <point x="628" y="41"/>
      <point x="648" y="72"/>
      <point x="649" y="126" type="curve" smooth="yes"/>
      <point x="650" y="194"/>
      <point x="622" y="226"/>
      <point x="551" y="226" type="curve" smooth="yes"/>
    </contour>
  </outline>
</glyph>
<glyph name="afii10110" format="1">
  <advance width="500"/>
  <unicode hex="045E"/>
  <outline>
    <contour>
      <point x="355" y="674" type="curve"/>
      <point x="399" y="674" type="line"/>
      <point x="393" y="623"/>
      <point x="386" y="598"/>
      <point x="369" y="572" type="curve" smooth="yes"/>
      <point x="343" y="531"/>
      <point x="302" y="511"/>
      <point x="247" y="511" type="curve" smooth="yes"/>
      <point x="194" y="511"/>
      <point x="152" y="530"/>
      <point x="127" y="566" type="curve"/>
      <point x="106" y="594"/>
      <point x="99" y="619"/>
      <point x="96" y="674" type="curve"/>
      <point x="140" y="674" type="line"/>
      <point x="151" y="613"/>
      <point x="183" y="587"/>
      <point x="247" y="587" type="curve" smooth="yes"/>
      <point x="309" y="587"/>
      <point x="338" y="611"/>
    </contour>
    <contour>
      <point x="480" y="461" type="line"/>
      <point x="480" y="437" type="line"/>
      <point x="449" y="434"/>
      <point x="439" y="424"/>
      <point x="422" y="382" type="curve"/>
      <point x="273" y="-15" type="line" smooth="yes"/>
      <point x="238" y="-109"/>
      <point x="218" y="-149"/>
      <point x="197" y="-172" type="curve"/>
      <point x="176" y="-193"/>
      <point x="147" y="-205"/>
      <point x="113" y="-205" type="curve" smooth="yes"/>
      <point x="56" y="-205"/>
      <point x="16" y="-172"/>
      <point x="16" y="-126" type="curve" smooth="yes"/>
      <point x="16" y="-88"/>
      <point x="43" y="-62"/>
      <point x="80" y="-62" type="curve" smooth="yes"/>
      <point x="114" y="-62"/>
      <point x="138" y="-82"/>
      <point x="138" y="-111" type="curve" smooth="yes"/>
      <point x="138" y="-115"/>
      <point x="137" y="-120"/>
      <point x="136" y="-125" type="curve" smooth="yes"/>
      <point x="135" y="-128"/>
      <point x="135" y="-130"/>
      <point x="135" y="-131" type="curve" smooth="yes"/>
      <point x="135" y="-140"/>
      <point x="143" y="-148"/>
      <point x="152" y="-148" type="curve" smooth="yes"/>
      <point x="175" y="-148"/>
      <point x="201" y="-116"/>
      <point x="218" y="-66" type="curve" smooth="yes"/>
      <point x="236" y="-13" type="line"/>
      <point x="116" y="282" type="line" smooth="yes"/>
      <point x="99" y="324"/>
      <point x="54" y="422"/>
      <point x="51" y="422" type="curve"/>
      <point x="45" y="431"/>
      <point x="39" y="434"/>
      <point x="16" y="437" type="curve"/>
      <point x="16" y="461" type="line"/>
      <point x="266" y="461" type="line"/>
      <point x="266" y="437" type="line"/>
      <point x="250" y="436" type="line" smooth="yes"/>
      <point x="225" y="434"/>
      <point x="213" y="425"/>
      <point x="213" y="411" type="curve" smooth="yes"/>
      <point x="213" y="403"/>
      <point x="213" y="403"/>
      <point x="233" y="352" type="curve" smooth="yes"/>
      <point x="305" y="167" type="line"/>
      <point x="373" y="359" type="line" smooth="yes"/>
      <point x="382" y="384"/>
      <point x="384" y="393"/>
      <point x="384" y="404" type="curve" smooth="yes"/>
      <point x="384" y="428"/>
      <point x="372" y="435"/>
      <point x="329" y="437" type="curve"/>
      <point x="329" y="461" type="line"/>
    </contour>
  </outline>
</glyph>
<glyph name="afii10193" format="1">
  <advance width="556"/>
  <unicode hex="045F"/>
  <outline>
    <contour>
      <point x="209" y="40" type="line"/>
      <point x="347" y="40" type="line"/>
      <point x="347" y="380" type="line" smooth="yes"/>
      <point x="347" y="417"/>
      <point x="335" y="432"/>
      <point x="298" y="437" type="curve"/>
      <point x="298" y="461" type="line"/>
      <point x="539" y="461" type="line"/>
      <point x="539" y="437" type="line"/>
      <point x="494" y="428"/>
      <point x="486" y="419"/>
      <point x="486" y="377" type="curve" smooth="yes"/>
      <point x="486" y="81" type="line" smooth="yes"/>
      <point x="486" y="44"/>
      <point x="499" y="28"/>
      <point x="533" y="24" type="curve"/>
      <point x="533" y="0" type="line"/>
      <point x="336" y="0" type="line"/>
      <point x="319" y="-60"/>
      <point x="314" y="-179"/>
      <point x="314" y="-179" type="curve"/>
      <point x="248" y="-179" type="line"/>
      <point x="248" y="-179"/>
      <point x="239" y="-59"/>
      <point x="220" y="0" type="curve"/>
      <point x="21" y="0" type="line"/>
      <point x="21" y="24" type="line"/>
      <point x="60" y="27"/>
      <point x="70" y="39"/>
      <point x="70" y="81" type="curve" smooth="yes"/>
      <point x="70" y="380" type="line" smooth="yes"/>
      <point x="70" y="422"/>
      <point x="60" y="434"/>
      <point x="21" y="437" type="curve"/>
      <point x="21" y="461" type="line"/>
      <point x="256" y="461" type="line"/>
      <point x="256" y="437" type="line"/>
      <point x="222" y="433"/>
      <point x="209" y="417"/>
      <point x="209" y="380" type="curve" smooth="yes"/>
    </contour>
  </outline>
</glyph>
<glyph name="uni048C" format="1">
  <advance width="611"/>
  <unicode hex="048C"/>
  <outline>
    <contour>
      <point x="262" y="338" type="curve"/>
      <point x="262" y="70" type="line" smooth="yes"/>
      <point x="262" y="47"/>
      <point x="279" y="35"/>
      <point x="312" y="35" type="curve" smooth="yes"/>
      <point x="395" y="35"/>
      <point x="428" y="79"/>
      <point x="428" y="187" type="curve" smooth="yes"/>
      <point x="428" y="250"/>
      <point x="416" y="288"/>
      <point x="390" y="311" type="curve" smooth="yes"/>
      <point x="366" y="331"/>
      <point x="333" y="338"/>
    </contour>
    <contour>
      <point x="350" y="651" type="line"/>
      <point x="271" y="641"/>
      <point x="262" y="632"/>
      <point x="262" y="559" type="curve"/>
      <point x="348" y="559" type="line"/>
      <point x="348" y="487" type="line"/>
      <point x="262" y="487" type="line"/>
      <point x="262" y="373" type="line"/>
      <point x="397" y="372"/>
      <point x="431" y="369"/>
      <point x="475" y="351" type="curve"/>
      <point x="556" y="320"/>
      <point x="600" y="259"/>
      <point x="600" y="182" type="curve" smooth="yes"/>
      <point x="600" y="66"/>
      <point x="505" y="0"/>
      <point x="338" y="0" type="curve" smooth="yes"/>
      <point x="16" y="0" type="line"/>
      <point x="16" y="25" type="line"/>
      <point x="86" y="31"/>
      <point x="100" y="47"/>
      <point x="100" y="117" type="curve" smooth="yes"/>
      <point x="100" y="487" type="line"/>
      <point x="18" y="487" type="line"/>
      <point x="18" y="559" type="line"/>
      <point x="100" y="559" type="line"/>
      <point x="100" y="621"/>
      <point x="87" y="641"/>
      <point x="40" y="647" type="curve" smooth="yes"/>
      <point x="37" y="647"/>
      <point x="27" y="649"/>
      <point x="16" y="651" type="curve"/>
      <point x="16" y="676" type="line"/>
      <point x="350" y="676" type="line"/>
    </contour>
  </outline>
</glyph>
<glyph name="uni048D" format="1">
  <advance width="512"/>
  <unicode hex="048D"/>
  <outline>
    <contour>
      <point x="268" y="226" type="curve" smooth="yes"/>
      <point x="213" y="226" type="line"/>
      <point x="213" y="82" type="line" smooth="yes"/>
      <point x="213" y="52"/>
      <point x="260" y="41"/>
      <point x="290" y="41" type="curve" smooth="yes"/>
      <point x="345" y="41"/>
      <point x="365" y="72"/>
      <point x="366" y="126" type="curve" smooth="yes"/>
      <point x="367" y="194"/>
      <point x="339" y="226"/>
    </contour>
    <contour>
      <point x="27" y="461" type="line"/>
      <point x="260" y="461" type="line"/>
      <point x="260" y="436" type="line"/>
      <point x="213" y="434"/>
      <point x="213" y="402"/>
      <point x="213" y="367" type="curve" smooth="yes"/>
      <point x="213" y="366" type="line"/>
      <point x="274" y="366" type="line"/>
      <point x="274" y="294" type="line"/>
      <point x="213" y="294" type="line"/>
      <point x="213" y="264" type="line"/>
      <point x="272" y="264" type="line" smooth="yes"/>
      <point x="382" y="264"/>
      <point x="437" y="227"/>
      <point x="453" y="207" type="curve"/>
      <point x="477" y="186"/>
      <point x="490" y="158"/>
      <point x="490" y="128" type="curve" smooth="yes"/>
      <point x="490" y="51"/>
      <point x="414" y="0"/>
      <point x="298" y="0" type="curve" smooth="yes"/>
      <point x="21" y="0" type="line"/>
      <point x="21" y="25" type="line"/>
      <point x="71" y="30"/>
      <point x="74" y="53"/>
      <point x="74" y="88" type="curve" smooth="yes"/>
      <point x="74" y="294" type="line"/>
      <point x="17" y="294" type="line"/>
      <point x="17" y="366" type="line"/>
      <point x="74" y="366" type="line"/>
      <point x="74" y="367" type="line" smooth="yes"/>
      <point x="74" y="402"/>
      <point x="74" y="434"/>
      <point x="27" y="436" type="curve"/>
    </contour>
  </outline>
</glyph>
<glyph name="uni048E" format="1">
  <advance width="611"/>
  <unicode hex="048E"/>
  <outline>
    <contour>
      <point x="340" y="483" type="line"/>
      <point x="417" y="406" type="line"/>
      <point x="424" y="428"/>
      <point x="428" y="455"/>
      <point x="428" y="489" type="curve" smooth="yes"/>
      <point x="428" y="597"/>
      <point x="395" y="641"/>
      <point x="312" y="641" type="curve" smooth="yes"/>
      <point x="279" y="641"/>
      <point x="262" y="629"/>
      <point x="262" y="606" type="curve" smooth="yes"/>
      <point x="262" y="338" type="line"/>
      <point x="315" y="338"/>
      <point x="347" y="342"/>
      <point x="369" y="352" type="curve"/>
      <point x="289" y="432" type="line"/>
    </contour>
    <contour>
      <point x="574" y="250" type="line"/>
      <point x="523" y="199" type="line"/>
      <point x="413" y="309" type="line"/>
      <point x="381" y="305"/>
      <point x="337" y="304"/>
      <point x="262" y="303" type="curve"/>
      <point x="262" y="117" type="line" smooth="yes"/>
      <point x="262" y="44"/>
      <point x="271" y="35"/>
      <point x="350" y="25" type="curve"/>
      <point x="350" y="0" type="line"/>
      <point x="16" y="0" type="line"/>
      <point x="16" y="25" type="line"/>
      <point x="27" y="27"/>
      <point x="37" y="29"/>
      <point x="40" y="29" type="curve" smooth="yes"/>
      <point x="87" y="35"/>
      <point x="100" y="55"/>
      <point x="100" y="117" type="curve" smooth="yes"/>
      <point x="100" y="559" type="line" smooth="yes"/>
      <point x="100" y="629"/>
      <point x="86" y="645"/>
      <point x="16" y="651" type="curve"/>
      <point x="16" y="676" type="line"/>
      <point x="338" y="676" type="line" smooth="yes"/>
      <point x="505" y="676"/>
      <point x="600" y="610"/>
      <point x="600" y="494" type="curve" smooth="yes"/>
      <point x="600" y="422"/>
      <point x="562" y="365"/>
      <point x="491" y="332" type="curve"/>
    </contour>
  </outline>
</glyph>
<glyph name="afii10050" format="1">
  <advance width="611"/>
  <unicode hex="0490"/>
  <outline>
    <contour>
      <point x="584" y="642" type="line"/>
      <point x="330" y="642" type="line" smooth="yes"/>
      <point x="279" y="642"/>
      <point x="266" y="632"/>
      <point x="266" y="595" type="curve" smooth="yes"/>
      <point x="266" y="96" type="line" smooth="yes"/>
      <point x="266" y="41"/>
      <point x="284" y="29"/>
      <point x="376" y="25" type="curve"/>
      <point x="376" y="0" type="line"/>
      <point x="16" y="0" type="line"/>
      <point x="16" y="25" type="line"/>
      <point x="90" y="33"/>
      <point x="104" y="44"/>
      <point x="104" y="96" type="curve" smooth="yes"/>
      <point x="104" y="580" type="line" smooth="yes"/>
      <point x="104" y="632"/>
      <point x="85" y="647"/>
      <point x="16" y="651" type="curve"/>
      <point x="16" y="676" type="line"/>
      <point x="330" y="675" type="line" smooth="yes"/>
      <point x="422" y="675"/>
      <point x="481" y="692"/>
      <point x="512" y="727" type="curve" smooth="yes"/>
      <point x="534" y="752"/>
      <point x="552" y="782"/>
      <point x="559" y="842" type="curve"/>
      <point x="583" y="842" type="line"/>
    </contour>
  </outline>
</glyph>
<glyph name="uni0493" format="1">
  <advance width="458"/>
  <unicode hex="0493"/>
  <outline>
    <contour>
      <point x="27" y="461" type="line"/>
      <point x="423" y="461" type="line"/>
      <point x="430" y="319" type="line"/>
      <point x="404" y="319" type="line"/>
      <point x="379" y="414"/>
      <point x="353" y="430"/>
      <point x="213" y="429" type="curve"/>
      <point x="213" y="297" type="line"/>
      <point x="320" y="297" type="line"/>
      <point x="320" y="225" type="line"/>
      <point x="213" y="225" type="line"/>
      <point x="213" y="81" type="line" smooth="yes"/>
      <point x="213" y="44"/>
      <point x="225" y="29"/>
      <point x="262" y="24" type="curve"/>
      <point x="262" y="0" type="line"/>
      <point x="21" y="0" type="line"/>
      <point x="21" y="24" type="line"/>
      <point x="66" y="33"/>
      <point x="74" y="42"/>
      <point x="74" y="84" type="curve" smooth="yes"/>
      <point x="74" y="225" type="line"/>
      <point x="24" y="225" type="line"/>
      <point x="24" y="297" type="line"/>
      <point x="74" y="297" type="line"/>
      <point x="74" y="380" type="line" smooth="yes"/>
      <point x="74" y="417"/>
      <point x="61" y="433"/>
      <point x="27" y="437" type="curve"/>
    </contour>
  </outline>
</glyph>
<glyph name="uni0494" format="1">
  <advance width="611"/>
  <unicode hex="0494"/>
  <outline>
    <contour>
      <point x="583" y="676" type="line"/>
      <point x="583" y="475" type="line"/>
      <point x="559" y="475" type="line"/>
      <point x="545" y="538"/>
      <point x="534" y="565"/>
      <point x="512" y="590" type="curve" smooth="yes"/>
      <point x="481" y="625"/>
      <point x="422" y="642"/>
      <point x="330" y="642" type="curve" smooth="yes"/>
      <point x="279" y="642"/>
      <point x="266" y="632"/>
      <point x="266" y="595" type="curve" smooth="yes"/>
      <point x="266" y="397" type="line"/>
      <point x="294" y="441"/>
      <point x="348" y="473"/>
      <point x="407" y="473" type="curve" smooth="yes"/>
      <point x="489" y="473"/>
      <point x="542" y="418"/>
      <point x="542" y="332" type="curve" smooth="yes"/>
      <point x="542" y="2" type="line" smooth="yes"/>
      <point x="542" y="-57"/>
      <point x="534" y="-95"/>
      <point x="515" y="-127" type="curve" smooth="yes"/>
      <point x="487" y="-176"/>
      <point x="434" y="-203"/>
      <point x="365" y="-203" type="curve" smooth="yes"/>
      <point x="283" y="-203"/>
      <point x="225" y="-162"/>
      <point x="225" y="-103" type="curve" smooth="yes"/>
      <point x="225" y="-67"/>
      <point x="250" y="-42"/>
      <point x="287" y="-42" type="curve" smooth="yes"/>
      <point x="319" y="-42"/>
      <point x="346" y="-66"/>
      <point x="346" y="-96" type="curve" smooth="yes"/>
      <point x="346" y="-106"/>
      <point x="342" y="-117"/>
      <point x="332" y="-133" type="curve" smooth="yes"/>
      <point x="326" y="-143"/>
      <point x="323" y="-150"/>
      <point x="323" y="-155" type="curve" smooth="yes"/>
      <point x="323" y="-165"/>
      <point x="336" y="-172"/>
      <point x="355" y="-172" type="curve" smooth="yes"/>
      <point x="388" y="-172"/>
      <point x="403" y="-149"/>
      <point x="403" y="-96" type="curve" smooth="yes"/>
      <point x="403" y="323" type="line" smooth="yes"/>
      <point x="403" y="379"/>
      <point x="386" y="406"/>
      <point x="351" y="406" type="curve" smooth="yes"/>
      <point x="328" y="406"/>
      <point x="304" y="394"/>
      <point x="282" y="371" type="curve" smooth="yes"/>
      <point x="274" y="364"/>
      <point x="268" y="356"/>
      <point x="266" y="351" type="curve"/>
      <point x="266" y="96" type="line" smooth="yes"/>
      <point x="266" y="41"/>
      <point x="284" y="29"/>
      <point x="376" y="25" type="curve"/>
      <point x="376" y="0" type="line"/>
      <point x="16" y="0" type="line"/>
      <point x="16" y="25" type="line"/>
      <point x="90" y="33"/>
      <point x="104" y="44"/>
      <point x="104" y="96" type="curve" smooth="yes"/>
      <point x="104" y="580" type="line" smooth="yes"/>
      <point x="104" y="632"/>
      <point x="85" y="647"/>
      <point x="16" y="651" type="curve"/>
      <point x="16" y="676" type="line"/>
    </contour>
  </outline>
</glyph>
<glyph name="uni0495" format="1">
  <advance width="458"/>
  <unicode hex="0495"/>
  <outline>
    <contour>
      <point x="213" y="219" type="line"/>
      <point x="248" y="281"/>
      <point x="286" y="306"/>
      <point x="355" y="306" type="curve" smooth="yes"/>
      <point x="475" y="306"/>
      <point x="532" y="184"/>
      <point x="532" y="64" type="curve" smooth="yes"/>
      <point x="532" y="-76"/>
      <point x="446" y="-204"/>
      <point x="313" y="-203" type="curve" smooth="yes"/>
      <point x="244" y="-202"/>
      <point x="173" y="-162"/>
      <point x="173" y="-103" type="curve" smooth="yes"/>
      <point x="173" y="-67"/>
      <point x="198" y="-42"/>
      <point x="235" y="-42" type="curve" smooth="yes"/>
      <point x="267" y="-42"/>
      <point x="294" y="-66"/>
      <point x="294" y="-96" type="curve" smooth="yes"/>
      <point x="294" y="-106"/>
      <point x="290" y="-117"/>
      <point x="280" y="-133" type="curve" smooth="yes"/>
      <point x="274" y="-143"/>
      <point x="271" y="-150"/>
      <point x="271" y="-155" type="curve" smooth="yes"/>
      <point x="271" y="-165"/>
      <point x="289" y="-172"/>
      <point x="303" y="-172" type="curve" smooth="yes"/>
      <point x="352" y="-172"/>
      <point x="393" y="-46"/>
      <point x="393" y="50" type="curve" smooth="yes"/>
      <point x="393" y="130"/>
      <point x="378" y="240"/>
      <point x="299" y="239" type="curve" smooth="yes"/>
      <point x="270" y="239"/>
      <point x="252" y="227"/>
      <point x="230" y="204" type="curve"/>
      <point x="220" y="195"/>
      <point x="213" y="185"/>
      <point x="213" y="181" type="curve" smooth="yes"/>
      <point x="213" y="81" type="line" smooth="yes"/>
      <point x="213" y="44"/>
      <point x="225" y="29"/>
      <point x="262" y="24" type="curve"/>
      <point x="262" y="0" type="line"/>
      <point x="21" y="0" type="line"/>
      <point x="21" y="24" type="line"/>
      <point x="66" y="33"/>
      <point x="74" y="42"/>
      <point x="74" y="84" type="curve" smooth="yes"/>
      <point x="74" y="380" type="line" smooth="yes"/>
      <point x="74" y="417"/>
      <point x="61" y="433"/>
      <point x="27" y="437" type="curve"/>
      <point x="27" y="461" type="line"/>
      <point x="423" y="461" type="line"/>
      <point x="430" y="319" type="line"/>
      <point x="404" y="319" type="line"/>
      <point x="379" y="414"/>
      <point x="353" y="430"/>
      <point x="213" y="429" type="curve"/>
    </contour>
  </outline>
</glyph>
<glyph name="uni0497" format="1">
  <advance width="750"/>
  <unicode hex="0497"/>
  <outline>
    <contour>
      <point x="733" y="24" type="curve"/>
      <point x="741" y="-110" type="line"/>
      <point x="715" y="-110" type="line"/>
      <point x="696" y="-16"/>
      <point x="682" y="0"/>
      <point x="590" y="0" type="curve"/>
      <point x="491" y="168" type="line"/>
      <point x="491" y="168"/>
      <point x="469" y="214"/>
      <point x="453" y="214" type="curve" smooth="yes"/>
      <point x="443" y="214" type="line"/>
      <point x="443" y="84" type="line" smooth="yes"/>
      <point x="443" y="37"/>
      <point x="448" y="31"/>
      <point x="495" y="24" type="curve"/>
      <point x="495" y="0" type="line"/>
      <point x="256" y="0" type="line"/>
      <point x="256" y="24" type="line"/>
      <point x="289" y="27"/>
      <point x="304" y="45"/>
      <point x="304" y="84" type="curve" smooth="yes"/>
      <point x="304" y="214" type="line"/>
      <point x="294" y="214" type="line" smooth="yes"/>
      <point x="278" y="214"/>
      <point x="256" y="168"/>
      <point x="256" y="168" type="curve"/>
      <point x="157" y="0" type="line"/>
      <point x="12" y="0" type="line"/>
      <point x="12" y="24" type="line"/>
      <point x="23" y="24"/>
      <point x="33" y="26"/>
      <point x="41" y="39" type="curve" smooth="yes"/>
      <point x="140" y="200" type="line" smooth="yes"/>
      <point x="157" y="228"/>
      <point x="187" y="242"/>
      <point x="216" y="243" type="curve"/>
      <point x="162" y="271"/>
      <point x="171" y="396"/>
      <point x="134" y="396" type="curve" smooth="yes"/>
      <point x="109" y="396"/>
      <point x="121" y="366"/>
      <point x="79" y="366" type="curve" smooth="yes"/>
      <point x="53" y="366"/>
      <point x="33" y="384"/>
      <point x="32" y="410" type="curve" smooth="yes"/>
      <point x="31" y="450"/>
      <point x="46" y="470"/>
      <point x="102" y="470" type="curve" smooth="yes"/>
      <point x="179" y="470"/>
      <point x="203" y="392"/>
      <point x="205" y="368" type="curve" smooth="yes"/>
      <point x="209" y="324"/>
      <point x="267" y="263"/>
      <point x="283" y="262" type="curve" smooth="yes"/>
      <point x="304" y="261" type="line"/>
      <point x="304" y="377" type="line" smooth="yes"/>
      <point x="304" y="416"/>
      <point x="289" y="434"/>
      <point x="256" y="437" type="curve"/>
      <point x="256" y="461" type="line"/>
      <point x="495" y="461" type="line"/>
      <point x="495" y="437" type="line"/>
      <point x="448" y="430"/>
      <point x="443" y="424"/>
      <point x="443" y="377" type="curve" smooth="yes"/>
      <point x="443" y="261" type="line"/>
      <point x="464" y="262" type="line" smooth="yes"/>
      <point x="480" y="263"/>
      <point x="538" y="324"/>
      <point x="542" y="368" type="curve" smooth="yes"/>
      <point x="544" y="392"/>
      <point x="568" y="470"/>
      <point x="645" y="470" type="curve" smooth="yes"/>
      <point x="701" y="470"/>
      <point x="716" y="450"/>
      <point x="715" y="410" type="curve" smooth="yes"/>
      <point x="714" y="384"/>
      <point x="694" y="366"/>
      <point x="668" y="366" type="curve" smooth="yes"/>
      <point x="626" y="366"/>
      <point x="638" y="396"/>
      <point x="613" y="396" type="curve" smooth="yes"/>
      <point x="576" y="396"/>
      <point x="585" y="271"/>
      <point x="531" y="243" type="curve"/>
      <point x="560" y="242"/>
      <point x="590" y="228"/>
      <point x="607" y="200" type="curve" smooth="yes"/>
      <point x="706" y="39" type="line" smooth="yes"/>
      <point x="714" y="26"/>
      <point x="733" y="24"/>
    </contour>
  </outline>
</glyph>
<glyph name="uni0498" format="1">
  <advance width="564"/>
  <unicode hex="0498"/>
  <outline>
    <contour>
      <point x="228" y="55" type="curve" smooth="yes"/>
      <point x="321" y="55"/>
      <point x="373" y="94"/>
      <point x="373" y="181" type="curve" smooth="yes"/>
      <point x="373" y="228"/>
      <point x="363" y="325"/>
      <point x="223" y="325" type="curve" smooth="yes"/>
      <point x="165" y="325" type="line"/>
      <point x="165" y="383" type="line"/>
      <point x="226" y="383" type="line" smooth="yes"/>
      <point x="336" y="383"/>
      <point x="363" y="434"/>
      <point x="363" y="516" type="curve" smooth="yes"/>
      <point x="363" y="584"/>
      <point x="322" y="642"/>
      <point x="243" y="642" type="curve" smooth="yes"/>
      <point x="149" y="642"/>
      <point x="112" y="575"/>
      <point x="89" y="475" type="curve"/>
      <point x="52" y="475" type="line"/>
      <point x="52" y="688" type="line"/>
      <point x="85" y="688" type="line"/>
      <point x="93" y="666"/>
      <point x="102" y="658"/>
      <point x="120" y="658" type="curve" smooth="yes"/>
      <point x="129" y="658"/>
      <point x="143" y="661"/>
      <point x="167" y="669" type="curve" smooth="yes"/>
      <point x="215" y="685"/>
      <point x="239" y="691"/>
      <point x="271" y="691" type="curve" smooth="yes"/>
      <point x="404" y="691"/>
      <point x="524" y="624"/>
      <point x="524" y="498" type="curve" smooth="yes"/>
      <point x="524" y="398"/>
      <point x="460" y="370"/>
      <point x="423" y="358" type="curve"/>
      <point x="472" y="344"/>
      <point x="546" y="312"/>
      <point x="546" y="181" type="curve" smooth="yes"/>
      <point x="546" y="9"/>
      <point x="418" y="-17"/>
      <point x="275" y="-19" type="curve"/>
      <point x="311" y="-63"/>
      <point x="322" y="-88"/>
      <point x="322" y="-116" type="curve" smooth="yes"/>
      <point x="322" y="-163"/>
      <point x="277" y="-197"/>
      <point x="216" y="-197" type="curve" smooth="yes"/>
      <point x="166" y="-197"/>
      <point x="118" y="-168"/>
      <point x="93" y="-122" type="curve"/>
      <point x="115" y="-108" type="line"/>
      <point x="120" y="-110"/>
      <point x="121" y="-111"/>
      <point x="129" y="-115" type="curve" smooth="yes"/>
      <point x="149" y="-125"/>
      <point x="160" y="-128"/>
      <point x="175" y="-128" type="curve" smooth="yes"/>
      <point x="216" y="-128"/>
      <point x="238" y="-105"/>
      <point x="238" y="-64" type="curve" smooth="yes"/>
      <point x="238" y="-54"/>
      <point x="235" y="-40"/>
      <point x="230" y="-18" type="curve"/>
      <point x="94" y="-10"/>
      <point x="48" y="71"/>
      <point x="14" y="135" type="curve"/>
      <point x="52" y="168" type="line"/>
      <point x="96" y="102"/>
      <point x="148" y="55"/>
    </contour>
  </outline>
</glyph>
<glyph name="uni0499" format="1">
  <advance width="408"/>
  <unicode hex="0499"/>
  <outline>
    <contour>
      <point x="161" y="36" type="curve" smooth="yes"/>
      <point x="225" y="36"/>
      <point x="260" y="63"/>
      <point x="260" y="122" type="curve" smooth="yes"/>
      <point x="260" y="154"/>
      <point x="253" y="220"/>
      <point x="158" y="220" type="curve" smooth="yes"/>
      <point x="118" y="220" type="line"/>
      <point x="118" y="260" type="line"/>
      <point x="160" y="260" type="line" smooth="yes"/>
      <point x="235" y="260"/>
      <point x="256" y="298"/>
      <point x="256" y="354" type="curve" smooth="yes"/>
      <point x="256" y="400"/>
      <point x="228" y="440"/>
      <point x="174" y="440" type="curve" smooth="yes"/>
      <point x="110" y="440"/>
      <point x="85" y="394"/>
      <point x="69" y="326" type="curve"/>
      <point x="44" y="326" type="line"/>
      <point x="44" y="471" type="line"/>
      <point x="66" y="471" type="line"/>
      <point x="72" y="456"/>
      <point x="78" y="451"/>
      <point x="90" y="451" type="curve" smooth="yes"/>
      <point x="96" y="451"/>
      <point x="106" y="453"/>
      <point x="122" y="458" type="curve" smooth="yes"/>
      <point x="155" y="469"/>
      <point x="171" y="473"/>
      <point x="193" y="473" type="curve" smooth="yes"/>
      <point x="284" y="473"/>
      <point x="370" y="426"/>
      <point x="370" y="342" type="curve" smooth="yes"/>
      <point x="370" y="278"/>
      <point x="330" y="251"/>
      <point x="304" y="243" type="curve"/>
      <point x="338" y="234"/>
      <point x="383" y="209"/>
      <point x="383" y="122" type="curve" smooth="yes"/>
      <point x="383" y="27"/>
      <point x="298" y="-8"/>
      <point x="205" y="-13" type="curve"/>
      <point x="244" y="-61"/>
      <point x="256" y="-87"/>
      <point x="256" y="-116" type="curve" smooth="yes"/>
      <point x="256" y="-163"/>
      <point x="211" y="-197"/>
      <point x="150" y="-197" type="curve" smooth="yes"/>
      <point x="100" y="-197"/>
      <point x="52" y="-168"/>
      <point x="27" y="-122" type="curve"/>
      <point x="49" y="-108" type="line"/>
      <point x="54" y="-110"/>
      <point x="55" y="-111"/>
      <point x="63" y="-115" type="curve" smooth="yes"/>
      <point x="83" y="-125"/>
      <point x="94" y="-128"/>
      <point x="109" y="-128" type="curve" smooth="yes"/>
      <point x="150" y="-128"/>
      <point x="172" y="-105"/>
      <point x="172" y="-64" type="curve" smooth="yes"/>
      <point x="172" y="-53"/>
      <point x="169" y="-38"/>
      <point x="163" y="-14" type="curve"/>
      <point x="70" y="-8"/>
      <point x="39" y="47"/>
      <point x="15" y="91" type="curve"/>
      <point x="41" y="113" type="line"/>
      <point x="71" y="68"/>
      <point x="107" y="36"/>
    </contour>
  </outline>
</glyph>
<glyph name="uni049A" format="1">
  <advance width="778"/>
  <unicode hex="049A"/>
  <outline>
    <contour>
      <point x="525" y="286" type="curve"/>
      <point x="655" y="87" type="line" smooth="yes"/>
      <point x="665" y="71"/>
      <point x="675" y="39"/>
      <point x="743" y="34" type="curve"/>
      <point x="743" y="-167" type="line"/>
      <point x="719" y="-167" type="line"/>
      <point x="705" y="-104"/>
      <point x="694" y="-77"/>
      <point x="672" y="-52" type="curve" smooth="yes"/>
      <point x="641" y="-17"/>
      <point x="626" y="0"/>
      <point x="534" y="0" type="curve"/>
      <point x="374" y="254" type="line"/>
      <point x="346" y="292"/>
      <point x="334" y="318"/>
      <point x="306" y="318" type="curve" smooth="yes"/>
      <point x="279" y="318" type="line"/>
      <point x="279" y="96" type="line" smooth="yes"/>
      <point x="279" y="47"/>
      <point x="295" y="34"/>
      <point x="367" y="25" type="curve"/>
      <point x="367" y="0" type="line"/>
      <point x="30" y="0" type="line"/>
      <point x="30" y="25" type="line"/>
      <point x="102" y="33"/>
      <point x="117" y="45"/>
      <point x="117" y="96" type="curve" smooth="yes"/>
      <point x="117" y="580" type="line" smooth="yes"/>
      <point x="117" y="632"/>
      <point x="99" y="647"/>
      <point x="30" y="651" type="curve"/>
      <point x="30" y="676" type="line"/>
      <point x="368" y="676" type="line"/>
      <point x="368" y="651" type="line"/>
      <point x="294" y="646"/>
      <point x="279" y="630"/>
      <point x="279" y="559" type="curve" smooth="yes"/>
      <point x="279" y="371" type="line"/>
      <point x="316" y="372" type="line" smooth="yes"/>
      <point x="360" y="373"/>
      <point x="441" y="460"/>
      <point x="456" y="578" type="curve" smooth="yes"/>
      <point x="462" y="626"/>
      <point x="514" y="686"/>
      <point x="584" y="685" type="curve" smooth="yes"/>
      <point x="636" y="684"/>
      <point x="678" y="664"/>
      <point x="678" y="616" type="curve" smooth="yes"/>
      <point x="678" y="583"/>
      <point x="670" y="557"/>
      <point x="622" y="556" type="curve" smooth="yes"/>
      <point x="546" y="554"/>
      <point x="568" y="583"/>
      <point x="524" y="583" type="curve" smooth="yes"/>
      <point x="492" y="583"/>
      <point x="500" y="418"/>
      <point x="408" y="352" type="curve"/>
      <point x="440" y="349"/>
      <point x="496" y="328"/>
    </contour>
  </outline>
</glyph>
<glyph name="uni049E" format="1">
  <advance width="778"/>
  <unicode hex="049E"/>
  <outline>
    <contour>
      <point x="683" y="46" type="line"/>
      <point x="685" y="46" type="line"/>
      <point x="698" y="31"/>
      <point x="709" y="26"/>
      <point x="734" y="25" type="curve"/>
      <point x="734" y="0" type="line"/>
      <point x="536" y="0" type="line"/>
      <point x="376" y="254" type="line"/>
      <point x="348" y="292"/>
      <point x="336" y="318"/>
      <point x="308" y="318" type="curve" smooth="yes"/>
      <point x="281" y="318" type="line"/>
      <point x="281" y="96" type="line" smooth="yes"/>
      <point x="281" y="47"/>
      <point x="297" y="34"/>
      <point x="369" y="25" type="curve"/>
      <point x="369" y="0" type="line"/>
      <point x="32" y="0" type="line"/>
      <point x="32" y="25" type="line"/>
      <point x="104" y="33"/>
      <point x="119" y="45"/>
      <point x="119" y="96" type="curve" smooth="yes"/>
      <point x="119" y="487" type="line"/>
      <point x="34" y="487" type="line"/>
      <point x="34" y="559" type="line"/>
      <point x="118" y="559" type="line"/>
      <point x="118" y="580" type="line" smooth="yes"/>
      <point x="118" y="632"/>
      <point x="100" y="647"/>
      <point x="31" y="651" type="curve"/>
      <point x="31" y="676" type="line"/>
      <point x="369" y="676" type="line"/>
      <point x="369" y="651" type="line"/>
      <point x="295" y="646"/>
      <point x="280" y="630"/>
      <point x="280" y="559" type="curve"/>
      <point x="363" y="559" type="line"/>
      <point x="363" y="487" type="line"/>
      <point x="279" y="487" type="line"/>
      <point x="279" y="371" type="line"/>
      <point x="316" y="372" type="line" smooth="yes"/>
      <point x="360" y="373"/>
      <point x="441" y="460"/>
      <point x="456" y="578" type="curve" smooth="yes"/>
      <point x="462" y="626"/>
      <point x="514" y="686"/>
      <point x="584" y="685" type="curve" smooth="yes"/>
      <point x="636" y="684"/>
      <point x="678" y="664"/>
      <point x="678" y="616" type="curve" smooth="yes"/>
      <point x="678" y="583"/>
      <point x="670" y="557"/>
      <point x="622" y="556" type="curve" smooth="yes"/>
      <point x="546" y="554"/>
      <point x="568" y="583"/>
      <point x="524" y="583" type="curve" smooth="yes"/>
      <point x="492" y="583"/>
      <point x="500" y="418"/>
      <point x="408" y="352" type="curve"/>
      <point x="440" y="349"/>
      <point x="496" y="328"/>
      <point x="525" y="286" type="curve"/>
    </contour>
  </outline>
</glyph>
<glyph name="uni04A0" format="1">
  <advance width="967"/>
  <unicode hex="04A0"/>
  <outline>
    <contour>
      <point x="306" y="644" type="line"/>
      <point x="182" y="640"/>
      <point x="131" y="594"/>
      <point x="114" y="475" type="curve"/>
      <point x="85" y="475" type="line"/>
      <point x="88" y="676" type="line"/>
      <point x="557" y="676" type="line"/>
      <point x="557" y="651" type="line"/>
      <point x="483" y="646"/>
      <point x="468" y="630"/>
      <point x="468" y="559" type="curve" smooth="yes"/>
      <point x="468" y="371" type="line"/>
      <point x="505" y="372" type="line" smooth="yes"/>
      <point x="549" y="373"/>
      <point x="630" y="460"/>
      <point x="645" y="578" type="curve" smooth="yes"/>
      <point x="651" y="626"/>
      <point x="703" y="686"/>
      <point x="773" y="685" type="curve" smooth="yes"/>
      <point x="825" y="684"/>
      <point x="867" y="664"/>
      <point x="867" y="616" type="curve" smooth="yes"/>
      <point x="867" y="583"/>
      <point x="859" y="557"/>
      <point x="811" y="556" type="curve" smooth="yes"/>
      <point x="735" y="554"/>
      <point x="757" y="583"/>
      <point x="713" y="583" type="curve" smooth="yes"/>
      <point x="681" y="583"/>
      <point x="689" y="418"/>
      <point x="597" y="352" type="curve"/>
      <point x="629" y="349"/>
      <point x="685" y="328"/>
      <point x="714" y="286" type="curve"/>
      <point x="872" y="46" type="line"/>
      <point x="885" y="31"/>
      <point x="896" y="26"/>
      <point x="921" y="25" type="curve"/>
      <point x="921" y="0" type="line"/>
      <point x="723" y="0" type="line"/>
      <point x="563" y="254" type="line"/>
      <point x="535" y="292"/>
      <point x="523" y="318"/>
      <point x="495" y="318" type="curve" smooth="yes"/>
      <point x="468" y="318" type="line"/>
      <point x="468" y="96" type="line" smooth="yes"/>
      <point x="468" y="47"/>
      <point x="484" y="34"/>
      <point x="556" y="25" type="curve"/>
      <point x="556" y="0" type="line"/>
      <point x="219" y="0" type="line"/>
      <point x="219" y="25" type="line"/>
      <point x="291" y="33"/>
      <point x="306" y="45"/>
      <point x="306" y="96" type="curve" smooth="yes"/>
    </contour>
  </outline>
</glyph>
<glyph name="uni04A1" format="1">
  <advance width="633"/>
  <unicode hex="04A1"/>
  <outline>
    <contour>
      <point x="169" y="424" type="line"/>
      <point x="83" y="424"/>
      <point x="63" y="414"/>
      <point x="38" y="319" type="curve"/>
      <point x="12" y="319" type="line"/>
      <point x="19" y="461" type="line"/>
      <point x="360" y="461" type="line"/>
      <point x="360" y="437" type="line"/>
      <point x="313" y="430"/>
      <point x="308" y="424"/>
      <point x="308" y="377" type="curve" smooth="yes"/>
      <point x="308" y="261" type="line"/>
      <point x="329" y="262" type="line" smooth="yes"/>
      <point x="345" y="263"/>
      <point x="413" y="324"/>
      <point x="417" y="368" type="curve" smooth="yes"/>
      <point x="419" y="392"/>
      <point x="443" y="470"/>
      <point x="520" y="470" type="curve" smooth="yes"/>
      <point x="576" y="470"/>
      <point x="591" y="450"/>
      <point x="590" y="410" type="curve" smooth="yes"/>
      <point x="589" y="384"/>
      <point x="569" y="366"/>
      <point x="543" y="366" type="curve" smooth="yes"/>
      <point x="501" y="366"/>
      <point x="513" y="396"/>
      <point x="488" y="396" type="curve" smooth="yes"/>
      <point x="451" y="396"/>
      <point x="450" y="271"/>
      <point x="396" y="243" type="curve"/>
      <point x="425" y="242"/>
      <point x="465" y="228"/>
      <point x="482" y="200" type="curve" smooth="yes"/>
      <point x="584" y="39" type="line" smooth="yes"/>
      <point x="592" y="26"/>
      <point x="602" y="24"/>
      <point x="613" y="24" type="curve"/>
      <point x="613" y="0" type="line"/>
      <point x="465" y="0" type="line"/>
      <point x="363" y="168" type="line"/>
      <point x="363" y="168"/>
      <point x="334" y="214"/>
      <point x="318" y="214" type="curve" smooth="yes"/>
      <point x="308" y="214" type="line"/>
      <point x="308" y="84" type="line" smooth="yes"/>
      <point x="308" y="37"/>
      <point x="313" y="31"/>
      <point x="360" y="24" type="curve"/>
      <point x="360" y="0" type="line"/>
      <point x="121" y="0" type="line"/>
      <point x="121" y="24" type="line"/>
      <point x="154" y="27"/>
      <point x="169" y="45"/>
      <point x="169" y="84" type="curve" smooth="yes"/>
    </contour>
  </outline>
</glyph>
<glyph name="uni04A6" format="1">
  <advance width="978"/>
  <unicode hex="04A6"/>
  <outline>
    <contour>
      <point x="509" y="629" type="line"/>
      <point x="268" y="629" type="line"/>
      <point x="268" y="96" type="line" smooth="yes"/>
      <point x="268" y="47"/>
      <point x="285" y="33"/>
      <point x="358" y="25" type="curve"/>
      <point x="358" y="0" type="line"/>
      <point x="21" y="0" type="line"/>
      <point x="21" y="25" type="line"/>
      <point x="91" y="34"/>
      <point x="106" y="47"/>
      <point x="106" y="96" type="curve" smooth="yes"/>
      <point x="106" y="580" type="line" smooth="yes"/>
      <point x="106" y="630"/>
      <point x="88" y="645"/>
      <point x="21" y="651" type="curve"/>
      <point x="21" y="676" type="line"/>
      <point x="759" y="676" type="line"/>
      <point x="759" y="651" type="line"/>
      <point x="691" y="646"/>
      <point x="671" y="630"/>
      <point x="671" y="580" type="curve" smooth="yes"/>
      <point x="671" y="395" type="line"/>
      <point x="699" y="440"/>
      <point x="753" y="473"/>
      <point x="813" y="473" type="curve" smooth="yes"/>
      <point x="895" y="473"/>
      <point x="948" y="418"/>
      <point x="948" y="332" type="curve" smooth="yes"/>
      <point x="948" y="2" type="line" smooth="yes"/>
      <point x="948" y="-57"/>
      <point x="940" y="-95"/>
      <point x="921" y="-127" type="curve" smooth="yes"/>
      <point x="893" y="-176"/>
      <point x="840" y="-203"/>
      <point x="771" y="-203" type="curve" smooth="yes"/>
      <point x="689" y="-203"/>
      <point x="631" y="-162"/>
      <point x="631" y="-103" type="curve" smooth="yes"/>
      <point x="631" y="-67"/>
      <point x="656" y="-42"/>
      <point x="693" y="-42" type="curve" smooth="yes"/>
      <point x="725" y="-42"/>
      <point x="752" y="-66"/>
      <point x="752" y="-96" type="curve" smooth="yes"/>
      <point x="752" y="-106"/>
      <point x="748" y="-117"/>
      <point x="738" y="-133" type="curve" smooth="yes"/>
      <point x="732" y="-143"/>
      <point x="729" y="-150"/>
      <point x="729" y="-155" type="curve" smooth="yes"/>
      <point x="729" y="-165"/>
      <point x="742" y="-172"/>
      <point x="761" y="-172" type="curve" smooth="yes"/>
      <point x="794" y="-172"/>
      <point x="809" y="-149"/>
      <point x="809" y="-96" type="curve" smooth="yes"/>
      <point x="809" y="323" type="line" smooth="yes"/>
      <point x="809" y="379"/>
      <point x="792" y="406"/>
      <point x="757" y="406" type="curve" smooth="yes"/>
      <point x="734" y="406"/>
      <point x="710" y="394"/>
      <point x="688" y="371" type="curve"/>
      <point x="678" y="362"/>
      <point x="671" y="352"/>
      <point x="671" y="348" type="curve" smooth="yes"/>
      <point x="671" y="268" type="line"/>
      <point x="671" y="96" type="line" smooth="yes"/>
      <point x="671" y="47"/>
      <point x="687" y="34"/>
      <point x="759" y="25" type="curve"/>
      <point x="759" y="0" type="line"/>
      <point x="419" y="0" type="line"/>
      <point x="419" y="25" type="line"/>
      <point x="492" y="33"/>
      <point x="509" y="47"/>
      <point x="509" y="96" type="curve" smooth="yes"/>
    </contour>
  </outline>
</glyph>
<glyph name="uni04A8" format="1">
  <advance width="760"/>
  <unicode hex="04A8"/>
  <outline>
    <contour>
      <point x="427" y="29" type="curve" smooth="yes"/>
      <point x="458" y="29"/>
      <point x="509" y="39"/>
      <point x="556" y="65" type="curve"/>
      <point x="497" y="111"/>
      <point x="456" y="171"/>
      <point x="456" y="254" type="curve" smooth="yes"/>
      <point x="456" y="336"/>
      <point x="526" y="412"/>
      <point x="606" y="412" type="curve" smooth="yes"/>
      <point x="680" y="412"/>
      <point x="736" y="346"/>
      <point x="736" y="274" type="curve" smooth="yes"/>
      <point x="736" y="188"/>
      <point x="700" y="116"/>
      <point x="642" y="65" type="curve"/>
      <point x="668" y="44"/>
      <point x="699" y="27"/>
      <point x="734" y="14" type="curve"/>
      <point x="716" y="-18" type="line"/>
      <point x="677" y="-3"/>
      <point x="637" y="14"/>
      <point x="601" y="35" type="curve"/>
      <point x="546" y="0"/>
      <point x="478" y="-19"/>
      <point x="403" y="-19" type="curve" smooth="yes"/>
      <point x="196" y="-19"/>
      <point x="49" y="127"/>
      <point x="49" y="333" type="curve" smooth="yes"/>
      <point x="49" y="537"/>
      <point x="198" y="691"/>
      <point x="397" y="691" type="curve" smooth="yes"/>
      <point x="445" y="691"/>
      <point x="493" y="680"/>
      <point x="552" y="656" type="curve" smooth="yes"/>
      <point x="574" y="646"/>
      <point x="589" y="642"/>
      <point x="598" y="642" type="curve" smooth="yes"/>
      <point x="617" y="642"/>
      <point x="628" y="653"/>
      <point x="642" y="688" type="curve"/>
      <point x="669" y="688" type="line"/>
      <point x="669" y="454" type="line"/>
      <point x="644" y="454" type="line"/>
      <point x="609" y="530"/>
      <point x="586" y="563"/>
      <point x="543" y="602" type="curve" smooth="yes"/>
      <point x="500" y="640"/>
      <point x="457" y="658"/>
      <point x="410" y="658" type="curve" smooth="yes"/>
      <point x="290" y="658"/>
      <point x="226" y="548"/>
      <point x="226" y="341" type="curve" smooth="yes"/>
      <point x="226" y="241"/>
      <point x="240" y="169"/>
      <point x="269" y="116" type="curve" smooth="yes"/>
      <point x="298" y="64"/>
      <point x="361" y="29"/>
    </contour>
    <contour>
      <point x="603" y="100" type="curve"/>
      <point x="642" y="136"/>
      <point x="670" y="190"/>
      <point x="670" y="266" type="curve" smooth="yes"/>
      <point x="670" y="315"/>
      <point x="659" y="376"/>
      <point x="610" y="376" type="curve" smooth="yes"/>
      <point x="564" y="376"/>
      <point x="542" y="314"/>
      <point x="542" y="270" type="curve" smooth="yes"/>
      <point x="542" y="201"/>
      <point x="564" y="145"/>
    </contour>
  </outline>
</glyph>
<glyph name="uni04A9" format="1">
  <advance width="484"/>
  <unicode hex="04A9"/>
  <outline>
    <contour>
      <point x="308" y="53" type="curve" smooth="yes"/>
      <point x="320" y="53"/>
      <point x="333" y="55"/>
      <point x="345" y="59" type="curve"/>
      <point x="307" y="92"/>
      <point x="279" y="134"/>
      <point x="279" y="188" type="curve" smooth="yes"/>
      <point x="279" y="244"/>
      <point x="328" y="286"/>
      <point x="384" y="286" type="curve" smooth="yes"/>
      <point x="430" y="286"/>
      <point x="468" y="238"/>
      <point x="468" y="190" type="curve" smooth="yes"/>
      <point x="468" y="140"/>
      <point x="446" y="93"/>
      <point x="411" y="57" type="curve"/>
      <point x="429" y="42"/>
      <point x="450" y="27"/>
      <point x="472" y="12" type="curve"/>
      <point x="460" y="-14" type="line"/>
      <point x="435" y="-1"/>
      <point x="407" y="14"/>
      <point x="381" y="32" type="curve"/>
      <point x="342" y="3"/>
      <point x="293" y="-14"/>
      <point x="239" y="-14" type="curve" smooth="yes"/>
      <point x="115" y="-14"/>
      <point x="25" y="85"/>
      <point x="25" y="223" type="curve" smooth="yes"/>
      <point x="25" y="367"/>
      <point x="125" y="473"/>
      <point x="261" y="473" type="curve" smooth="yes"/>
      <point x="349" y="473"/>
      <point x="416" y="425"/>
      <point x="416" y="363" type="curve" smooth="yes"/>
      <point x="416" y="324"/>
      <point x="390" y="300"/>
      <point x="348" y="300" type="curve" smooth="yes"/>
      <point x="311" y="300"/>
      <point x="292" y="324"/>
      <point x="292" y="372" type="curve" smooth="yes"/>
      <point x="292" y="414"/>
      <point x="292" y="414"/>
      <point x="287" y="423" type="curve" smooth="yes"/>
      <point x="281" y="434"/>
      <point x="266" y="442"/>
      <point x="250" y="442" type="curve" smooth="yes"/>
      <point x="198" y="442"/>
      <point x="166" y="379"/>
      <point x="166" y="276" type="curve" smooth="yes"/>
      <point x="166" y="140"/>
      <point x="220" y="53"/>
    </contour>
    <contour>
      <point x="384" y="82" type="curve"/>
      <point x="414" y="106"/>
      <point x="435" y="143"/>
      <point x="435" y="186" type="curve" smooth="yes"/>
      <point x="435" y="218"/>
      <point x="422" y="255"/>
      <point x="390" y="255" type="curve" smooth="yes"/>
      <point x="357" y="255"/>
      <point x="342" y="218"/>
      <point x="342" y="184" type="curve" smooth="yes"/>
      <point x="342" y="142"/>
      <point x="358" y="110"/>
    </contour>
  </outline>
</glyph>
<glyph name="uni04AA" format="1">
  <advance width="722"/>
  <unicode hex="04AA"/>
  <outline>
    <contour>
      <point x="657" y="152" type="curve"/>
      <point x="687" y="127" type="line"/>
      <point x="642" y="77"/>
      <point x="620" y="57"/>
      <point x="588" y="35" type="curve" smooth="yes"/>
      <point x="540" y="3"/>
      <point x="489" y="-14"/>
      <point x="430" y="-18" type="curve"/>
      <point x="465" y="-63"/>
      <point x="477" y="-88"/>
      <point x="477" y="-116" type="curve" smooth="yes"/>
      <point x="477" y="-163"/>
      <point x="432" y="-197"/>
      <point x="371" y="-197" type="curve" smooth="yes"/>
      <point x="321" y="-197"/>
      <point x="273" y="-168"/>
      <point x="248" y="-122" type="curve"/>
      <point x="270" y="-108" type="line"/>
      <point x="275" y="-110"/>
      <point x="276" y="-111"/>
      <point x="284" y="-115" type="curve" smooth="yes"/>
      <point x="304" y="-125"/>
      <point x="315" y="-128"/>
      <point x="330" y="-128" type="curve" smooth="yes"/>
      <point x="371" y="-128"/>
      <point x="393" y="-105"/>
      <point x="393" y="-64" type="curve" smooth="yes"/>
      <point x="393" y="-54"/>
      <point x="391" y="-40"/>
      <point x="386" y="-19" type="curve"/>
      <point x="188" y="-11"/>
      <point x="49" y="133"/>
      <point x="49" y="333" type="curve" smooth="yes"/>
      <point x="49" y="537"/>
      <point x="198" y="691"/>
      <point x="397" y="691" type="curve" smooth="yes"/>
      <point x="445" y="691"/>
      <point x="493" y="680"/>
      <point x="552" y="656" type="curve" smooth="yes"/>
      <point x="574" y="646"/>
      <point x="589" y="642"/>
      <point x="598" y="642" type="curve" smooth="yes"/>
      <point x="617" y="642"/>
      <point x="628" y="653"/>
      <point x="642" y="688" type="curve"/>
      <point x="669" y="688" type="line"/>
      <point x="669" y="454" type="line"/>
      <point x="644" y="454" type="line"/>
      <point x="609" y="530"/>
      <point x="586" y="563"/>
      <point x="543" y="602" type="curve" smooth="yes"/>
      <point x="500" y="640"/>
      <point x="457" y="658"/>
      <point x="410" y="658" type="curve" smooth="yes"/>
      <point x="290" y="658"/>
      <point x="226" y="548"/>
      <point x="226" y="341" type="curve" smooth="yes"/>
      <point x="226" y="241"/>
      <point x="240" y="169"/>
      <point x="269" y="116" type="curve" smooth="yes"/>
      <point x="298" y="64"/>
      <point x="361" y="29"/>
      <point x="427" y="29" type="curve" smooth="yes"/>
      <point x="455" y="29"/>
      <point x="488" y="35"/>
      <point x="517" y="47" type="curve" smooth="yes"/>
      <point x="566" y="66"/>
      <point x="598" y="90"/>
    </contour>
  </outline>
</glyph>
<glyph name="uni04AB" format="1">
  <advance width="444"/>
  <unicode hex="04AB"/>
  <outline>
    <contour>
      <point x="412" y="109" type="curve"/>
      <point x="430" y="91" type="line"/>
      <point x="377" y="24"/>
      <point x="326" y="-8"/>
      <point x="260" y="-13" type="curve"/>
      <point x="299" y="-61"/>
      <point x="311" y="-87"/>
      <point x="311" y="-116" type="curve" smooth="yes"/>
      <point x="311" y="-163"/>
      <point x="266" y="-197"/>
      <point x="205" y="-197" type="curve" smooth="yes"/>
      <point x="155" y="-197"/>
      <point x="107" y="-168"/>
      <point x="82" y="-122" type="curve"/>
      <point x="104" y="-108" type="line"/>
      <point x="109" y="-110"/>
      <point x="110" y="-111"/>
      <point x="118" y="-115" type="curve" smooth="yes"/>
      <point x="138" y="-125"/>
      <point x="149" y="-128"/>
      <point x="164" y="-128" type="curve" smooth="yes"/>
      <point x="205" y="-128"/>
      <point x="227" y="-105"/>
      <point x="227" y="-64" type="curve" smooth="yes"/>
      <point x="227" y="-53"/>
      <point x="224" y="-37"/>
      <point x="218" y="-13" type="curve"/>
      <point x="105" y="-3"/>
      <point x="25" y="93"/>
      <point x="25" y="223" type="curve" smooth="yes"/>
      <point x="25" y="367"/>
      <point x="125" y="473"/>
      <point x="261" y="473" type="curve" smooth="yes"/>
      <point x="349" y="473"/>
      <point x="416" y="425"/>
      <point x="416" y="363" type="curve" smooth="yes"/>
      <point x="416" y="324"/>
      <point x="390" y="300"/>
      <point x="348" y="300" type="curve" smooth="yes"/>
      <point x="311" y="300"/>
      <point x="293" y="323"/>
      <point x="292" y="372" type="curve" smooth="yes"/>
      <point x="292" y="414"/>
      <point x="292" y="414"/>
      <point x="287" y="423" type="curve" smooth="yes"/>
      <point x="281" y="434"/>
      <point x="266" y="442"/>
      <point x="250" y="442" type="curve" smooth="yes"/>
      <point x="198" y="442"/>
      <point x="166" y="379"/>
      <point x="166" y="276" type="curve" smooth="yes"/>
      <point x="166" y="140"/>
      <point x="221" y="53"/>
      <point x="308" y="53" type="curve" smooth="yes"/>
      <point x="349" y="53"/>
      <point x="375" y="67"/>
    </contour>
  </outline>
</glyph>
<glyph name="uni04AC" format="1">
  <advance width="667"/>
  <unicode hex="04AC"/>
  <outline>
    <contour>
      <point x="250" y="0" type="curve" smooth="yes"/>
      <point x="156" y="0" type="line"/>
      <point x="156" y="25" type="line"/>
      <point x="242" y="32"/>
      <point x="253" y="43"/>
      <point x="253" y="117" type="curve" smooth="yes"/>
      <point x="253" y="644" type="line"/>
      <point x="129" y="640"/>
      <point x="77" y="594"/>
      <point x="60" y="475" type="curve"/>
      <point x="31" y="475" type="line"/>
      <point x="34" y="676" type="line"/>
      <point x="634" y="676" type="line"/>
      <point x="636" y="475" type="line"/>
      <point x="607" y="475" type="line"/>
      <point x="590" y="594"/>
      <point x="538" y="640"/>
      <point x="415" y="644" type="curve"/>
      <point x="415" y="105" type="line" smooth="yes"/>
      <point x="415" y="55"/>
      <point x="435" y="39"/>
      <point x="503" y="34" type="curve"/>
      <point x="503" y="-167" type="line"/>
      <point x="479" y="-167" type="line"/>
      <point x="465" y="-104"/>
      <point x="454" y="-77"/>
      <point x="432" y="-52" type="curve" smooth="yes"/>
      <point x="401" y="-17"/>
      <point x="342" y="0"/>
    </contour>
  </outline>
</glyph>
<glyph name="uni04AD" format="1">
  <advance width="494"/>
  <unicode hex="04AD"/>
  <outline>
    <contour>
      <point x="150" y="0" type="curve" smooth="yes"/>
      <point x="121" y="0" type="line"/>
      <point x="121" y="24" type="line"/>
      <point x="166" y="33"/>
      <point x="174" y="42"/>
      <point x="174" y="84" type="curve" smooth="yes"/>
      <point x="174" y="424" type="line"/>
      <point x="88" y="424"/>
      <point x="63" y="414"/>
      <point x="38" y="319" type="curve"/>
      <point x="12" y="319" type="line"/>
      <point x="19" y="461" type="line"/>
      <point x="468" y="461" type="line"/>
      <point x="475" y="319" type="line"/>
      <point x="449" y="319" type="line"/>
      <point x="424" y="414"/>
      <point x="394" y="424"/>
      <point x="313" y="424" type="curve"/>
      <point x="313" y="89" type="line" smooth="yes"/>
      <point x="313" y="52"/>
      <point x="326" y="36"/>
      <point x="360" y="32" type="curve"/>
      <point x="367" y="-110" type="line"/>
      <point x="341" y="-110" type="line"/>
      <point x="316" y="-15"/>
      <point x="290" y="0"/>
    </contour>
  </outline>
</glyph>
<glyph name="uni04AF" format="1">
  <advance width="500"/>
  <unicode hex="04AF"/>
  <outline>
    <contour>
      <point x="184" y="126" type="line"/>
      <point x="121" y="282" type="line" smooth="yes"/>
      <point x="105" y="323"/>
      <point x="58" y="423"/>
      <point x="56" y="422" type="curve"/>
      <point x="50" y="431"/>
      <point x="44" y="434"/>
      <point x="21" y="437" type="curve"/>
      <point x="21" y="461" type="line"/>
      <point x="271" y="461" type="line"/>
      <point x="271" y="437" type="line"/>
      <point x="263" y="436"/>
      <point x="255" y="435"/>
      <point x="253" y="435" type="curve" smooth="yes"/>
      <point x="228" y="433"/>
      <point x="218" y="426"/>
      <point x="218" y="411" type="curve" smooth="yes"/>
      <point x="218" y="405"/>
      <point x="220" y="399"/>
      <point x="227" y="380" type="curve" smooth="yes"/>
      <point x="306" y="177" type="line"/>
      <point x="378" y="359" type="line" smooth="yes"/>
      <point x="385" y="377"/>
      <point x="389" y="393"/>
      <point x="389" y="404" type="curve" smooth="yes"/>
      <point x="389" y="428"/>
      <point x="377" y="435"/>
      <point x="334" y="437" type="curve"/>
      <point x="334" y="461" type="line"/>
      <point x="485" y="461" type="line"/>
      <point x="485" y="437" type="line"/>
      <point x="454" y="434"/>
      <point x="446" y="426"/>
      <point x="427" y="382" type="curve"/>
      <point x="323" y="126" type="line"/>
      <point x="323" y="-141" type="line" smooth="yes"/>
      <point x="323" y="-181"/>
      <point x="339" y="-200"/>
      <point x="372" y="-201" type="curve"/>
      <point x="372" y="-225" type="line"/>
      <point x="133" y="-225" type="line"/>
      <point x="133" y="-201" type="line"/>
      <point x="167" y="-198"/>
      <point x="184" y="-178"/>
      <point x="184" y="-141" type="curve" smooth="yes"/>
    </contour>
  </outline>
</glyph>
<glyph name="uni04B4" format="1">
  <advance width="1046"/>
  <unicode hex="04B4"/>
  <outline>
    <contour>
      <point x="415" y="644" type="curve"/>
      <point x="415" y="47" type="line"/>
      <point x="777" y="47" type="line"/>
      <point x="777" y="580" type="line" smooth="yes"/>
      <point x="777" y="629"/>
      <point x="760" y="643"/>
      <point x="687" y="651" type="curve"/>
      <point x="687" y="676" type="line"/>
      <point x="1027" y="676" type="line"/>
      <point x="1027" y="651" type="line"/>
      <point x="955" y="642"/>
      <point x="939" y="629"/>
      <point x="939" y="580" type="curve" smooth="yes"/>
      <point x="939" y="105" type="line" smooth="yes"/>
      <point x="939" y="55"/>
      <point x="959" y="39"/>
      <point x="1027" y="34" type="curve"/>
      <point x="1027" y="-167" type="line"/>
      <point x="1003" y="-167" type="line"/>
      <point x="989" y="-104"/>
      <point x="978" y="-77"/>
      <point x="956" y="-52" type="curve" smooth="yes"/>
      <point x="925" y="-17"/>
      <point x="866" y="0"/>
      <point x="774" y="0" type="curve" smooth="yes"/>
      <point x="168" y="0" type="line"/>
      <point x="168" y="25" type="line"/>
      <point x="235" y="31"/>
      <point x="253" y="46"/>
      <point x="253" y="96" type="curve" smooth="yes"/>
      <point x="253" y="644" type="line"/>
      <point x="129" y="640"/>
      <point x="77" y="594"/>
      <point x="60" y="475" type="curve"/>
      <point x="31" y="475" type="line"/>
      <point x="34" y="676" type="line"/>
      <point x="634" y="676" type="line"/>
      <point x="636" y="475" type="line"/>
      <point x="607" y="475" type="line"/>
      <point x="590" y="594"/>
      <point x="538" y="640"/>
    </contour>
  </outline>
</glyph>
